{
    "header": {
      "keySignatures": [],
      "meta": [],
      "name": "STORYSEEKER1\u0000",
      "ppq": 96,
      "tempos": [],
      "timeSignatures": [
        {
          "ticks": 0,
          "timeSignature": [
            4,
            4
          ],
          "measures": 0
        },
        {
          "ticks": 0,
          "timeSignature": [
            4,
            4
          ],
          "measures": 0
        }
      ]
    },
    "tracks": [
      {
        "channel": 0,
        "controlChanges": {},
        "pitchBends": [],
        "instrument": {
          "family": "piano",
          "name": "acoustic grand piano",
          "number": 0
        },
        "name": "STORYSEEKER1\u0000",
        "notes": [
          {
            "duration": 0.5,
            "durationTicks": 96,
            "midi": 43,
            "name": "G2",
            "ticks": 0,
            "time": 0,
            "velocity": 0.5039370078740157
          },
          {
            "duration": 0.5,
            "durationTicks": 96,
            "midi": 50,
            "name": "D3",
            "ticks": 0,
            "time": 0,
            "velocity": 0.5039370078740157
          },
          {
            "duration": 0.75,
            "durationTicks": 144,
            "midi": 55,
            "name": "G3",
            "ticks": 0,
            "time": 0,
            "velocity": 0.5039370078740157
          },
          {
            "duration": 0.75,
            "durationTicks": 144,
            "midi": 57,
            "name": "A3",
            "ticks": 0,
            "time": 0,
            "velocity": 0.5039370078740157
          },
          {
            "duration": 0.75,
            "durationTicks": 144,
            "midi": 62,
            "name": "D4",
            "ticks": 0,
            "time": 0,
            "velocity": 0.5039370078740157
          },
          {
            "duration": 0.5,
            "durationTicks": 96,
            "midi": 50,
            "name": "D3",
            "ticks": 96,
            "time": 0.5,
            "velocity": 0.5039370078740157
          },
          {
            "duration": 0.25,
            "durationTicks": 48,
            "midi": 57,
            "name": "A3",
            "ticks": 144,
            "time": 0.75,
            "velocity": 0.5039370078740157
          },
          {
            "duration": 0.25,
            "durationTicks": 48,
            "midi": 62,
            "name": "D4",
            "ticks": 192,
            "time": 1,
            "velocity": 0.5039370078740157
          },
          {
            "duration": 0.5,
            "durationTicks": 96,
            "midi": 47,
            "name": "B2",
            "ticks": 240,
            "time": 1.25,
            "velocity": 0.5039370078740157
          },
          {
            "duration": 0.5,
            "durationTicks": 96,
            "midi": 54,
            "name": "F#3",
            "ticks": 240,
            "time": 1.25,
            "velocity": 0.5039370078740157
          },
          {
            "duration": 0.5,
            "durationTicks": 96,
            "midi": 57,
            "name": "A3",
            "ticks": 240,
            "time": 1.25,
            "velocity": 0.5039370078740157
          },
          {
            "duration": 0.5,
            "durationTicks": 96,
            "midi": 59,
            "name": "B3",
            "ticks": 240,
            "time": 1.25,
            "velocity": 0.5039370078740157
          },
          {
            "duration": 0.5,
            "durationTicks": 96,
            "midi": 62,
            "name": "D4",
            "ticks": 240,
            "time": 1.25,
            "velocity": 0.5039370078740157
          },
          {
            "duration": 0.0625,
            "durationTicks": 12,
            "midi": 64,
            "name": "E4",
            "ticks": 240,
            "time": 1.25,
            "velocity": 0.5039370078740157
          },
          {
            "duration": 0.4375,
            "durationTicks": 84,
            "midi": 66,
            "name": "F#4",
            "ticks": 252,
            "time": 1.3125,
            "velocity": 0.5039370078740157
          },
          {
            "duration": 0.75,
            "durationTicks": 144,
            "midi": 45,
            "name": "A2",
            "ticks": 336,
            "time": 1.75,
            "velocity": 0.5039370078740157
          },
          {
            "duration": 0.75,
            "durationTicks": 144,
            "midi": 52,
            "name": "E3",
            "ticks": 336,
            "time": 1.75,
            "velocity": 0.5039370078740157
          },
          {
            "duration": 0.75,
            "durationTicks": 144,
            "midi": 57,
            "name": "A3",
            "ticks": 336,
            "time": 1.75,
            "velocity": 0.5039370078740157
          },
          {
            "duration": 0.75,
            "durationTicks": 144,
            "midi": 59,
            "name": "B3",
            "ticks": 336,
            "time": 1.75,
            "velocity": 0.5039370078740157
          },
          {
            "duration": 0.75,
            "durationTicks": 144,
            "midi": 61,
            "name": "C#4",
            "ticks": 336,
            "time": 1.75,
            "velocity": 0.5039370078740157
          },
          {
            "duration": 0.75,
            "durationTicks": 144,
            "midi": 64,
            "name": "E4",
            "ticks": 336,
            "time": 1.75,
            "velocity": 0.5039370078740157
          },
          {
            "duration": 0.25,
            "durationTicks": 48,
            "midi": 49,
            "name": "C#3",
            "ticks": 480,
            "time": 2.5,
            "velocity": 0.5039370078740157
          },
          {
            "duration": 0.25,
            "durationTicks": 48,
            "midi": 57,
            "name": "A3",
            "ticks": 480,
            "time": 2.5,
            "velocity": 0.5039370078740157
          },
          {
            "duration": 1.25,
            "durationTicks": 240,
            "midi": 42,
            "name": "F#2",
            "ticks": 528,
            "time": 2.75,
            "velocity": 0.5039370078740157
          },
          {
            "duration": 1.25,
            "durationTicks": 240,
            "midi": 50,
            "name": "D3",
            "ticks": 528,
            "time": 2.75,
            "velocity": 0.5039370078740157
          },
          {
            "duration": 1,
            "durationTicks": 192,
            "midi": 54,
            "name": "F#3",
            "ticks": 528,
            "time": 2.75,
            "velocity": 0.5039370078740157
          },
          {
            "duration": 0.5,
            "durationTicks": 96,
            "midi": 57,
            "name": "A3",
            "ticks": 528,
            "time": 2.75,
            "velocity": 0.5039370078740157
          },
          {
            "duration": 0.5,
            "durationTicks": 96,
            "midi": 61,
            "name": "C#4",
            "ticks": 528,
            "time": 2.75,
            "velocity": 0.5039370078740157
          },
          {
            "duration": 0.5,
            "durationTicks": 96,
            "midi": 57,
            "name": "A3",
            "ticks": 624,
            "time": 3.25,
            "velocity": 0.5039370078740157
          },
          {
            "duration": 0.5,
            "durationTicks": 96,
            "midi": 62,
            "name": "D4",
            "ticks": 624,
            "time": 3.25,
            "velocity": 0.5039370078740157
          },
          {
            "duration": 0.25,
            "durationTicks": 48,
            "midi": 57,
            "name": "A3",
            "ticks": 720,
            "time": 3.75,
            "velocity": 0.5039370078740157
          },
          {
            "duration": 0.75,
            "durationTicks": 144,
            "midi": 40,
            "name": "E2",
            "ticks": 768,
            "time": 4,
            "velocity": 0.5039370078740157
          },
          {
            "duration": 0.75,
            "durationTicks": 144,
            "midi": 50,
            "name": "D3",
            "ticks": 768,
            "time": 4,
            "velocity": 0.5039370078740157
          },
          {
            "duration": 0.75,
            "durationTicks": 144,
            "midi": 55,
            "name": "G3",
            "ticks": 768,
            "time": 4,
            "velocity": 0.5039370078740157
          },
          {
            "duration": 0.75,
            "durationTicks": 144,
            "midi": 59,
            "name": "B3",
            "ticks": 768,
            "time": 4,
            "velocity": 0.5039370078740157
          },
          {
            "duration": 0.75,
            "durationTicks": 144,
            "midi": 62,
            "name": "D4",
            "ticks": 768,
            "time": 4,
            "velocity": 0.5039370078740157
          },
          {
            "duration": 0.75,
            "durationTicks": 144,
            "midi": 67,
            "name": "G4",
            "ticks": 768,
            "time": 4,
            "velocity": 0.5039370078740157
          },
          {
            "duration": 1,
            "durationTicks": 192,
            "midi": 38,
            "name": "D2",
            "ticks": 912,
            "time": 4.75,
            "velocity": 0.5039370078740157
          },
          {
            "duration": 1,
            "durationTicks": 192,
            "midi": 45,
            "name": "A2",
            "ticks": 912,
            "time": 4.75,
            "velocity": 0.5039370078740157
          },
          {
            "duration": 1,
            "durationTicks": 192,
            "midi": 54,
            "name": "F#3",
            "ticks": 912,
            "time": 4.75,
            "velocity": 0.5039370078740157
          },
          {
            "duration": 0.25,
            "durationTicks": 48,
            "midi": 57,
            "name": "A3",
            "ticks": 912,
            "time": 4.75,
            "velocity": 0.5039370078740157
          },
          {
            "duration": 0.75,
            "durationTicks": 144,
            "midi": 59,
            "name": "B3",
            "ticks": 912,
            "time": 4.75,
            "velocity": 0.5039370078740157
          },
          {
            "duration": 0.75,
            "durationTicks": 144,
            "midi": 64,
            "name": "E4",
            "ticks": 912,
            "time": 4.75,
            "velocity": 0.5039370078740157
          },
          {
            "duration": 0.25,
            "durationTicks": 48,
            "midi": 66,
            "name": "F#4",
            "ticks": 912,
            "time": 4.75,
            "velocity": 0.5039370078740157
          },
          {
            "duration": 0.5,
            "durationTicks": 96,
            "midi": 57,
            "name": "A3",
            "ticks": 960,
            "time": 5,
            "velocity": 0.5039370078740157
          },
          {
            "duration": 0.5,
            "durationTicks": 96,
            "midi": 66,
            "name": "F#4",
            "ticks": 960,
            "time": 5,
            "velocity": 0.5039370078740157
          },
          {
            "duration": 0.25,
            "durationTicks": 48,
            "midi": 57,
            "name": "A3",
            "ticks": 1056,
            "time": 5.5,
            "velocity": 0.5039370078740157
          },
          {
            "duration": 0.5,
            "durationTicks": 96,
            "midi": 43,
            "name": "G2",
            "ticks": 1104,
            "time": 5.75,
            "velocity": 0.5039370078740157
          },
          {
            "duration": 0.5,
            "durationTicks": 96,
            "midi": 50,
            "name": "D3",
            "ticks": 1104,
            "time": 5.75,
            "velocity": 0.5039370078740157
          },
          {
            "duration": 0.5,
            "durationTicks": 96,
            "midi": 55,
            "name": "G3",
            "ticks": 1104,
            "time": 5.75,
            "velocity": 0.5039370078740157
          },
          {
            "duration": 1,
            "durationTicks": 192,
            "midi": 59,
            "name": "B3",
            "ticks": 1104,
            "time": 5.75,
            "velocity": 0.5039370078740157
          },
          {
            "duration": 1.25,
            "durationTicks": 240,
            "midi": 31,
            "name": "G1",
            "ticks": 1200,
            "time": 6.25,
            "velocity": 0.5039370078740157
          },
          {
            "duration": 0.25,
            "durationTicks": 48,
            "midi": 74,
            "name": "D5",
            "ticks": 1296,
            "time": 6.75,
            "velocity": 0.5039370078740157
          },
          {
            "duration": 0.5,
            "durationTicks": 96,
            "midi": 86,
            "name": "D6",
            "ticks": 1344,
            "time": 7,
            "velocity": 0.5039370078740157
          },
          {
            "duration": 0.25,
            "durationTicks": 48,
            "midi": 59,
            "name": "B3",
            "ticks": 1488,
            "time": 7.75,
            "velocity": 0.4015748031496063
          },
          {
            "duration": 0.5,
            "durationTicks": 96,
            "midi": 43,
            "name": "G2",
            "ticks": 1536,
            "time": 8,
            "velocity": 0.5039370078740157
          },
          {
            "duration": 0.5,
            "durationTicks": 96,
            "midi": 50,
            "name": "D3",
            "ticks": 1536,
            "time": 8,
            "velocity": 0.5039370078740157
          },
          {
            "duration": 0.5,
            "durationTicks": 96,
            "midi": 55,
            "name": "G3",
            "ticks": 1536,
            "time": 8,
            "velocity": 0.4015748031496063
          },
          {
            "duration": 0.5,
            "durationTicks": 96,
            "midi": 57,
            "name": "A3",
            "ticks": 1536,
            "time": 8,
            "velocity": 0.4015748031496063
          },
          {
            "duration": 0.5,
            "durationTicks": 96,
            "midi": 62,
            "name": "D4",
            "ticks": 1536,
            "time": 8,
            "velocity": 0.4015748031496063
          },
          {
            "duration": 0.25,
            "durationTicks": 48,
            "midi": 50,
            "name": "D3",
            "ticks": 1632,
            "time": 8.5,
            "velocity": 0.5039370078740157
          },
          {
            "duration": 0.25,
            "durationTicks": 48,
            "midi": 62,
            "name": "D4",
            "ticks": 1632,
            "time": 8.5,
            "velocity": 0.4015748031496063
          },
          {
            "duration": 0.25,
            "durationTicks": 48,
            "midi": 57,
            "name": "A3",
            "ticks": 1680,
            "time": 8.75,
            "velocity": 0.5039370078740157
          },
          {
            "duration": 0.25,
            "durationTicks": 48,
            "midi": 59,
            "name": "B3",
            "ticks": 1680,
            "time": 8.75,
            "velocity": 0.4015748031496063
          },
          {
            "duration": 0.25,
            "durationTicks": 48,
            "midi": 62,
            "name": "D4",
            "ticks": 1728,
            "time": 9,
            "velocity": 0.4015748031496063
          },
          {
            "duration": 0.25,
            "durationTicks": 48,
            "midi": 47,
            "name": "B2",
            "ticks": 1776,
            "time": 9.25,
            "velocity": 0.5039370078740157
          },
          {
            "duration": 0.25,
            "durationTicks": 48,
            "midi": 54,
            "name": "F#3",
            "ticks": 1776,
            "time": 9.25,
            "velocity": 0.5039370078740157
          },
          {
            "duration": 0.25,
            "durationTicks": 48,
            "midi": 57,
            "name": "A3",
            "ticks": 1776,
            "time": 9.25,
            "velocity": 0.5039370078740157
          },
          {
            "duration": 0.25,
            "durationTicks": 48,
            "midi": 59,
            "name": "B3",
            "ticks": 1776,
            "time": 9.25,
            "velocity": 0.4015748031496063
          },
          {
            "duration": 0.25,
            "durationTicks": 48,
            "midi": 64,
            "name": "E4",
            "ticks": 1776,
            "time": 9.25,
            "velocity": 0.4015748031496063
          },
          {
            "duration": 0.25,
            "durationTicks": 48,
            "midi": 66,
            "name": "F#4",
            "ticks": 1824,
            "time": 9.5,
            "velocity": 0.4015748031496063
          },
          {
            "duration": 0.5,
            "durationTicks": 96,
            "midi": 45,
            "name": "A2",
            "ticks": 1872,
            "time": 9.75,
            "velocity": 0.5039370078740157
          },
          {
            "duration": 0.5,
            "durationTicks": 96,
            "midi": 52,
            "name": "E3",
            "ticks": 1872,
            "time": 9.75,
            "velocity": 0.5039370078740157
          },
          {
            "duration": 0.5,
            "durationTicks": 96,
            "midi": 57,
            "name": "A3",
            "ticks": 1872,
            "time": 9.75,
            "velocity": 0.5039370078740157
          },
          {
            "duration": 0.5,
            "durationTicks": 96,
            "midi": 61,
            "name": "C#4",
            "ticks": 1872,
            "time": 9.75,
            "velocity": 0.4015748031496063
          },
          {
            "duration": 0.5,
            "durationTicks": 96,
            "midi": 64,
            "name": "E4",
            "ticks": 1872,
            "time": 9.75,
            "velocity": 0.4015748031496063
          },
          {
            "duration": 0.25,
            "durationTicks": 48,
            "midi": 52,
            "name": "E3",
            "ticks": 1968,
            "time": 10.25,
            "velocity": 0.5039370078740157
          },
          {
            "duration": 0.5,
            "durationTicks": 96,
            "midi": 62,
            "name": "D4",
            "ticks": 1968,
            "time": 10.25,
            "velocity": 0.4015748031496063
          },
          {
            "duration": 0.25,
            "durationTicks": 48,
            "midi": 57,
            "name": "A3",
            "ticks": 2016,
            "time": 10.5,
            "velocity": 0.5039370078740157
          },
          {
            "duration": 0.5,
            "durationTicks": 96,
            "midi": 42,
            "name": "F#2",
            "ticks": 2064,
            "time": 10.75,
            "velocity": 0.5039370078740157
          },
          {
            "duration": 0.5,
            "durationTicks": 96,
            "midi": 50,
            "name": "D3",
            "ticks": 2064,
            "time": 10.75,
            "velocity": 0.5039370078740157
          },
          {
            "duration": 0.5,
            "durationTicks": 96,
            "midi": 57,
            "name": "A3",
            "ticks": 2064,
            "time": 10.75,
            "velocity": 0.4015748031496063
          },
          {
            "duration": 0.25,
            "durationTicks": 48,
            "midi": 62,
            "name": "D4",
            "ticks": 2064,
            "time": 10.75,
            "velocity": 0.4015748031496063
          },
          {
            "duration": 0.25,
            "durationTicks": 48,
            "midi": 62,
            "name": "D4",
            "ticks": 2112,
            "time": 11,
            "velocity": 0.4015748031496063
          },
          {
            "duration": 0.25,
            "durationTicks": 48,
            "midi": 45,
            "name": "A2",
            "ticks": 2160,
            "time": 11.25,
            "velocity": 0.5039370078740157
          },
          {
            "duration": 0.25,
            "durationTicks": 48,
            "midi": 64,
            "name": "E4",
            "ticks": 2160,
            "time": 11.25,
            "velocity": 0.4015748031496063
          },
          {
            "duration": 0.25,
            "durationTicks": 48,
            "midi": 50,
            "name": "D3",
            "ticks": 2208,
            "time": 11.5,
            "velocity": 0.5039370078740157
          },
          {
            "duration": 0.25,
            "durationTicks": 48,
            "midi": 66,
            "name": "F#4",
            "ticks": 2208,
            "time": 11.5,
            "velocity": 0.4015748031496063
          },
          {
            "duration": 0.25,
            "durationTicks": 48,
            "midi": 57,
            "name": "A3",
            "ticks": 2256,
            "time": 11.75,
            "velocity": 0.5039370078740157
          },
          {
            "duration": 0.5,
            "durationTicks": 96,
            "midi": 59,
            "name": "B3",
            "ticks": 2256,
            "time": 11.75,
            "velocity": 0.4015748031496063
          },
          {
            "duration": 0.5,
            "durationTicks": 96,
            "midi": 62,
            "name": "D4",
            "ticks": 2256,
            "time": 11.75,
            "velocity": 0.4015748031496063
          },
          {
            "duration": 0.5,
            "durationTicks": 96,
            "midi": 67,
            "name": "G4",
            "ticks": 2256,
            "time": 11.75,
            "velocity": 0.4015748031496063
          },
          {
            "duration": 0.5,
            "durationTicks": 96,
            "midi": 40,
            "name": "E2",
            "ticks": 2304,
            "time": 12,
            "velocity": 0.5039370078740157
          },
          {
            "duration": 0.5,
            "durationTicks": 96,
            "midi": 50,
            "name": "D3",
            "ticks": 2304,
            "time": 12,
            "velocity": 0.5039370078740157
          },
          {
            "duration": 0.5,
            "durationTicks": 96,
            "midi": 55,
            "name": "G3",
            "ticks": 2304,
            "time": 12,
            "velocity": 0.5039370078740157
          },
          {
            "duration": 0.5,
            "durationTicks": 96,
            "midi": 66,
            "name": "F#4",
            "ticks": 2352,
            "time": 12.25,
            "velocity": 0.4015748031496063
          },
          {
            "duration": 0.25,
            "durationTicks": 48,
            "midi": 52,
            "name": "E3",
            "ticks": 2400,
            "time": 12.5,
            "velocity": 0.5039370078740157
          },
          {
            "duration": 0.5,
            "durationTicks": 96,
            "midi": 38,
            "name": "D2",
            "ticks": 2448,
            "time": 12.75,
            "velocity": 0.5039370078740157
          },
          {
            "duration": 0.5,
            "durationTicks": 96,
            "midi": 45,
            "name": "A2",
            "ticks": 2448,
            "time": 12.75,
            "velocity": 0.5039370078740157
          },
          {
            "duration": 0.5,
            "durationTicks": 96,
            "midi": 50,
            "name": "D3",
            "ticks": 2448,
            "time": 12.75,
            "velocity": 0.5039370078740157
          },
          {
            "duration": 0.5,
            "durationTicks": 96,
            "midi": 57,
            "name": "A3",
            "ticks": 2448,
            "time": 12.75,
            "velocity": 0.4015748031496063
          },
          {
            "duration": 0.5,
            "durationTicks": 96,
            "midi": 62,
            "name": "D4",
            "ticks": 2448,
            "time": 12.75,
            "velocity": 0.4015748031496063
          },
          {
            "duration": 0.25,
            "durationTicks": 48,
            "midi": 45,
            "name": "A2",
            "ticks": 2544,
            "time": 13.25,
            "velocity": 0.5039370078740157
          },
          {
            "duration": 0.25,
            "durationTicks": 48,
            "midi": 57,
            "name": "A3",
            "ticks": 2544,
            "time": 13.25,
            "velocity": 0.4015748031496063
          },
          {
            "duration": 0.25,
            "durationTicks": 48,
            "midi": 50,
            "name": "D3",
            "ticks": 2592,
            "time": 13.5,
            "velocity": 0.5039370078740157
          },
          {
            "duration": 0.25,
            "durationTicks": 48,
            "midi": 57,
            "name": "A3",
            "ticks": 2592,
            "time": 13.5,
            "velocity": 0.4015748031496063
          },
          {
            "duration": 0.25,
            "durationTicks": 48,
            "midi": 33,
            "name": "A1",
            "ticks": 2640,
            "time": 13.75,
            "velocity": 0.5039370078740157
          },
          {
            "duration": 0.5,
            "durationTicks": 96,
            "midi": 79,
            "name": "G5",
            "ticks": 2640,
            "time": 13.75,
            "velocity": 0.4015748031496063
          },
          {
            "duration": 0.4583333333333339,
            "durationTicks": 88,
            "midi": 91,
            "name": "G6",
            "ticks": 2648,
            "time": 13.791666666666666,
            "velocity": 0.4015748031496063
          },
          {
            "duration": 0.25,
            "durationTicks": 48,
            "midi": 40,
            "name": "E2",
            "ticks": 2688,
            "time": 14,
            "velocity": 0.5039370078740157
          },
          {
            "duration": 0.25,
            "durationTicks": 48,
            "midi": 45,
            "name": "A2",
            "ticks": 2736,
            "time": 14.25,
            "velocity": 0.5039370078740157
          },
          {
            "duration": 0.5,
            "durationTicks": 96,
            "midi": 78,
            "name": "F#5",
            "ticks": 2736,
            "time": 14.25,
            "velocity": 0.4015748031496063
          },
          {
            "duration": 0.5,
            "durationTicks": 96,
            "midi": 90,
            "name": "F#6",
            "ticks": 2744,
            "time": 14.291666666666666,
            "velocity": 0.4015748031496063
          },
          {
            "duration": 0.25,
            "durationTicks": 48,
            "midi": 52,
            "name": "E3",
            "ticks": 2784,
            "time": 14.5,
            "velocity": 0.5039370078740157
          },
          {
            "duration": 0.25,
            "durationTicks": 48,
            "midi": 57,
            "name": "A3",
            "ticks": 2832,
            "time": 14.75,
            "velocity": 0.5039370078740157
          },
          {
            "duration": 0.5,
            "durationTicks": 96,
            "midi": 74,
            "name": "D5",
            "ticks": 2832,
            "time": 14.75,
            "velocity": 0.4015748031496063
          },
          {
            "duration": 0.4583333333333339,
            "durationTicks": 88,
            "midi": 86,
            "name": "D6",
            "ticks": 2840,
            "time": 14.791666666666666,
            "velocity": 0.4015748031496063
          },
          {
            "duration": 0.25,
            "durationTicks": 48,
            "midi": 61,
            "name": "C#4",
            "ticks": 2880,
            "time": 15,
            "velocity": 0.5039370078740157
          },
          {
            "duration": 0.25,
            "durationTicks": 48,
            "midi": 59,
            "name": "B3",
            "ticks": 2928,
            "time": 15.25,
            "velocity": 0.5039370078740157
          },
          {
            "duration": 0.25,
            "durationTicks": 48,
            "midi": 69,
            "name": "A4",
            "ticks": 2928,
            "time": 15.25,
            "velocity": 0.4015748031496063
          },
          {
            "duration": 0.20833333333333393,
            "durationTicks": 40,
            "midi": 81,
            "name": "A5",
            "ticks": 2936,
            "time": 15.291666666666666,
            "velocity": 0.4015748031496063
          },
          {
            "duration": 0.25,
            "durationTicks": 48,
            "midi": 57,
            "name": "A3",
            "ticks": 2976,
            "time": 15.5,
            "velocity": 0.5039370078740157
          },
          {
            "duration": 0.25,
            "durationTicks": 48,
            "midi": 69,
            "name": "A4",
            "ticks": 2976,
            "time": 15.5,
            "velocity": 0.4015748031496063
          },
          {
            "duration": 0.25,
            "durationTicks": 48,
            "midi": 81,
            "name": "A5",
            "ticks": 2976,
            "time": 15.5,
            "velocity": 0.4015748031496063
          },
          {
            "duration": 0.25,
            "durationTicks": 48,
            "midi": 52,
            "name": "E3",
            "ticks": 3024,
            "time": 15.75,
            "velocity": 0.5039370078740157
          },
          {
            "duration": 0.25,
            "durationTicks": 48,
            "midi": 59,
            "name": "B3",
            "ticks": 3024,
            "time": 15.75,
            "velocity": 0.4015748031496063
          },
          {
            "duration": 0.5,
            "durationTicks": 96,
            "midi": 43,
            "name": "G2",
            "ticks": 3072,
            "time": 16,
            "velocity": 0.5039370078740157
          },
          {
            "duration": 0.5,
            "durationTicks": 96,
            "midi": 50,
            "name": "D3",
            "ticks": 3072,
            "time": 16,
            "velocity": 0.5039370078740157
          },
          {
            "duration": 0.5,
            "durationTicks": 96,
            "midi": 55,
            "name": "G3",
            "ticks": 3072,
            "time": 16,
            "velocity": 0.4015748031496063
          },
          {
            "duration": 0.5,
            "durationTicks": 96,
            "midi": 57,
            "name": "A3",
            "ticks": 3072,
            "time": 16,
            "velocity": 0.4015748031496063
          },
          {
            "duration": 0.5,
            "durationTicks": 96,
            "midi": 62,
            "name": "D4",
            "ticks": 3072,
            "time": 16,
            "velocity": 0.4015748031496063
          },
          {
            "duration": 0.25,
            "durationTicks": 48,
            "midi": 50,
            "name": "D3",
            "ticks": 3168,
            "time": 16.5,
            "velocity": 0.5039370078740157
          },
          {
            "duration": 0.25,
            "durationTicks": 48,
            "midi": 62,
            "name": "D4",
            "ticks": 3168,
            "time": 16.5,
            "velocity": 0.4015748031496063
          },
          {
            "duration": 0.25,
            "durationTicks": 48,
            "midi": 57,
            "name": "A3",
            "ticks": 3216,
            "time": 16.75,
            "velocity": 0.5039370078740157
          },
          {
            "duration": 0.25,
            "durationTicks": 48,
            "midi": 59,
            "name": "B3",
            "ticks": 3216,
            "time": 16.75,
            "velocity": 0.4015748031496063
          },
          {
            "duration": 0.25,
            "durationTicks": 48,
            "midi": 62,
            "name": "D4",
            "ticks": 3264,
            "time": 17,
            "velocity": 0.4015748031496063
          },
          {
            "duration": 0.25,
            "durationTicks": 48,
            "midi": 47,
            "name": "B2",
            "ticks": 3312,
            "time": 17.25,
            "velocity": 0.5039370078740157
          },
          {
            "duration": 0.25,
            "durationTicks": 48,
            "midi": 54,
            "name": "F#3",
            "ticks": 3312,
            "time": 17.25,
            "velocity": 0.5039370078740157
          },
          {
            "duration": 0.25,
            "durationTicks": 48,
            "midi": 57,
            "name": "A3",
            "ticks": 3312,
            "time": 17.25,
            "velocity": 0.5039370078740157
          },
          {
            "duration": 0.25,
            "durationTicks": 48,
            "midi": 59,
            "name": "B3",
            "ticks": 3312,
            "time": 17.25,
            "velocity": 0.4015748031496063
          },
          {
            "duration": 0.25,
            "durationTicks": 48,
            "midi": 64,
            "name": "E4",
            "ticks": 3312,
            "time": 17.25,
            "velocity": 0.4015748031496063
          },
          {
            "duration": 0.25,
            "durationTicks": 48,
            "midi": 66,
            "name": "F#4",
            "ticks": 3360,
            "time": 17.5,
            "velocity": 0.4015748031496063
          },
          {
            "duration": 0.5,
            "durationTicks": 96,
            "midi": 45,
            "name": "A2",
            "ticks": 3408,
            "time": 17.75,
            "velocity": 0.5039370078740157
          },
          {
            "duration": 0.5,
            "durationTicks": 96,
            "midi": 52,
            "name": "E3",
            "ticks": 3408,
            "time": 17.75,
            "velocity": 0.5039370078740157
          },
          {
            "duration": 0.5,
            "durationTicks": 96,
            "midi": 57,
            "name": "A3",
            "ticks": 3408,
            "time": 17.75,
            "velocity": 0.5039370078740157
          },
          {
            "duration": 0.5,
            "durationTicks": 96,
            "midi": 61,
            "name": "C#4",
            "ticks": 3408,
            "time": 17.75,
            "velocity": 0.4015748031496063
          },
          {
            "duration": 0.5,
            "durationTicks": 96,
            "midi": 64,
            "name": "E4",
            "ticks": 3408,
            "time": 17.75,
            "velocity": 0.4015748031496063
          },
          {
            "duration": 0.25,
            "durationTicks": 48,
            "midi": 52,
            "name": "E3",
            "ticks": 3504,
            "time": 18.25,
            "velocity": 0.5039370078740157
          },
          {
            "duration": 0.5,
            "durationTicks": 96,
            "midi": 62,
            "name": "D4",
            "ticks": 3504,
            "time": 18.25,
            "velocity": 0.4015748031496063
          },
          {
            "duration": 0.25,
            "durationTicks": 48,
            "midi": 57,
            "name": "A3",
            "ticks": 3552,
            "time": 18.5,
            "velocity": 0.5039370078740157
          },
          {
            "duration": 0.5,
            "durationTicks": 96,
            "midi": 42,
            "name": "F#2",
            "ticks": 3600,
            "time": 18.75,
            "velocity": 0.5039370078740157
          },
          {
            "duration": 0.5,
            "durationTicks": 96,
            "midi": 50,
            "name": "D3",
            "ticks": 3600,
            "time": 18.75,
            "velocity": 0.5039370078740157
          },
          {
            "duration": 0.5,
            "durationTicks": 96,
            "midi": 57,
            "name": "A3",
            "ticks": 3600,
            "time": 18.75,
            "velocity": 0.4015748031496063
          },
          {
            "duration": 0.25,
            "durationTicks": 48,
            "midi": 62,
            "name": "D4",
            "ticks": 3600,
            "time": 18.75,
            "velocity": 0.4015748031496063
          },
          {
            "duration": 0.25,
            "durationTicks": 48,
            "midi": 62,
            "name": "D4",
            "ticks": 3648,
            "time": 19,
            "velocity": 0.4015748031496063
          },
          {
            "duration": 0.25,
            "durationTicks": 48,
            "midi": 45,
            "name": "A2",
            "ticks": 3696,
            "time": 19.25,
            "velocity": 0.5039370078740157
          },
          {
            "duration": 0.25,
            "durationTicks": 48,
            "midi": 64,
            "name": "E4",
            "ticks": 3696,
            "time": 19.25,
            "velocity": 0.4015748031496063
          },
          {
            "duration": 0.25,
            "durationTicks": 48,
            "midi": 50,
            "name": "D3",
            "ticks": 3744,
            "time": 19.5,
            "velocity": 0.5039370078740157
          },
          {
            "duration": 0.25,
            "durationTicks": 48,
            "midi": 66,
            "name": "F#4",
            "ticks": 3744,
            "time": 19.5,
            "velocity": 0.4015748031496063
          },
          {
            "duration": 0.25,
            "durationTicks": 48,
            "midi": 54,
            "name": "F#3",
            "ticks": 3792,
            "time": 19.75,
            "velocity": 0.5039370078740157
          },
          {
            "duration": 0.5,
            "durationTicks": 96,
            "midi": 59,
            "name": "B3",
            "ticks": 3792,
            "time": 19.75,
            "velocity": 0.4015748031496063
          },
          {
            "duration": 0.5,
            "durationTicks": 96,
            "midi": 62,
            "name": "D4",
            "ticks": 3792,
            "time": 19.75,
            "velocity": 0.4015748031496063
          },
          {
            "duration": 0.5,
            "durationTicks": 96,
            "midi": 67,
            "name": "G4",
            "ticks": 3792,
            "time": 19.75,
            "velocity": 0.4015748031496063
          },
          {
            "duration": 0.25,
            "durationTicks": 48,
            "midi": 40,
            "name": "E2",
            "ticks": 3840,
            "time": 20,
            "velocity": 0.5039370078740157
          },
          {
            "duration": 0.25,
            "durationTicks": 48,
            "midi": 47,
            "name": "B2",
            "ticks": 3840,
            "time": 20,
            "velocity": 0.5039370078740157
          },
          {
            "duration": 0.25,
            "durationTicks": 48,
            "midi": 52,
            "name": "E3",
            "ticks": 3840,
            "time": 20,
            "velocity": 0.5039370078740157
          },
          {
            "duration": 0.25,
            "durationTicks": 48,
            "midi": 47,
            "name": "B2",
            "ticks": 3888,
            "time": 20.25,
            "velocity": 0.5039370078740157
          },
          {
            "duration": 0.5,
            "durationTicks": 96,
            "midi": 66,
            "name": "F#4",
            "ticks": 3888,
            "time": 20.25,
            "velocity": 0.4015748031496063
          },
          {
            "duration": 0.25,
            "durationTicks": 48,
            "midi": 52,
            "name": "E3",
            "ticks": 3936,
            "time": 20.5,
            "velocity": 0.5039370078740157
          },
          {
            "duration": 0.5,
            "durationTicks": 96,
            "midi": 38,
            "name": "D2",
            "ticks": 3984,
            "time": 20.75,
            "velocity": 0.5039370078740157
          },
          {
            "duration": 0.5,
            "durationTicks": 96,
            "midi": 45,
            "name": "A2",
            "ticks": 3984,
            "time": 20.75,
            "velocity": 0.5039370078740157
          },
          {
            "duration": 0.5,
            "durationTicks": 96,
            "midi": 50,
            "name": "D3",
            "ticks": 3984,
            "time": 20.75,
            "velocity": 0.5039370078740157
          },
          {
            "duration": 0.5,
            "durationTicks": 96,
            "midi": 57,
            "name": "A3",
            "ticks": 3984,
            "time": 20.75,
            "velocity": 0.4015748031496063
          },
          {
            "duration": 0.5,
            "durationTicks": 96,
            "midi": 62,
            "name": "D4",
            "ticks": 3984,
            "time": 20.75,
            "velocity": 0.4015748031496063
          },
          {
            "duration": 0.25,
            "durationTicks": 48,
            "midi": 45,
            "name": "A2",
            "ticks": 4080,
            "time": 21.25,
            "velocity": 0.5039370078740157
          },
          {
            "duration": 0.25,
            "durationTicks": 48,
            "midi": 57,
            "name": "A3",
            "ticks": 4080,
            "time": 21.25,
            "velocity": 0.4015748031496063
          },
          {
            "duration": 0.25,
            "durationTicks": 48,
            "midi": 50,
            "name": "D3",
            "ticks": 4128,
            "time": 21.5,
            "velocity": 0.5039370078740157
          },
          {
            "duration": 0.125,
            "durationTicks": 24,
            "midi": 64,
            "name": "E4",
            "ticks": 4128,
            "time": 21.5,
            "velocity": 0.4015748031496063
          },
          {
            "duration": 0.125,
            "durationTicks": 24,
            "midi": 62,
            "name": "D4",
            "ticks": 4152,
            "time": 21.625,
            "velocity": 0.4015748031496063
          },
          {
            "duration": 1,
            "durationTicks": 192,
            "midi": 45,
            "name": "A2",
            "ticks": 4176,
            "time": 21.75,
            "velocity": 0.5039370078740157
          },
          {
            "duration": 1,
            "durationTicks": 192,
            "midi": 52,
            "name": "E3",
            "ticks": 4176,
            "time": 21.75,
            "velocity": 0.5039370078740157
          },
          {
            "duration": 1,
            "durationTicks": 192,
            "midi": 57,
            "name": "A3",
            "ticks": 4176,
            "time": 21.75,
            "velocity": 0.5039370078740157
          },
          {
            "duration": 0.5,
            "durationTicks": 96,
            "midi": 61,
            "name": "C#4",
            "ticks": 4176,
            "time": 21.75,
            "velocity": 0.4015748031496063
          },
          {
            "duration": 0.5,
            "durationTicks": 96,
            "midi": 64,
            "name": "E4",
            "ticks": 4176,
            "time": 21.75,
            "velocity": 0.4015748031496063
          },
          {
            "duration": 0.125,
            "durationTicks": 24,
            "midi": 69,
            "name": "A4",
            "ticks": 4272,
            "time": 22.25,
            "velocity": 0.4015748031496063
          },
          {
            "duration": 0.125,
            "durationTicks": 24,
            "midi": 74,
            "name": "D5",
            "ticks": 4296,
            "time": 22.375,
            "velocity": 0.4015748031496063
          },
          {
            "duration": 0.125,
            "durationTicks": 24,
            "midi": 76,
            "name": "E5",
            "ticks": 4320,
            "time": 22.5,
            "velocity": 0.4015748031496063
          },
          {
            "duration": 0.125,
            "durationTicks": 24,
            "midi": 81,
            "name": "A5",
            "ticks": 4344,
            "time": 22.625,
            "velocity": 0.4015748031496063
          },
          {
            "duration": 0.25,
            "durationTicks": 48,
            "midi": 45,
            "name": "A2",
            "ticks": 4368,
            "time": 22.75,
            "velocity": 0.5039370078740157
          },
          {
            "duration": 0.125,
            "durationTicks": 24,
            "midi": 86,
            "name": "D6",
            "ticks": 4368,
            "time": 22.75,
            "velocity": 0.4015748031496063
          },
          {
            "duration": 0.125,
            "durationTicks": 24,
            "midi": 88,
            "name": "E6",
            "ticks": 4392,
            "time": 22.875,
            "velocity": 0.4015748031496063
          },
          {
            "duration": 0.5,
            "durationTicks": 96,
            "midi": 33,
            "name": "A1",
            "ticks": 4416,
            "time": 23,
            "velocity": 0.5039370078740157
          },
          {
            "duration": 0.5,
            "durationTicks": 96,
            "midi": 81,
            "name": "A5",
            "ticks": 4416,
            "time": 23,
            "velocity": 0.4015748031496063
          },
          {
            "duration": 0.5,
            "durationTicks": 96,
            "midi": 93,
            "name": "A6",
            "ticks": 4416,
            "time": 23,
            "velocity": 0.4015748031496063
          },
          {
            "duration": 0.0625,
            "durationTicks": 12,
            "midi": 74,
            "name": "D5",
            "ticks": 4512,
            "time": 23.5,
            "velocity": 0.5039370078740157
          },
          {
            "duration": 0.0625,
            "durationTicks": 12,
            "midi": 74,
            "name": "D5",
            "ticks": 4524,
            "time": 23.5625,
            "velocity": 0.5039370078740157
          },
          {
            "duration": 0.25,
            "durationTicks": 48,
            "midi": 76,
            "name": "E5",
            "ticks": 4536,
            "time": 23.625,
            "velocity": 0.5039370078740157
          },
          {
            "duration": 0.125,
            "durationTicks": 24,
            "midi": 71,
            "name": "B4",
            "ticks": 4584,
            "time": 23.875,
            "velocity": 0.5039370078740157
          },
          {
            "duration": 0.25,
            "durationTicks": 48,
            "midi": 43,
            "name": "G2",
            "ticks": 4632,
            "time": 24.125,
            "velocity": 0.5039370078740157
          },
          {
            "duration": 0.25,
            "durationTicks": 48,
            "midi": 54,
            "name": "F#3",
            "ticks": 4632,
            "time": 24.125,
            "velocity": 0.5039370078740157
          },
          {
            "duration": 0.25,
            "durationTicks": 48,
            "midi": 59,
            "name": "B3",
            "ticks": 4632,
            "time": 24.125,
            "velocity": 0.5039370078740157
          },
          {
            "duration": 0.25,
            "durationTicks": 48,
            "midi": 67,
            "name": "G4",
            "ticks": 4632,
            "time": 24.125,
            "velocity": 0.5039370078740157
          },
          {
            "duration": 0.25,
            "durationTicks": 48,
            "midi": 71,
            "name": "B4",
            "ticks": 4632,
            "time": 24.125,
            "velocity": 0.5039370078740157
          },
          {
            "duration": 0.25,
            "durationTicks": 48,
            "midi": 74,
            "name": "D5",
            "ticks": 4632,
            "time": 24.125,
            "velocity": 0.5039370078740157
          },
          {
            "duration": 0.125,
            "durationTicks": 24,
            "midi": 71,
            "name": "B4",
            "ticks": 4704,
            "time": 24.5,
            "velocity": 0.5039370078740157
          },
          {
            "duration": 0.125,
            "durationTicks": 24,
            "midi": 74,
            "name": "D5",
            "ticks": 4728,
            "time": 24.625,
            "velocity": 0.5039370078740157
          },
          {
            "duration": 0.125,
            "durationTicks": 24,
            "midi": 71,
            "name": "B4",
            "ticks": 4752,
            "time": 24.75,
            "velocity": 0.5039370078740157
          },
          {
            "duration": 0.125,
            "durationTicks": 24,
            "midi": 74,
            "name": "D5",
            "ticks": 4776,
            "time": 24.875,
            "velocity": 0.5039370078740157
          },
          {
            "duration": 0.125,
            "durationTicks": 24,
            "midi": 71,
            "name": "B4",
            "ticks": 4800,
            "time": 25,
            "velocity": 0.5039370078740157
          },
          {
            "duration": 0.375,
            "durationTicks": 72,
            "midi": 43,
            "name": "G2",
            "ticks": 4824,
            "time": 25.125,
            "velocity": 0.5039370078740157
          },
          {
            "duration": 0.375,
            "durationTicks": 72,
            "midi": 54,
            "name": "F#3",
            "ticks": 4824,
            "time": 25.125,
            "velocity": 0.5039370078740157
          },
          {
            "duration": 0.1875,
            "durationTicks": 36,
            "midi": 59,
            "name": "B3",
            "ticks": 4824,
            "time": 25.125,
            "velocity": 0.5039370078740157
          },
          {
            "duration": 0.25,
            "durationTicks": 48,
            "midi": 67,
            "name": "G4",
            "ticks": 4824,
            "time": 25.125,
            "velocity": 0.5039370078740157
          },
          {
            "duration": 0.25,
            "durationTicks": 48,
            "midi": 71,
            "name": "B4",
            "ticks": 4824,
            "time": 25.125,
            "velocity": 0.5039370078740157
          },
          {
            "duration": 0.125,
            "durationTicks": 24,
            "midi": 74,
            "name": "D5",
            "ticks": 4824,
            "time": 25.125,
            "velocity": 0.5039370078740157
          },
          {
            "duration": 0.125,
            "durationTicks": 24,
            "midi": 71,
            "name": "B4",
            "ticks": 4872,
            "time": 25.375,
            "velocity": 0.5039370078740157
          },
          {
            "duration": 0.125,
            "durationTicks": 24,
            "midi": 74,
            "name": "D5",
            "ticks": 4872,
            "time": 25.375,
            "velocity": 0.5039370078740157
          },
          {
            "duration": 0.125,
            "durationTicks": 24,
            "midi": 47,
            "name": "B2",
            "ticks": 4896,
            "time": 25.5,
            "velocity": 0.5039370078740157
          },
          {
            "duration": 0.125,
            "durationTicks": 24,
            "midi": 57,
            "name": "A3",
            "ticks": 4896,
            "time": 25.5,
            "velocity": 0.5039370078740157
          },
          {
            "duration": 0.125,
            "durationTicks": 24,
            "midi": 62,
            "name": "D4",
            "ticks": 4896,
            "time": 25.5,
            "velocity": 0.5039370078740157
          },
          {
            "duration": 0.125,
            "durationTicks": 24,
            "midi": 71,
            "name": "B4",
            "ticks": 4896,
            "time": 25.5,
            "velocity": 0.5039370078740157
          },
          {
            "duration": 0.125,
            "durationTicks": 24,
            "midi": 74,
            "name": "D5",
            "ticks": 4896,
            "time": 25.5,
            "velocity": 0.5039370078740157
          },
          {
            "duration": 0.25,
            "durationTicks": 48,
            "midi": 71,
            "name": "B4",
            "ticks": 4920,
            "time": 25.625,
            "velocity": 0.5039370078740157
          },
          {
            "duration": 0.125,
            "durationTicks": 24,
            "midi": 74,
            "name": "D5",
            "ticks": 4920,
            "time": 25.625,
            "velocity": 0.5039370078740157
          },
          {
            "duration": 0.25,
            "durationTicks": 48,
            "midi": 45,
            "name": "A2",
            "ticks": 4968,
            "time": 25.875,
            "velocity": 0.5039370078740157
          },
          {
            "duration": 0.25,
            "durationTicks": 48,
            "midi": 52,
            "name": "E3",
            "ticks": 4968,
            "time": 25.875,
            "velocity": 0.5039370078740157
          },
          {
            "duration": 0.25,
            "durationTicks": 48,
            "midi": 61,
            "name": "C#4",
            "ticks": 4968,
            "time": 25.875,
            "velocity": 0.5039370078740157
          },
          {
            "duration": 0.25,
            "durationTicks": 48,
            "midi": 69,
            "name": "A4",
            "ticks": 4968,
            "time": 25.875,
            "velocity": 0.5039370078740157
          },
          {
            "duration": 0.25,
            "durationTicks": 48,
            "midi": 73,
            "name": "C#5",
            "ticks": 4968,
            "time": 25.875,
            "velocity": 0.5039370078740157
          },
          {
            "duration": 0.25,
            "durationTicks": 48,
            "midi": 76,
            "name": "E5",
            "ticks": 4968,
            "time": 25.875,
            "velocity": 0.5039370078740157
          },
          {
            "duration": 0.125,
            "durationTicks": 24,
            "midi": 69,
            "name": "A4",
            "ticks": 5040,
            "time": 26.25,
            "velocity": 0.5039370078740157
          },
          {
            "duration": 0.125,
            "durationTicks": 24,
            "midi": 73,
            "name": "C#5",
            "ticks": 5040,
            "time": 26.25,
            "velocity": 0.5039370078740157
          },
          {
            "duration": 0.125,
            "durationTicks": 24,
            "midi": 76,
            "name": "E5",
            "ticks": 5040,
            "time": 26.25,
            "velocity": 0.5039370078740157
          },
          {
            "duration": 0.125,
            "durationTicks": 24,
            "midi": 33,
            "name": "A1",
            "ticks": 5064,
            "time": 26.375,
            "velocity": 0.5039370078740157
          },
          {
            "duration": 0.25,
            "durationTicks": 48,
            "midi": 69,
            "name": "A4",
            "ticks": 5064,
            "time": 26.375,
            "velocity": 0.5039370078740157
          },
          {
            "duration": 0.25,
            "durationTicks": 48,
            "midi": 73,
            "name": "C#5",
            "ticks": 5064,
            "time": 26.375,
            "velocity": 0.5039370078740157
          },
          {
            "duration": 0.125,
            "durationTicks": 24,
            "midi": 76,
            "name": "E5",
            "ticks": 5064,
            "time": 26.375,
            "velocity": 0.5039370078740157
          },
          {
            "duration": 0.125,
            "durationTicks": 24,
            "midi": 33,
            "name": "A1",
            "ticks": 5088,
            "time": 26.5,
            "velocity": 0.5039370078740157
          },
          {
            "duration": 0.125,
            "durationTicks": 24,
            "midi": 73,
            "name": "C#5",
            "ticks": 5112,
            "time": 26.625,
            "velocity": 0.5039370078740157
          },
          {
            "duration": 0.125,
            "durationTicks": 24,
            "midi": 76,
            "name": "E5",
            "ticks": 5112,
            "time": 26.625,
            "velocity": 0.5039370078740157
          },
          {
            "duration": 0.1875,
            "durationTicks": 36,
            "midi": 33,
            "name": "A1",
            "ticks": 5136,
            "time": 26.75,
            "velocity": 0.5039370078740157
          },
          {
            "duration": 0.125,
            "durationTicks": 24,
            "midi": 73,
            "name": "C#5",
            "ticks": 5136,
            "time": 26.75,
            "velocity": 0.5039370078740157
          },
          {
            "duration": 0.125,
            "durationTicks": 24,
            "midi": 76,
            "name": "E5",
            "ticks": 5136,
            "time": 26.75,
            "velocity": 0.5039370078740157
          },
          {
            "duration": 0.125,
            "durationTicks": 24,
            "midi": 73,
            "name": "C#5",
            "ticks": 5160,
            "time": 26.875,
            "velocity": 0.5039370078740157
          },
          {
            "duration": 0.125,
            "durationTicks": 24,
            "midi": 76,
            "name": "E5",
            "ticks": 5160,
            "time": 26.875,
            "velocity": 0.5039370078740157
          },
          {
            "duration": 0.125,
            "durationTicks": 24,
            "midi": 73,
            "name": "C#5",
            "ticks": 5184,
            "time": 27,
            "velocity": 0.5039370078740157
          },
          {
            "duration": 0.125,
            "durationTicks": 24,
            "midi": 76,
            "name": "E5",
            "ticks": 5184,
            "time": 27,
            "velocity": 0.5039370078740157
          },
          {
            "duration": 0.375,
            "durationTicks": 72,
            "midi": 47,
            "name": "B2",
            "ticks": 5208,
            "time": 27.125,
            "velocity": 0.5039370078740157
          },
          {
            "duration": 0.375,
            "durationTicks": 72,
            "midi": 57,
            "name": "A3",
            "ticks": 5208,
            "time": 27.125,
            "velocity": 0.5039370078740157
          },
          {
            "duration": 0.375,
            "durationTicks": 72,
            "midi": 62,
            "name": "D4",
            "ticks": 5208,
            "time": 27.125,
            "velocity": 0.5039370078740157
          },
          {
            "duration": 0.25,
            "durationTicks": 48,
            "midi": 73,
            "name": "C#5",
            "ticks": 5208,
            "time": 27.125,
            "velocity": 0.5039370078740157
          },
          {
            "duration": 0.25,
            "durationTicks": 48,
            "midi": 76,
            "name": "E5",
            "ticks": 5208,
            "time": 27.125,
            "velocity": 0.5039370078740157
          },
          {
            "duration": 0.125,
            "durationTicks": 24,
            "midi": 78,
            "name": "F#5",
            "ticks": 5256,
            "time": 27.375,
            "velocity": 0.5039370078740157
          },
          {
            "duration": 0.375,
            "durationTicks": 72,
            "midi": 42,
            "name": "F#2",
            "ticks": 5280,
            "time": 27.5,
            "velocity": 0.5039370078740157
          },
          {
            "duration": 0.375,
            "durationTicks": 72,
            "midi": 50,
            "name": "D3",
            "ticks": 5280,
            "time": 27.5,
            "velocity": 0.5039370078740157
          },
          {
            "duration": 0.375,
            "durationTicks": 72,
            "midi": 57,
            "name": "A3",
            "ticks": 5280,
            "time": 27.5,
            "velocity": 0.5039370078740157
          },
          {
            "duration": 0.25,
            "durationTicks": 48,
            "midi": 71,
            "name": "B4",
            "ticks": 5280,
            "time": 27.5,
            "velocity": 0.5039370078740157
          },
          {
            "duration": 0.25,
            "durationTicks": 48,
            "midi": 74,
            "name": "D5",
            "ticks": 5280,
            "time": 27.5,
            "velocity": 0.5039370078740157
          },
          {
            "duration": 0.125,
            "durationTicks": 24,
            "midi": 73,
            "name": "C#5",
            "ticks": 5328,
            "time": 27.75,
            "velocity": 0.5039370078740157
          },
          {
            "duration": 0.25,
            "durationTicks": 48,
            "midi": 43,
            "name": "G2",
            "ticks": 5352,
            "time": 27.875,
            "velocity": 0.5039370078740157
          },
          {
            "duration": 0.25,
            "durationTicks": 48,
            "midi": 54,
            "name": "F#3",
            "ticks": 5352,
            "time": 27.875,
            "velocity": 0.5039370078740157
          },
          {
            "duration": 0.25,
            "durationTicks": 48,
            "midi": 59,
            "name": "B3",
            "ticks": 5352,
            "time": 27.875,
            "velocity": 0.5039370078740157
          },
          {
            "duration": 0.25,
            "durationTicks": 48,
            "midi": 67,
            "name": "G4",
            "ticks": 5352,
            "time": 27.875,
            "velocity": 0.5039370078740157
          },
          {
            "duration": 0.25,
            "durationTicks": 48,
            "midi": 71,
            "name": "B4",
            "ticks": 5352,
            "time": 27.875,
            "velocity": 0.5039370078740157
          },
          {
            "duration": 0.0625,
            "durationTicks": 12,
            "midi": 43,
            "name": "G2",
            "ticks": 5424,
            "time": 28.25,
            "velocity": 0.6299212598425197
          },
          {
            "duration": 0.125,
            "durationTicks": 24,
            "midi": 67,
            "name": "G4",
            "ticks": 5424,
            "time": 28.25,
            "velocity": 0.5039370078740157
          },
          {
            "duration": 0.125,
            "durationTicks": 24,
            "midi": 71,
            "name": "B4",
            "ticks": 5424,
            "time": 28.25,
            "velocity": 0.5039370078740157
          },
          {
            "duration": 0.1875,
            "durationTicks": 36,
            "midi": 45,
            "name": "A2",
            "ticks": 5436,
            "time": 28.3125,
            "velocity": 0.6299212598425197
          },
          {
            "duration": 0.125,
            "durationTicks": 24,
            "midi": 74,
            "name": "D5",
            "ticks": 5448,
            "time": 28.375,
            "velocity": 0.5039370078740157
          },
          {
            "duration": 0.125,
            "durationTicks": 24,
            "midi": 43,
            "name": "G2",
            "ticks": 5472,
            "time": 28.5,
            "velocity": 0.5039370078740157
          },
          {
            "duration": 0.125,
            "durationTicks": 24,
            "midi": 71,
            "name": "B4",
            "ticks": 5472,
            "time": 28.5,
            "velocity": 0.5039370078740157
          },
          {
            "duration": 0.125,
            "durationTicks": 24,
            "midi": 42,
            "name": "F#2",
            "ticks": 5496,
            "time": 28.625,
            "velocity": 0.5039370078740157
          },
          {
            "duration": 0.125,
            "durationTicks": 24,
            "midi": 67,
            "name": "G4",
            "ticks": 5496,
            "time": 28.625,
            "velocity": 0.5039370078740157
          },
          {
            "duration": 0.125,
            "durationTicks": 24,
            "midi": 74,
            "name": "D5",
            "ticks": 5496,
            "time": 28.625,
            "velocity": 0.5039370078740157
          },
          {
            "duration": 0.125,
            "durationTicks": 24,
            "midi": 43,
            "name": "G2",
            "ticks": 5520,
            "time": 28.75,
            "velocity": 0.6299212598425197
          },
          {
            "duration": 0.125,
            "durationTicks": 24,
            "midi": 74,
            "name": "D5",
            "ticks": 5520,
            "time": 28.75,
            "velocity": 0.5039370078740157
          },
          {
            "duration": 0.125,
            "durationTicks": 24,
            "midi": 42,
            "name": "F#2",
            "ticks": 5544,
            "time": 28.875,
            "velocity": 0.5039370078740157
          },
          {
            "duration": 0.125,
            "durationTicks": 24,
            "midi": 74,
            "name": "D5",
            "ticks": 5544,
            "time": 28.875,
            "velocity": 0.5039370078740157
          },
          {
            "duration": 0.125,
            "durationTicks": 24,
            "midi": 38,
            "name": "D2",
            "ticks": 5568,
            "time": 29,
            "velocity": 0.5039370078740157
          },
          {
            "duration": 0.125,
            "durationTicks": 24,
            "midi": 74,
            "name": "D5",
            "ticks": 5568,
            "time": 29,
            "velocity": 0.5039370078740157
          },
          {
            "duration": 0.1875,
            "durationTicks": 36,
            "midi": 31,
            "name": "G1",
            "ticks": 5592,
            "time": 29.125,
            "velocity": 0.5039370078740157
          },
          {
            "duration": 0.375,
            "durationTicks": 72,
            "midi": 47,
            "name": "B2",
            "ticks": 5592,
            "time": 29.125,
            "velocity": 0.5039370078740157
          },
          {
            "duration": 0.125,
            "durationTicks": 24,
            "midi": 67,
            "name": "G4",
            "ticks": 5592,
            "time": 29.125,
            "velocity": 0.5039370078740157
          },
          {
            "duration": 0.125,
            "durationTicks": 24,
            "midi": 71,
            "name": "B4",
            "ticks": 5592,
            "time": 29.125,
            "velocity": 0.5039370078740157
          },
          {
            "duration": 0.125,
            "durationTicks": 24,
            "midi": 74,
            "name": "D5",
            "ticks": 5592,
            "time": 29.125,
            "velocity": 0.5039370078740157
          },
          {
            "duration": 0.125,
            "durationTicks": 24,
            "midi": 67,
            "name": "G4",
            "ticks": 5616,
            "time": 29.25,
            "velocity": 0.5039370078740157
          },
          {
            "duration": 0.125,
            "durationTicks": 24,
            "midi": 71,
            "name": "B4",
            "ticks": 5616,
            "time": 29.25,
            "velocity": 0.5039370078740157
          },
          {
            "duration": 0.125,
            "durationTicks": 24,
            "midi": 74,
            "name": "D5",
            "ticks": 5616,
            "time": 29.25,
            "velocity": 0.5039370078740157
          },
          {
            "duration": 0.125,
            "durationTicks": 24,
            "midi": 47,
            "name": "B2",
            "ticks": 5664,
            "time": 29.5,
            "velocity": 0.5039370078740157
          },
          {
            "duration": 0.125,
            "durationTicks": 24,
            "midi": 57,
            "name": "A3",
            "ticks": 5664,
            "time": 29.5,
            "velocity": 0.5039370078740157
          },
          {
            "duration": 0.125,
            "durationTicks": 24,
            "midi": 62,
            "name": "D4",
            "ticks": 5664,
            "time": 29.5,
            "velocity": 0.5039370078740157
          },
          {
            "duration": 0.125,
            "durationTicks": 24,
            "midi": 66,
            "name": "F#4",
            "ticks": 5688,
            "time": 29.625,
            "velocity": 0.5039370078740157
          },
          {
            "duration": 0.125,
            "durationTicks": 24,
            "midi": 69,
            "name": "A4",
            "ticks": 5688,
            "time": 29.625,
            "velocity": 0.5039370078740157
          },
          {
            "duration": 0.125,
            "durationTicks": 24,
            "midi": 66,
            "name": "F#4",
            "ticks": 5712,
            "time": 29.75,
            "velocity": 0.5039370078740157
          },
          {
            "duration": 0.125,
            "durationTicks": 24,
            "midi": 69,
            "name": "A4",
            "ticks": 5712,
            "time": 29.75,
            "velocity": 0.5039370078740157
          },
          {
            "duration": 0.5,
            "durationTicks": 96,
            "midi": 45,
            "name": "A2",
            "ticks": 5736,
            "time": 29.875,
            "velocity": 0.5039370078740157
          },
          {
            "duration": 0.5,
            "durationTicks": 96,
            "midi": 52,
            "name": "E3",
            "ticks": 5736,
            "time": 29.875,
            "velocity": 0.5039370078740157
          },
          {
            "duration": 0.5,
            "durationTicks": 96,
            "midi": 61,
            "name": "C#4",
            "ticks": 5736,
            "time": 29.875,
            "velocity": 0.5039370078740157
          },
          {
            "duration": 0.125,
            "durationTicks": 24,
            "midi": 66,
            "name": "F#4",
            "ticks": 5736,
            "time": 29.875,
            "velocity": 0.5039370078740157
          },
          {
            "duration": 0.125,
            "durationTicks": 24,
            "midi": 69,
            "name": "A4",
            "ticks": 5736,
            "time": 29.875,
            "velocity": 0.5039370078740157
          },
          {
            "duration": 0.125,
            "durationTicks": 24,
            "midi": 66,
            "name": "F#4",
            "ticks": 5760,
            "time": 30,
            "velocity": 0.5039370078740157
          },
          {
            "duration": 0.125,
            "durationTicks": 24,
            "midi": 69,
            "name": "A4",
            "ticks": 5760,
            "time": 30,
            "velocity": 0.5039370078740157
          },
          {
            "duration": 0.25,
            "durationTicks": 48,
            "midi": 74,
            "name": "D5",
            "ticks": 5784,
            "time": 30.125,
            "velocity": 0.5039370078740157
          },
          {
            "duration": 0.25,
            "durationTicks": 48,
            "midi": 78,
            "name": "F#5",
            "ticks": 5784,
            "time": 30.125,
            "velocity": 0.5039370078740157
          },
          {
            "duration": 0.125,
            "durationTicks": 24,
            "midi": 52,
            "name": "E3",
            "ticks": 5832,
            "time": 30.375,
            "velocity": 0.5039370078740157
          },
          {
            "duration": 0.25,
            "durationTicks": 48,
            "midi": 76,
            "name": "E5",
            "ticks": 5832,
            "time": 30.375,
            "velocity": 0.5039370078740157
          },
          {
            "duration": 0.25,
            "durationTicks": 48,
            "midi": 79,
            "name": "G5",
            "ticks": 5832,
            "time": 30.375,
            "velocity": 0.5039370078740157
          },
          {
            "duration": 0.125,
            "durationTicks": 24,
            "midi": 57,
            "name": "A3",
            "ticks": 5856,
            "time": 30.5,
            "velocity": 0.5039370078740157
          },
          {
            "duration": 0.125,
            "durationTicks": 24,
            "midi": 64,
            "name": "E4",
            "ticks": 5880,
            "time": 30.625,
            "velocity": 0.5039370078740157
          },
          {
            "duration": 0.25,
            "durationTicks": 48,
            "midi": 74,
            "name": "D5",
            "ticks": 5880,
            "time": 30.625,
            "velocity": 0.5039370078740157
          },
          {
            "duration": 0.25,
            "durationTicks": 48,
            "midi": 78,
            "name": "F#5",
            "ticks": 5880,
            "time": 30.625,
            "velocity": 0.5039370078740157
          },
          {
            "duration": 0.125,
            "durationTicks": 24,
            "midi": 61,
            "name": "C#4",
            "ticks": 5904,
            "time": 30.75,
            "velocity": 0.5039370078740157
          },
          {
            "duration": 0.625,
            "durationTicks": 120,
            "midi": 42,
            "name": "F#2",
            "ticks": 5928,
            "time": 30.875,
            "velocity": 0.5039370078740157
          },
          {
            "duration": 0.625,
            "durationTicks": 120,
            "midi": 50,
            "name": "D3",
            "ticks": 5928,
            "time": 30.875,
            "velocity": 0.5039370078740157
          },
          {
            "duration": 0.625,
            "durationTicks": 120,
            "midi": 57,
            "name": "A3",
            "ticks": 5928,
            "time": 30.875,
            "velocity": 0.5039370078740157
          },
          {
            "duration": 0.25,
            "durationTicks": 48,
            "midi": 71,
            "name": "B4",
            "ticks": 5928,
            "time": 30.875,
            "velocity": 0.5039370078740157
          },
          {
            "duration": 0.25,
            "durationTicks": 48,
            "midi": 74,
            "name": "D5",
            "ticks": 5928,
            "time": 30.875,
            "velocity": 0.5039370078740157
          },
          {
            "duration": 0.25,
            "durationTicks": 48,
            "midi": 66,
            "name": "F#4",
            "ticks": 5976,
            "time": 31.125,
            "velocity": 0.5039370078740157
          },
          {
            "duration": 0.25,
            "durationTicks": 48,
            "midi": 69,
            "name": "A4",
            "ticks": 5976,
            "time": 31.125,
            "velocity": 0.5039370078740157
          },
          {
            "duration": 0.125,
            "durationTicks": 24,
            "midi": 69,
            "name": "A4",
            "ticks": 6024,
            "time": 31.375,
            "velocity": 0.5039370078740157
          },
          {
            "duration": 0.125,
            "durationTicks": 24,
            "midi": 54,
            "name": "F#3",
            "ticks": 6048,
            "time": 31.5,
            "velocity": 0.5039370078740157
          },
          {
            "duration": 0.125,
            "durationTicks": 24,
            "midi": 57,
            "name": "A3",
            "ticks": 6048,
            "time": 31.5,
            "velocity": 0.5039370078740157
          },
          {
            "duration": 0.375,
            "durationTicks": 72,
            "midi": 59,
            "name": "B3",
            "ticks": 6048,
            "time": 31.5,
            "velocity": 0.5039370078740157
          },
          {
            "duration": 0.375,
            "durationTicks": 72,
            "midi": 64,
            "name": "E4",
            "ticks": 6048,
            "time": 31.5,
            "velocity": 0.5039370078740157
          },
          {
            "duration": 0.375,
            "durationTicks": 72,
            "midi": 73,
            "name": "C#5",
            "ticks": 6048,
            "time": 31.5,
            "velocity": 0.5039370078740157
          },
          {
            "duration": 0.375,
            "durationTicks": 72,
            "midi": 76,
            "name": "E5",
            "ticks": 6048,
            "time": 31.5,
            "velocity": 0.5039370078740157
          },
          {
            "duration": 0.25,
            "durationTicks": 48,
            "midi": 54,
            "name": "F#3",
            "ticks": 6072,
            "time": 31.625,
            "velocity": 0.5039370078740157
          },
          {
            "duration": 0.25,
            "durationTicks": 48,
            "midi": 57,
            "name": "A3",
            "ticks": 6072,
            "time": 31.625,
            "velocity": 0.5039370078740157
          },
          {
            "duration": 0.25,
            "durationTicks": 48,
            "midi": 57,
            "name": "A3",
            "ticks": 6120,
            "time": 31.875,
            "velocity": 0.5039370078740157
          },
          {
            "duration": 0.25,
            "durationTicks": 48,
            "midi": 59,
            "name": "B3",
            "ticks": 6120,
            "time": 31.875,
            "velocity": 0.5039370078740157
          },
          {
            "duration": 0.25,
            "durationTicks": 48,
            "midi": 62,
            "name": "D4",
            "ticks": 6120,
            "time": 31.875,
            "velocity": 0.5039370078740157
          },
          {
            "duration": 0.25,
            "durationTicks": 48,
            "midi": 66,
            "name": "F#4",
            "ticks": 6120,
            "time": 31.875,
            "velocity": 0.5039370078740157
          },
          {
            "duration": 0.25,
            "durationTicks": 48,
            "midi": 69,
            "name": "A4",
            "ticks": 6120,
            "time": 31.875,
            "velocity": 0.5039370078740157
          },
          {
            "duration": 0.25,
            "durationTicks": 48,
            "midi": 74,
            "name": "D5",
            "ticks": 6120,
            "time": 31.875,
            "velocity": 0.5039370078740157
          },
          {
            "duration": 0.375,
            "durationTicks": 72,
            "midi": 43,
            "name": "G2",
            "ticks": 6169,
            "time": 32.130208333333336,
            "velocity": 0.5039370078740157
          },
          {
            "duration": 0.375,
            "durationTicks": 72,
            "midi": 54,
            "name": "F#3",
            "ticks": 6169,
            "time": 32.130208333333336,
            "velocity": 0.5039370078740157
          },
          {
            "duration": 0.375,
            "durationTicks": 72,
            "midi": 59,
            "name": "B3",
            "ticks": 6169,
            "time": 32.130208333333336,
            "velocity": 0.5039370078740157
          },
          {
            "duration": 0.125,
            "durationTicks": 24,
            "midi": 67,
            "name": "G4",
            "ticks": 6217,
            "time": 32.380208333333336,
            "velocity": 0.5039370078740157
          },
          {
            "duration": 0.125,
            "durationTicks": 24,
            "midi": 71,
            "name": "B4",
            "ticks": 6217,
            "time": 32.380208333333336,
            "velocity": 0.5039370078740157
          },
          {
            "duration": 0.125,
            "durationTicks": 24,
            "midi": 74,
            "name": "D5",
            "ticks": 6217,
            "time": 32.380208333333336,
            "velocity": 0.5039370078740157
          },
          {
            "duration": 0.125,
            "durationTicks": 24,
            "midi": 38,
            "name": "D2",
            "ticks": 6241,
            "time": 32.505208333333336,
            "velocity": 0.5039370078740157
          },
          {
            "duration": 0.125,
            "durationTicks": 24,
            "midi": 71,
            "name": "B4",
            "ticks": 6241,
            "time": 32.505208333333336,
            "velocity": 0.5039370078740157
          },
          {
            "duration": 0.125,
            "durationTicks": 24,
            "midi": 74,
            "name": "D5",
            "ticks": 6241,
            "time": 32.505208333333336,
            "velocity": 0.5039370078740157
          },
          {
            "duration": 0.125,
            "durationTicks": 24,
            "midi": 31,
            "name": "G1",
            "ticks": 6265,
            "time": 32.630208333333336,
            "velocity": 0.5039370078740157
          },
          {
            "duration": 0.125,
            "durationTicks": 24,
            "midi": 71,
            "name": "B4",
            "ticks": 6265,
            "time": 32.630208333333336,
            "velocity": 0.5039370078740157
          },
          {
            "duration": 0.125,
            "durationTicks": 24,
            "midi": 74,
            "name": "D5",
            "ticks": 6265,
            "time": 32.630208333333336,
            "velocity": 0.5039370078740157
          },
          {
            "duration": 0.125,
            "durationTicks": 24,
            "midi": 38,
            "name": "D2",
            "ticks": 6289,
            "time": 32.755208333333336,
            "velocity": 0.5039370078740157
          },
          {
            "duration": 0.125,
            "durationTicks": 24,
            "midi": 71,
            "name": "B4",
            "ticks": 6289,
            "time": 32.755208333333336,
            "velocity": 0.5039370078740157
          },
          {
            "duration": 0.125,
            "durationTicks": 24,
            "midi": 74,
            "name": "D5",
            "ticks": 6289,
            "time": 32.755208333333336,
            "velocity": 0.5039370078740157
          },
          {
            "duration": 0.25,
            "durationTicks": 48,
            "midi": 43,
            "name": "G2",
            "ticks": 6313,
            "time": 32.880208333333336,
            "velocity": 0.5039370078740157
          },
          {
            "duration": 0.125,
            "durationTicks": 24,
            "midi": 71,
            "name": "B4",
            "ticks": 6313,
            "time": 32.880208333333336,
            "velocity": 0.5039370078740157
          },
          {
            "duration": 0.125,
            "durationTicks": 24,
            "midi": 74,
            "name": "D5",
            "ticks": 6313,
            "time": 32.880208333333336,
            "velocity": 0.5039370078740157
          },
          {
            "duration": 0.125,
            "durationTicks": 24,
            "midi": 71,
            "name": "B4",
            "ticks": 6337,
            "time": 33.005208333333336,
            "velocity": 0.5039370078740157
          },
          {
            "duration": 0.125,
            "durationTicks": 24,
            "midi": 74,
            "name": "D5",
            "ticks": 6337,
            "time": 33.005208333333336,
            "velocity": 0.5039370078740157
          },
          {
            "duration": 0.375,
            "durationTicks": 72,
            "midi": 43,
            "name": "G2",
            "ticks": 6361,
            "time": 33.130208333333336,
            "velocity": 0.5039370078740157
          },
          {
            "duration": 0.375,
            "durationTicks": 72,
            "midi": 54,
            "name": "F#3",
            "ticks": 6361,
            "time": 33.130208333333336,
            "velocity": 0.5039370078740157
          },
          {
            "duration": 0.1875,
            "durationTicks": 36,
            "midi": 59,
            "name": "B3",
            "ticks": 6361,
            "time": 33.130208333333336,
            "velocity": 0.5039370078740157
          },
          {
            "duration": 0.125,
            "durationTicks": 24,
            "midi": 71,
            "name": "B4",
            "ticks": 6361,
            "time": 33.130208333333336,
            "velocity": 0.5039370078740157
          },
          {
            "duration": 0.125,
            "durationTicks": 24,
            "midi": 74,
            "name": "D5",
            "ticks": 6361,
            "time": 33.130208333333336,
            "velocity": 0.5039370078740157
          },
          {
            "duration": 0.125,
            "durationTicks": 24,
            "midi": 71,
            "name": "B4",
            "ticks": 6385,
            "time": 33.255208333333336,
            "velocity": 0.5039370078740157
          },
          {
            "duration": 0.125,
            "durationTicks": 24,
            "midi": 74,
            "name": "D5",
            "ticks": 6385,
            "time": 33.255208333333336,
            "velocity": 0.5039370078740157
          },
          {
            "duration": 0.25,
            "durationTicks": 48,
            "midi": 71,
            "name": "B4",
            "ticks": 6409,
            "time": 33.380208333333336,
            "velocity": 0.5039370078740157
          },
          {
            "duration": 0.125,
            "durationTicks": 24,
            "midi": 74,
            "name": "D5",
            "ticks": 6409,
            "time": 33.380208333333336,
            "velocity": 0.5039370078740157
          },
          {
            "duration": 0.125,
            "durationTicks": 24,
            "midi": 47,
            "name": "B2",
            "ticks": 6433,
            "time": 33.505208333333336,
            "velocity": 0.5039370078740157
          },
          {
            "duration": 0.125,
            "durationTicks": 24,
            "midi": 57,
            "name": "A3",
            "ticks": 6433,
            "time": 33.505208333333336,
            "velocity": 0.5039370078740157
          },
          {
            "duration": 0.125,
            "durationTicks": 24,
            "midi": 62,
            "name": "D4",
            "ticks": 6433,
            "time": 33.505208333333336,
            "velocity": 0.5039370078740157
          },
          {
            "duration": 0.25,
            "durationTicks": 48,
            "midi": 66,
            "name": "F#4",
            "ticks": 6457,
            "time": 33.630208333333336,
            "velocity": 0.5039370078740157
          },
          {
            "duration": 0.25,
            "durationTicks": 48,
            "midi": 71,
            "name": "B4",
            "ticks": 6457,
            "time": 33.630208333333336,
            "velocity": 0.5039370078740157
          },
          {
            "duration": 0.125,
            "durationTicks": 24,
            "midi": 74,
            "name": "D5",
            "ticks": 6457,
            "time": 33.630208333333336,
            "velocity": 0.5039370078740157
          },
          {
            "duration": 0.25,
            "durationTicks": 48,
            "midi": 45,
            "name": "A2",
            "ticks": 6505,
            "time": 33.880208333333336,
            "velocity": 0.5039370078740157
          },
          {
            "duration": 0.25,
            "durationTicks": 48,
            "midi": 52,
            "name": "E3",
            "ticks": 6505,
            "time": 33.880208333333336,
            "velocity": 0.5039370078740157
          },
          {
            "duration": 0.25,
            "durationTicks": 48,
            "midi": 61,
            "name": "C#4",
            "ticks": 6505,
            "time": 33.880208333333336,
            "velocity": 0.5039370078740157
          },
          {
            "duration": 0.25,
            "durationTicks": 48,
            "midi": 69,
            "name": "A4",
            "ticks": 6505,
            "time": 33.880208333333336,
            "velocity": 0.5039370078740157
          },
          {
            "duration": 0.25,
            "durationTicks": 48,
            "midi": 73,
            "name": "C#5",
            "ticks": 6505,
            "time": 33.880208333333336,
            "velocity": 0.5039370078740157
          },
          {
            "duration": 0.25,
            "durationTicks": 48,
            "midi": 76,
            "name": "E5",
            "ticks": 6505,
            "time": 33.880208333333336,
            "velocity": 0.5039370078740157
          },
          {
            "duration": 0.125,
            "durationTicks": 24,
            "midi": 62,
            "name": "D4",
            "ticks": 6577,
            "time": 34.255208333333336,
            "velocity": 0.6299212598425197
          },
          {
            "duration": 0.125,
            "durationTicks": 24,
            "midi": 69,
            "name": "A4",
            "ticks": 6577,
            "time": 34.255208333333336,
            "velocity": 0.5039370078740157
          },
          {
            "duration": 0.125,
            "durationTicks": 24,
            "midi": 74,
            "name": "D5",
            "ticks": 6577,
            "time": 34.255208333333336,
            "velocity": 0.5039370078740157
          },
          {
            "duration": 0.125,
            "durationTicks": 24,
            "midi": 61,
            "name": "C#4",
            "ticks": 6601,
            "time": 34.380208333333336,
            "velocity": 0.5039370078740157
          },
          {
            "duration": 0.125,
            "durationTicks": 24,
            "midi": 76,
            "name": "E5",
            "ticks": 6601,
            "time": 34.380208333333336,
            "velocity": 0.5039370078740157
          },
          {
            "duration": 0.125,
            "durationTicks": 24,
            "midi": 57,
            "name": "A3",
            "ticks": 6625,
            "time": 34.505208333333336,
            "velocity": 0.5039370078740157
          },
          {
            "duration": 0.125,
            "durationTicks": 24,
            "midi": 73,
            "name": "C#5",
            "ticks": 6625,
            "time": 34.505208333333336,
            "velocity": 0.5039370078740157
          },
          {
            "duration": 0.125,
            "durationTicks": 24,
            "midi": 76,
            "name": "E5",
            "ticks": 6625,
            "time": 34.505208333333336,
            "velocity": 0.5039370078740157
          },
          {
            "duration": 0.125,
            "durationTicks": 24,
            "midi": 52,
            "name": "E3",
            "ticks": 6649,
            "time": 34.630208333333336,
            "velocity": 0.5039370078740157
          },
          {
            "duration": 0.125,
            "durationTicks": 24,
            "midi": 73,
            "name": "C#5",
            "ticks": 6649,
            "time": 34.630208333333336,
            "velocity": 0.5039370078740157
          },
          {
            "duration": 0.125,
            "durationTicks": 24,
            "midi": 76,
            "name": "E5",
            "ticks": 6649,
            "time": 34.630208333333336,
            "velocity": 0.5039370078740157
          },
          {
            "duration": 0.125,
            "durationTicks": 24,
            "midi": 50,
            "name": "D3",
            "ticks": 6673,
            "time": 34.755208333333336,
            "velocity": 0.5039370078740157
          },
          {
            "duration": 0.125,
            "durationTicks": 24,
            "midi": 73,
            "name": "C#5",
            "ticks": 6673,
            "time": 34.755208333333336,
            "velocity": 0.5039370078740157
          },
          {
            "duration": 0.125,
            "durationTicks": 24,
            "midi": 76,
            "name": "E5",
            "ticks": 6673,
            "time": 34.755208333333336,
            "velocity": 0.5039370078740157
          },
          {
            "duration": 0.125,
            "durationTicks": 24,
            "midi": 49,
            "name": "C#3",
            "ticks": 6697,
            "time": 34.880208333333336,
            "velocity": 0.5039370078740157
          },
          {
            "duration": 0.125,
            "durationTicks": 24,
            "midi": 73,
            "name": "C#5",
            "ticks": 6697,
            "time": 34.880208333333336,
            "velocity": 0.5039370078740157
          },
          {
            "duration": 0.125,
            "durationTicks": 24,
            "midi": 76,
            "name": "E5",
            "ticks": 6697,
            "time": 34.880208333333336,
            "velocity": 0.5039370078740157
          },
          {
            "duration": 0.125,
            "durationTicks": 24,
            "midi": 45,
            "name": "A2",
            "ticks": 6721,
            "time": 35.005208333333336,
            "velocity": 0.5039370078740157
          },
          {
            "duration": 0.125,
            "durationTicks": 24,
            "midi": 73,
            "name": "C#5",
            "ticks": 6721,
            "time": 35.005208333333336,
            "velocity": 0.5039370078740157
          },
          {
            "duration": 0.125,
            "durationTicks": 24,
            "midi": 76,
            "name": "E5",
            "ticks": 6721,
            "time": 35.005208333333336,
            "velocity": 0.5039370078740157
          },
          {
            "duration": 0.375,
            "durationTicks": 72,
            "midi": 47,
            "name": "B2",
            "ticks": 6745,
            "time": 35.130208333333336,
            "velocity": 0.5039370078740157
          },
          {
            "duration": 0.375,
            "durationTicks": 72,
            "midi": 54,
            "name": "F#3",
            "ticks": 6745,
            "time": 35.130208333333336,
            "velocity": 0.5039370078740157
          },
          {
            "duration": 0.375,
            "durationTicks": 72,
            "midi": 59,
            "name": "B3",
            "ticks": 6745,
            "time": 35.130208333333336,
            "velocity": 0.5039370078740157
          },
          {
            "duration": 0.125,
            "durationTicks": 24,
            "midi": 73,
            "name": "C#5",
            "ticks": 6745,
            "time": 35.130208333333336,
            "velocity": 0.5039370078740157
          },
          {
            "duration": 0.125,
            "durationTicks": 24,
            "midi": 76,
            "name": "E5",
            "ticks": 6745,
            "time": 35.130208333333336,
            "velocity": 0.5039370078740157
          },
          {
            "duration": 0.125,
            "durationTicks": 24,
            "midi": 73,
            "name": "C#5",
            "ticks": 6769,
            "time": 35.255208333333336,
            "velocity": 0.5039370078740157
          },
          {
            "duration": 0.125,
            "durationTicks": 24,
            "midi": 76,
            "name": "E5",
            "ticks": 6769,
            "time": 35.255208333333336,
            "velocity": 0.5039370078740157
          },
          {
            "duration": 0.125,
            "durationTicks": 24,
            "midi": 78,
            "name": "F#5",
            "ticks": 6793,
            "time": 35.380208333333336,
            "velocity": 0.5039370078740157
          },
          {
            "duration": 0.375,
            "durationTicks": 72,
            "midi": 42,
            "name": "F#2",
            "ticks": 6817,
            "time": 35.505208333333336,
            "velocity": 0.5039370078740157
          },
          {
            "duration": 0.375,
            "durationTicks": 72,
            "midi": 50,
            "name": "D3",
            "ticks": 6817,
            "time": 35.505208333333336,
            "velocity": 0.5039370078740157
          },
          {
            "duration": 0.375,
            "durationTicks": 72,
            "midi": 57,
            "name": "A3",
            "ticks": 6817,
            "time": 35.505208333333336,
            "velocity": 0.5039370078740157
          },
          {
            "duration": 0.25,
            "durationTicks": 48,
            "midi": 69,
            "name": "A4",
            "ticks": 6817,
            "time": 35.505208333333336,
            "velocity": 0.5039370078740157
          },
          {
            "duration": 0.25,
            "durationTicks": 48,
            "midi": 74,
            "name": "D5",
            "ticks": 6817,
            "time": 35.505208333333336,
            "velocity": 0.5039370078740157
          },
          {
            "duration": 0.125,
            "durationTicks": 24,
            "midi": 73,
            "name": "C#5",
            "ticks": 6865,
            "time": 35.755208333333336,
            "velocity": 0.5039370078740157
          },
          {
            "duration": 0.25,
            "durationTicks": 48,
            "midi": 43,
            "name": "G2",
            "ticks": 6889,
            "time": 35.880208333333336,
            "velocity": 0.5039370078740157
          },
          {
            "duration": 0.25,
            "durationTicks": 48,
            "midi": 54,
            "name": "F#3",
            "ticks": 6889,
            "time": 35.880208333333336,
            "velocity": 0.5039370078740157
          },
          {
            "duration": 0.25,
            "durationTicks": 48,
            "midi": 59,
            "name": "B3",
            "ticks": 6889,
            "time": 35.880208333333336,
            "velocity": 0.5039370078740157
          },
          {
            "duration": 0.25,
            "durationTicks": 48,
            "midi": 71,
            "name": "B4",
            "ticks": 6889,
            "time": 35.880208333333336,
            "velocity": 0.5039370078740157
          },
          {
            "duration": 0.25,
            "durationTicks": 48,
            "midi": 31,
            "name": "G1",
            "ticks": 6937,
            "time": 36.130208333333336,
            "velocity": 0.5039370078740157
          },
          {
            "duration": 0.125,
            "durationTicks": 24,
            "midi": 67,
            "name": "G4",
            "ticks": 6961,
            "time": 36.255208333333336,
            "velocity": 0.5039370078740157
          },
          {
            "duration": 0.125,
            "durationTicks": 24,
            "midi": 71,
            "name": "B4",
            "ticks": 6961,
            "time": 36.255208333333336,
            "velocity": 0.5039370078740157
          },
          {
            "duration": 0.125,
            "durationTicks": 24,
            "midi": 31,
            "name": "G1",
            "ticks": 6985,
            "time": 36.380208333333336,
            "velocity": 0.5039370078740157
          },
          {
            "duration": 0.125,
            "durationTicks": 24,
            "midi": 74,
            "name": "D5",
            "ticks": 6985,
            "time": 36.380208333333336,
            "velocity": 0.5039370078740157
          },
          {
            "duration": 0.125,
            "durationTicks": 24,
            "midi": 45,
            "name": "A2",
            "ticks": 7009,
            "time": 36.505208333333336,
            "velocity": 0.5039370078740157
          },
          {
            "duration": 0.125,
            "durationTicks": 24,
            "midi": 74,
            "name": "D5",
            "ticks": 7009,
            "time": 36.505208333333336,
            "velocity": 0.5039370078740157
          },
          {
            "duration": 0.125,
            "durationTicks": 24,
            "midi": 43,
            "name": "G2",
            "ticks": 7033,
            "time": 36.630208333333336,
            "velocity": 0.5039370078740157
          },
          {
            "duration": 0.125,
            "durationTicks": 24,
            "midi": 71,
            "name": "B4",
            "ticks": 7033,
            "time": 36.630208333333336,
            "velocity": 0.5039370078740157
          },
          {
            "duration": 0.125,
            "durationTicks": 24,
            "midi": 74,
            "name": "D5",
            "ticks": 7033,
            "time": 36.630208333333336,
            "velocity": 0.5039370078740157
          },
          {
            "duration": 0.125,
            "durationTicks": 24,
            "midi": 50,
            "name": "D3",
            "ticks": 7057,
            "time": 36.755208333333336,
            "velocity": 0.5039370078740157
          },
          {
            "duration": 0.125,
            "durationTicks": 24,
            "midi": 71,
            "name": "B4",
            "ticks": 7057,
            "time": 36.755208333333336,
            "velocity": 0.5039370078740157
          },
          {
            "duration": 0.125,
            "durationTicks": 24,
            "midi": 74,
            "name": "D5",
            "ticks": 7057,
            "time": 36.755208333333336,
            "velocity": 0.5039370078740157
          },
          {
            "duration": 0.25,
            "durationTicks": 48,
            "midi": 43,
            "name": "G2",
            "ticks": 7081,
            "time": 36.880208333333336,
            "velocity": 0.5039370078740157
          },
          {
            "duration": 0.125,
            "durationTicks": 24,
            "midi": 71,
            "name": "B4",
            "ticks": 7081,
            "time": 36.880208333333336,
            "velocity": 0.5039370078740157
          },
          {
            "duration": 0.125,
            "durationTicks": 24,
            "midi": 74,
            "name": "D5",
            "ticks": 7081,
            "time": 36.880208333333336,
            "velocity": 0.5039370078740157
          },
          {
            "duration": 0.125,
            "durationTicks": 24,
            "midi": 71,
            "name": "B4",
            "ticks": 7105,
            "time": 37.005208333333336,
            "velocity": 0.5039370078740157
          },
          {
            "duration": 0.125,
            "durationTicks": 24,
            "midi": 74,
            "name": "D5",
            "ticks": 7105,
            "time": 37.005208333333336,
            "velocity": 0.5039370078740157
          },
          {
            "duration": 0.375,
            "durationTicks": 72,
            "midi": 43,
            "name": "G2",
            "ticks": 7129,
            "time": 37.130208333333336,
            "velocity": 0.5039370078740157
          },
          {
            "duration": 0.375,
            "durationTicks": 72,
            "midi": 54,
            "name": "F#3",
            "ticks": 7129,
            "time": 37.130208333333336,
            "velocity": 0.5039370078740157
          },
          {
            "duration": 0.1875,
            "durationTicks": 36,
            "midi": 59,
            "name": "B3",
            "ticks": 7129,
            "time": 37.130208333333336,
            "velocity": 0.5039370078740157
          },
          {
            "duration": 0.25,
            "durationTicks": 48,
            "midi": 71,
            "name": "B4",
            "ticks": 7129,
            "time": 37.130208333333336,
            "velocity": 0.5039370078740157
          },
          {
            "duration": 0.125,
            "durationTicks": 24,
            "midi": 74,
            "name": "D5",
            "ticks": 7129,
            "time": 37.130208333333336,
            "velocity": 0.5039370078740157
          },
          {
            "duration": 0.125,
            "durationTicks": 24,
            "midi": 47,
            "name": "B2",
            "ticks": 7201,
            "time": 37.505208333333336,
            "velocity": 0.5039370078740157
          },
          {
            "duration": 0.125,
            "durationTicks": 24,
            "midi": 57,
            "name": "A3",
            "ticks": 7201,
            "time": 37.505208333333336,
            "velocity": 0.5039370078740157
          },
          {
            "duration": 0.125,
            "durationTicks": 24,
            "midi": 62,
            "name": "D4",
            "ticks": 7201,
            "time": 37.505208333333336,
            "velocity": 0.5039370078740157
          },
          {
            "duration": 0.25,
            "durationTicks": 48,
            "midi": 69,
            "name": "A4",
            "ticks": 7201,
            "time": 37.505208333333336,
            "velocity": 0.5039370078740157
          },
          {
            "duration": 0.25,
            "durationTicks": 48,
            "midi": 71,
            "name": "B4",
            "ticks": 7201,
            "time": 37.505208333333336,
            "velocity": 0.5039370078740157
          },
          {
            "duration": 0.125,
            "durationTicks": 24,
            "midi": 74,
            "name": "D5",
            "ticks": 7225,
            "time": 37.630208333333336,
            "velocity": 0.5039370078740157
          },
          {
            "duration": 0.125,
            "durationTicks": 24,
            "midi": 69,
            "name": "A4",
            "ticks": 7249,
            "time": 37.755208333333336,
            "velocity": 0.5039370078740157
          },
          {
            "duration": 0.125,
            "durationTicks": 24,
            "midi": 74,
            "name": "D5",
            "ticks": 7249,
            "time": 37.755208333333336,
            "velocity": 0.5039370078740157
          },
          {
            "duration": 0.25,
            "durationTicks": 48,
            "midi": 45,
            "name": "A2",
            "ticks": 7273,
            "time": 37.880208333333336,
            "velocity": 0.5039370078740157
          },
          {
            "duration": 0.25,
            "durationTicks": 48,
            "midi": 52,
            "name": "E3",
            "ticks": 7273,
            "time": 37.880208333333336,
            "velocity": 0.5039370078740157
          },
          {
            "duration": 0.25,
            "durationTicks": 48,
            "midi": 61,
            "name": "C#4",
            "ticks": 7273,
            "time": 37.880208333333336,
            "velocity": 0.5039370078740157
          },
          {
            "duration": 0.125,
            "durationTicks": 24,
            "midi": 69,
            "name": "A4",
            "ticks": 7273,
            "time": 37.880208333333336,
            "velocity": 0.5039370078740157
          },
          {
            "duration": 0.125,
            "durationTicks": 24,
            "midi": 74,
            "name": "D5",
            "ticks": 7273,
            "time": 37.880208333333336,
            "velocity": 0.5039370078740157
          },
          {
            "duration": 0.125,
            "durationTicks": 24,
            "midi": 69,
            "name": "A4",
            "ticks": 7297,
            "time": 38.005208333333336,
            "velocity": 0.5039370078740157
          },
          {
            "duration": 0.125,
            "durationTicks": 24,
            "midi": 74,
            "name": "D5",
            "ticks": 7297,
            "time": 38.005208333333336,
            "velocity": 0.5039370078740157
          },
          {
            "duration": 0.125,
            "durationTicks": 24,
            "midi": 33,
            "name": "A1",
            "ticks": 7321,
            "time": 38.130208333333336,
            "velocity": 0.25196850393700787
          },
          {
            "duration": 0.25,
            "durationTicks": 48,
            "midi": 69,
            "name": "A4",
            "ticks": 7321,
            "time": 38.130208333333336,
            "velocity": 0.25196850393700787
          },
          {
            "duration": 0.25,
            "durationTicks": 48,
            "midi": 74,
            "name": "D5",
            "ticks": 7321,
            "time": 38.130208333333336,
            "velocity": 0.25196850393700787
          },
          {
            "duration": 0.026041666666664298,
            "durationTicks": 5,
            "midi": 76,
            "name": "E5",
            "ticks": 7321,
            "time": 38.130208333333336,
            "velocity": 0.25196850393700787
          },
          {
            "duration": 0.125,
            "durationTicks": 24,
            "midi": 40,
            "name": "E2",
            "ticks": 7345,
            "time": 38.255208333333336,
            "velocity": 0.2677165354330709
          },
          {
            "duration": 0.125,
            "durationTicks": 24,
            "midi": 45,
            "name": "A2",
            "ticks": 7369,
            "time": 38.380208333333336,
            "velocity": 0.28346456692913385
          },
          {
            "duration": 0.25,
            "durationTicks": 48,
            "midi": 69,
            "name": "A4",
            "ticks": 7369,
            "time": 38.380208333333336,
            "velocity": 0.28346456692913385
          },
          {
            "duration": 0.25,
            "durationTicks": 48,
            "midi": 74,
            "name": "D5",
            "ticks": 7369,
            "time": 38.380208333333336,
            "velocity": 0.28346456692913385
          },
          {
            "duration": 0.026041666666664298,
            "durationTicks": 5,
            "midi": 76,
            "name": "E5",
            "ticks": 7369,
            "time": 38.380208333333336,
            "velocity": 0.28346456692913385
          },
          {
            "duration": 0.125,
            "durationTicks": 24,
            "midi": 52,
            "name": "E3",
            "ticks": 7393,
            "time": 38.505208333333336,
            "velocity": 0.30708661417322836
          },
          {
            "duration": 0.125,
            "durationTicks": 24,
            "midi": 57,
            "name": "A3",
            "ticks": 7417,
            "time": 38.630208333333336,
            "velocity": 0.3228346456692913
          },
          {
            "duration": 0.25,
            "durationTicks": 48,
            "midi": 69,
            "name": "A4",
            "ticks": 7417,
            "time": 38.630208333333336,
            "velocity": 0.3228346456692913
          },
          {
            "duration": 0.25,
            "durationTicks": 48,
            "midi": 74,
            "name": "D5",
            "ticks": 7417,
            "time": 38.630208333333336,
            "velocity": 0.3228346456692913
          },
          {
            "duration": 0.25,
            "durationTicks": 48,
            "midi": 76,
            "name": "E5",
            "ticks": 7417,
            "time": 38.630208333333336,
            "velocity": 0.3228346456692913
          },
          {
            "duration": 0.125,
            "durationTicks": 24,
            "midi": 62,
            "name": "D4",
            "ticks": 7441,
            "time": 38.755208333333336,
            "velocity": 0.33858267716535434
          },
          {
            "duration": 0.125,
            "durationTicks": 24,
            "midi": 64,
            "name": "E4",
            "ticks": 7465,
            "time": 38.880208333333336,
            "velocity": 0.36220472440944884
          },
          {
            "duration": 0.25,
            "durationTicks": 48,
            "midi": 69,
            "name": "A4",
            "ticks": 7465,
            "time": 38.880208333333336,
            "velocity": 0.36220472440944884
          },
          {
            "duration": 0.25,
            "durationTicks": 48,
            "midi": 74,
            "name": "D5",
            "ticks": 7465,
            "time": 38.880208333333336,
            "velocity": 0.36220472440944884
          },
          {
            "duration": 0.25,
            "durationTicks": 48,
            "midi": 76,
            "name": "E5",
            "ticks": 7465,
            "time": 38.880208333333336,
            "velocity": 0.36220472440944884
          },
          {
            "duration": 0.125,
            "durationTicks": 24,
            "midi": 62,
            "name": "D4",
            "ticks": 7489,
            "time": 39.005208333333336,
            "velocity": 0.3779527559055118
          },
          {
            "duration": 0.125,
            "durationTicks": 24,
            "midi": 61,
            "name": "C#4",
            "ticks": 7513,
            "time": 39.130208333333336,
            "velocity": 0.3937007874015748
          },
          {
            "duration": 0.375,
            "durationTicks": 72,
            "midi": 69,
            "name": "A4",
            "ticks": 7513,
            "time": 39.130208333333336,
            "velocity": 0.3937007874015748
          },
          {
            "duration": 0.375,
            "durationTicks": 72,
            "midi": 73,
            "name": "C#5",
            "ticks": 7513,
            "time": 39.130208333333336,
            "velocity": 0.3937007874015748
          },
          {
            "duration": 0.375,
            "durationTicks": 72,
            "midi": 78,
            "name": "F#5",
            "ticks": 7513,
            "time": 39.130208333333336,
            "velocity": 0.3937007874015748
          },
          {
            "duration": 0.125,
            "durationTicks": 24,
            "midi": 57,
            "name": "A3",
            "ticks": 7537,
            "time": 39.255208333333336,
            "velocity": 0.41732283464566927
          },
          {
            "duration": 0.125,
            "durationTicks": 24,
            "midi": 52,
            "name": "E3",
            "ticks": 7561,
            "time": 39.380208333333336,
            "velocity": 0.4330708661417323
          },
          {
            "duration": 0.125,
            "durationTicks": 24,
            "midi": 49,
            "name": "C#3",
            "ticks": 7585,
            "time": 39.505208333333336,
            "velocity": 0.4566929133858268
          },
          {
            "duration": 0.375,
            "durationTicks": 72,
            "midi": 66,
            "name": "F#4",
            "ticks": 7585,
            "time": 39.505208333333336,
            "velocity": 0.4566929133858268
          },
          {
            "duration": 0.375,
            "durationTicks": 72,
            "midi": 69,
            "name": "A4",
            "ticks": 7585,
            "time": 39.505208333333336,
            "velocity": 0.4566929133858268
          },
          {
            "duration": 0.375,
            "durationTicks": 72,
            "midi": 73,
            "name": "C#5",
            "ticks": 7585,
            "time": 39.505208333333336,
            "velocity": 0.4566929133858268
          },
          {
            "duration": 0.125,
            "durationTicks": 24,
            "midi": 45,
            "name": "A2",
            "ticks": 7609,
            "time": 39.630208333333336,
            "velocity": 0.47244094488188976
          },
          {
            "duration": 0.125,
            "durationTicks": 24,
            "midi": 40,
            "name": "E2",
            "ticks": 7633,
            "time": 39.755208333333336,
            "velocity": 0.4881889763779528
          },
          {
            "duration": 0.25,
            "durationTicks": 48,
            "midi": 33,
            "name": "A1",
            "ticks": 7657,
            "time": 39.880208333333336,
            "velocity": 0.5039370078740157
          },
          {
            "duration": 0.25,
            "durationTicks": 48,
            "midi": 45,
            "name": "A2",
            "ticks": 7657,
            "time": 39.880208333333336,
            "velocity": 0.5039370078740157
          },
          {
            "duration": 0.25,
            "durationTicks": 48,
            "midi": 66,
            "name": "F#4",
            "ticks": 7657,
            "time": 39.880208333333336,
            "velocity": 0.5984251968503937
          },
          {
            "duration": 0.25,
            "durationTicks": 48,
            "midi": 69,
            "name": "A4",
            "ticks": 7657,
            "time": 39.880208333333336,
            "velocity": 0.5984251968503937
          },
          {
            "duration": 0.25,
            "durationTicks": 48,
            "midi": 74,
            "name": "D5",
            "ticks": 7657,
            "time": 39.880208333333336,
            "velocity": 0.5984251968503937
          },
          {
            "duration": 0.5,
            "durationTicks": 96,
            "midi": 43,
            "name": "G2",
            "ticks": 7705,
            "time": 40.130208333333336,
            "velocity": 0.4015748031496063
          },
          {
            "duration": 0.5,
            "durationTicks": 96,
            "midi": 54,
            "name": "F#3",
            "ticks": 7705,
            "time": 40.130208333333336,
            "velocity": 0.4015748031496063
          },
          {
            "duration": 0.25,
            "durationTicks": 48,
            "midi": 59,
            "name": "B3",
            "ticks": 7705,
            "time": 40.130208333333336,
            "velocity": 0.4015748031496063
          },
          {
            "duration": 0.5,
            "durationTicks": 96,
            "midi": 43,
            "name": "G2",
            "ticks": 7801,
            "time": 40.630208333333336,
            "velocity": 0.4015748031496063
          },
          {
            "duration": 0.5,
            "durationTicks": 96,
            "midi": 54,
            "name": "F#3",
            "ticks": 7801,
            "time": 40.630208333333336,
            "velocity": 0.4015748031496063
          },
          {
            "duration": 0.25,
            "durationTicks": 48,
            "midi": 59,
            "name": "B3",
            "ticks": 7801,
            "time": 40.630208333333336,
            "velocity": 0.4015748031496063
          },
          {
            "duration": 0.5,
            "durationTicks": 96,
            "midi": 43,
            "name": "G2",
            "ticks": 7897,
            "time": 41.130208333333336,
            "velocity": 0.4015748031496063
          },
          {
            "duration": 0.5,
            "durationTicks": 96,
            "midi": 54,
            "name": "F#3",
            "ticks": 7897,
            "time": 41.130208333333336,
            "velocity": 0.4015748031496063
          },
          {
            "duration": 0.25,
            "durationTicks": 48,
            "midi": 59,
            "name": "B3",
            "ticks": 7897,
            "time": 41.130208333333336,
            "velocity": 0.4015748031496063
          },
          {
            "duration": 0.1875,
            "durationTicks": 36,
            "midi": 62,
            "name": "D4",
            "ticks": 7897,
            "time": 41.130208333333336,
            "velocity": 0.6456692913385826
          },
          {
            "duration": 0.375,
            "durationTicks": 72,
            "midi": 66,
            "name": "F#4",
            "ticks": 7897,
            "time": 41.130208333333336,
            "velocity": 0.6456692913385826
          },
          {
            "duration": 0.375,
            "durationTicks": 72,
            "midi": 71,
            "name": "B4",
            "ticks": 7897,
            "time": 41.130208333333336,
            "velocity": 0.6456692913385826
          },
          {
            "duration": 0.125,
            "durationTicks": 24,
            "midi": 62,
            "name": "D4",
            "ticks": 7969,
            "time": 41.505208333333336,
            "velocity": 0.6692913385826772
          },
          {
            "duration": 0.125,
            "durationTicks": 24,
            "midi": 66,
            "name": "F#4",
            "ticks": 7969,
            "time": 41.505208333333336,
            "velocity": 0.6692913385826772
          },
          {
            "duration": 0.125,
            "durationTicks": 24,
            "midi": 71,
            "name": "B4",
            "ticks": 7969,
            "time": 41.505208333333336,
            "velocity": 0.6692913385826772
          },
          {
            "duration": 0.5,
            "durationTicks": 96,
            "midi": 43,
            "name": "G2",
            "ticks": 7993,
            "time": 41.630208333333336,
            "velocity": 0.4015748031496063
          },
          {
            "duration": 0.5,
            "durationTicks": 96,
            "midi": 54,
            "name": "F#3",
            "ticks": 7993,
            "time": 41.630208333333336,
            "velocity": 0.4015748031496063
          },
          {
            "duration": 0.25,
            "durationTicks": 48,
            "midi": 59,
            "name": "B3",
            "ticks": 7993,
            "time": 41.630208333333336,
            "velocity": 0.4015748031496063
          },
          {
            "duration": 0.25,
            "durationTicks": 48,
            "midi": 62,
            "name": "D4",
            "ticks": 8041,
            "time": 41.880208333333336,
            "velocity": 0.6850393700787402
          },
          {
            "duration": 0.25,
            "durationTicks": 48,
            "midi": 66,
            "name": "F#4",
            "ticks": 8041,
            "time": 41.880208333333336,
            "velocity": 0.6850393700787402
          },
          {
            "duration": 0.25,
            "durationTicks": 48,
            "midi": 71,
            "name": "B4",
            "ticks": 8041,
            "time": 41.880208333333336,
            "velocity": 0.6850393700787402
          },
          {
            "duration": 0.25,
            "durationTicks": 48,
            "midi": 43,
            "name": "G2",
            "ticks": 8089,
            "time": 42.130208333333336,
            "velocity": 0.4015748031496063
          },
          {
            "duration": 0.25,
            "durationTicks": 48,
            "midi": 54,
            "name": "F#3",
            "ticks": 8089,
            "time": 42.130208333333336,
            "velocity": 0.4015748031496063
          },
          {
            "duration": 0.25,
            "durationTicks": 48,
            "midi": 59,
            "name": "B3",
            "ticks": 8089,
            "time": 42.130208333333336,
            "velocity": 0.4015748031496063
          },
          {
            "duration": 0.0833333333333286,
            "durationTicks": 16,
            "midi": 86,
            "name": "D6",
            "ticks": 8089,
            "time": 42.130208333333336,
            "velocity": 0.7007874015748031
          },
          {
            "duration": 0.0833333333333286,
            "durationTicks": 16,
            "midi": 91,
            "name": "G6",
            "ticks": 8089,
            "time": 42.130208333333336,
            "velocity": 0.7007874015748031
          },
          {
            "duration": 0.0833333333333357,
            "durationTicks": 16,
            "midi": 93,
            "name": "A6",
            "ticks": 8105,
            "time": 42.213541666666664,
            "velocity": 0.7086614173228346
          },
          {
            "duration": 0.0833333333333357,
            "durationTicks": 16,
            "midi": 91,
            "name": "G6",
            "ticks": 8121,
            "time": 42.296875,
            "velocity": 0.7086614173228346
          },
          {
            "duration": 0.25,
            "durationTicks": 48,
            "midi": 43,
            "name": "G2",
            "ticks": 8137,
            "time": 42.380208333333336,
            "velocity": 0.4015748031496063
          },
          {
            "duration": 0.25,
            "durationTicks": 48,
            "midi": 54,
            "name": "F#3",
            "ticks": 8137,
            "time": 42.380208333333336,
            "velocity": 0.4015748031496063
          },
          {
            "duration": 0.25,
            "durationTicks": 48,
            "midi": 59,
            "name": "B3",
            "ticks": 8137,
            "time": 42.380208333333336,
            "velocity": 0.4015748031496063
          },
          {
            "duration": 0.125,
            "durationTicks": 24,
            "midi": 90,
            "name": "F#6",
            "ticks": 8137,
            "time": 42.380208333333336,
            "velocity": 0.7165354330708661
          },
          {
            "duration": 0.125,
            "durationTicks": 24,
            "midi": 86,
            "name": "D6",
            "ticks": 8161,
            "time": 42.505208333333336,
            "velocity": 0.7244094488188977
          },
          {
            "duration": 0.25,
            "durationTicks": 48,
            "midi": 43,
            "name": "G2",
            "ticks": 8185,
            "time": 42.630208333333336,
            "velocity": 0.4015748031496063
          },
          {
            "duration": 0.25,
            "durationTicks": 48,
            "midi": 54,
            "name": "F#3",
            "ticks": 8185,
            "time": 42.630208333333336,
            "velocity": 0.4015748031496063
          },
          {
            "duration": 0.25,
            "durationTicks": 48,
            "midi": 59,
            "name": "B3",
            "ticks": 8185,
            "time": 42.630208333333336,
            "velocity": 0.4015748031496063
          },
          {
            "duration": 0.125,
            "durationTicks": 24,
            "midi": 81,
            "name": "A5",
            "ticks": 8185,
            "time": 42.630208333333336,
            "velocity": 0.7244094488188977
          },
          {
            "duration": 0.125,
            "durationTicks": 24,
            "midi": 78,
            "name": "F#5",
            "ticks": 8209,
            "time": 42.755208333333336,
            "velocity": 0.7322834645669292
          },
          {
            "duration": 0.25,
            "durationTicks": 48,
            "midi": 43,
            "name": "G2",
            "ticks": 8233,
            "time": 42.880208333333336,
            "velocity": 0.4015748031496063
          },
          {
            "duration": 0.25,
            "durationTicks": 48,
            "midi": 54,
            "name": "F#3",
            "ticks": 8233,
            "time": 42.880208333333336,
            "velocity": 0.4015748031496063
          },
          {
            "duration": 0.25,
            "durationTicks": 48,
            "midi": 59,
            "name": "B3",
            "ticks": 8233,
            "time": 42.880208333333336,
            "velocity": 0.4015748031496063
          },
          {
            "duration": 0.125,
            "durationTicks": 24,
            "midi": 69,
            "name": "A4",
            "ticks": 8233,
            "time": 42.880208333333336,
            "velocity": 0.7401574803149606
          },
          {
            "duration": 0.125,
            "durationTicks": 24,
            "midi": 73,
            "name": "C#5",
            "ticks": 8233,
            "time": 42.880208333333336,
            "velocity": 0.7401574803149606
          },
          {
            "duration": 0.125,
            "durationTicks": 24,
            "midi": 76,
            "name": "E5",
            "ticks": 8257,
            "time": 43.005208333333336,
            "velocity": 0.7480314960629921
          },
          {
            "duration": 0.375,
            "durationTicks": 72,
            "midi": 47,
            "name": "B2",
            "ticks": 8281,
            "time": 43.130208333333336,
            "velocity": 0.5039370078740157
          },
          {
            "duration": 0.375,
            "durationTicks": 72,
            "midi": 52,
            "name": "E3",
            "ticks": 8281,
            "time": 43.130208333333336,
            "velocity": 0.5039370078740157
          },
          {
            "duration": 0.375,
            "durationTicks": 72,
            "midi": 57,
            "name": "A3",
            "ticks": 8281,
            "time": 43.130208333333336,
            "velocity": 0.5039370078740157
          },
          {
            "duration": 0.1875,
            "durationTicks": 36,
            "midi": 61,
            "name": "C#4",
            "ticks": 8281,
            "time": 43.130208333333336,
            "velocity": 0.5039370078740157
          },
          {
            "duration": 0.125,
            "durationTicks": 24,
            "midi": 74,
            "name": "D5",
            "ticks": 8281,
            "time": 43.130208333333336,
            "velocity": 0.5039370078740157
          },
          {
            "duration": 0.125,
            "durationTicks": 24,
            "midi": 78,
            "name": "F#5",
            "ticks": 8281,
            "time": 43.130208333333336,
            "velocity": 0.6299212598425197
          },
          {
            "duration": 0.125,
            "durationTicks": 24,
            "midi": 81,
            "name": "A5",
            "ticks": 8305,
            "time": 43.255208333333336,
            "velocity": 0.5039370078740157
          },
          {
            "duration": 0.125,
            "durationTicks": 24,
            "midi": 83,
            "name": "B5",
            "ticks": 8329,
            "time": 43.380208333333336,
            "velocity": 0.5039370078740157
          },
          {
            "duration": 0.125,
            "durationTicks": 24,
            "midi": 86,
            "name": "D6",
            "ticks": 8329,
            "time": 43.380208333333336,
            "velocity": 0.5039370078740157
          },
          {
            "duration": 0.375,
            "durationTicks": 72,
            "midi": 47,
            "name": "B2",
            "ticks": 8353,
            "time": 43.505208333333336,
            "velocity": 0.5039370078740157
          },
          {
            "duration": 0.375,
            "durationTicks": 72,
            "midi": 52,
            "name": "E3",
            "ticks": 8353,
            "time": 43.505208333333336,
            "velocity": 0.5039370078740157
          },
          {
            "duration": 0.2447916666666643,
            "durationTicks": 47,
            "midi": 57,
            "name": "A3",
            "ticks": 8353,
            "time": 43.505208333333336,
            "velocity": 0.5039370078740157
          },
          {
            "duration": 0.25,
            "durationTicks": 48,
            "midi": 61,
            "name": "C#4",
            "ticks": 8353,
            "time": 43.505208333333336,
            "velocity": 0.5039370078740157
          },
          {
            "duration": 0.125,
            "durationTicks": 24,
            "midi": 74,
            "name": "D5",
            "ticks": 8353,
            "time": 43.505208333333336,
            "velocity": 0.5039370078740157
          },
          {
            "duration": 0.125,
            "durationTicks": 24,
            "midi": 78,
            "name": "F#5",
            "ticks": 8353,
            "time": 43.505208333333336,
            "velocity": 0.6299212598425197
          },
          {
            "duration": 0.125,
            "durationTicks": 24,
            "midi": 81,
            "name": "A5",
            "ticks": 8377,
            "time": 43.630208333333336,
            "velocity": 0.5039370078740157
          },
          {
            "duration": 0.125,
            "durationTicks": 24,
            "midi": 83,
            "name": "B5",
            "ticks": 8401,
            "time": 43.755208333333336,
            "velocity": 0.5039370078740157
          },
          {
            "duration": 0.0625,
            "durationTicks": 12,
            "midi": 86,
            "name": "D6",
            "ticks": 8401,
            "time": 43.755208333333336,
            "velocity": 0.6299212598425197
          },
          {
            "duration": 0.25,
            "durationTicks": 48,
            "midi": 31,
            "name": "G1",
            "ticks": 8449,
            "time": 44.005208333333336,
            "velocity": 0.5039370078740157
          },
          {
            "duration": 0.25,
            "durationTicks": 48,
            "midi": 43,
            "name": "G2",
            "ticks": 8449,
            "time": 44.005208333333336,
            "velocity": 0.5039370078740157
          },
          {
            "duration": 0.25,
            "durationTicks": 48,
            "midi": 66,
            "name": "F#4",
            "ticks": 8449,
            "time": 44.005208333333336,
            "velocity": 0.5984251968503937
          },
          {
            "duration": 0.25,
            "durationTicks": 48,
            "midi": 71,
            "name": "B4",
            "ticks": 8449,
            "time": 44.005208333333336,
            "velocity": 0.5984251968503937
          },
          {
            "duration": 0.25,
            "durationTicks": 48,
            "midi": 74,
            "name": "D5",
            "ticks": 8449,
            "time": 44.005208333333336,
            "velocity": 0.5984251968503937
          },
          {
            "duration": 0.25,
            "durationTicks": 48,
            "midi": 78,
            "name": "F#5",
            "ticks": 8449,
            "time": 44.005208333333336,
            "velocity": 0.5984251968503937
          },
          {
            "duration": 0.125,
            "durationTicks": 24,
            "midi": 43,
            "name": "G2",
            "ticks": 8497,
            "time": 44.255208333333336,
            "velocity": 0.5039370078740157
          },
          {
            "duration": 0.125,
            "durationTicks": 24,
            "midi": 66,
            "name": "F#4",
            "ticks": 8497,
            "time": 44.255208333333336,
            "velocity": 0.5984251968503937
          },
          {
            "duration": 0.125,
            "durationTicks": 24,
            "midi": 78,
            "name": "F#5",
            "ticks": 8497,
            "time": 44.255208333333336,
            "velocity": 0.5984251968503937
          },
          {
            "duration": 0.125,
            "durationTicks": 24,
            "midi": 50,
            "name": "D3",
            "ticks": 8521,
            "time": 44.380208333333336,
            "velocity": 0.5039370078740157
          },
          {
            "duration": 0.25,
            "durationTicks": 48,
            "midi": 66,
            "name": "F#4",
            "ticks": 8521,
            "time": 44.380208333333336,
            "velocity": 0.5984251968503937
          },
          {
            "duration": 0.25,
            "durationTicks": 48,
            "midi": 78,
            "name": "F#5",
            "ticks": 8521,
            "time": 44.380208333333336,
            "velocity": 0.5984251968503937
          },
          {
            "duration": 0.125,
            "durationTicks": 24,
            "midi": 55,
            "name": "G3",
            "ticks": 8545,
            "time": 44.505208333333336,
            "velocity": 0.5039370078740157
          },
          {
            "duration": 0.375,
            "durationTicks": 72,
            "midi": 43,
            "name": "G2",
            "ticks": 8569,
            "time": 44.630208333333336,
            "velocity": 0.5039370078740157
          },
          {
            "duration": 0.375,
            "durationTicks": 72,
            "midi": 50,
            "name": "D3",
            "ticks": 8569,
            "time": 44.630208333333336,
            "velocity": 0.5039370078740157
          },
          {
            "duration": 0.375,
            "durationTicks": 72,
            "midi": 55,
            "name": "G3",
            "ticks": 8569,
            "time": 44.630208333333336,
            "velocity": 0.5039370078740157
          },
          {
            "duration": 0.25,
            "durationTicks": 48,
            "midi": 66,
            "name": "F#4",
            "ticks": 8569,
            "time": 44.630208333333336,
            "velocity": 0.5984251968503937
          },
          {
            "duration": 0.25,
            "durationTicks": 48,
            "midi": 71,
            "name": "B4",
            "ticks": 8569,
            "time": 44.630208333333336,
            "velocity": 0.5984251968503937
          },
          {
            "duration": 0.25,
            "durationTicks": 48,
            "midi": 74,
            "name": "D5",
            "ticks": 8569,
            "time": 44.630208333333336,
            "velocity": 0.5984251968503937
          },
          {
            "duration": 0.25,
            "durationTicks": 48,
            "midi": 78,
            "name": "F#5",
            "ticks": 8569,
            "time": 44.630208333333336,
            "velocity": 0.5984251968503937
          },
          {
            "duration": 0.125,
            "durationTicks": 24,
            "midi": 67,
            "name": "G4",
            "ticks": 8617,
            "time": 44.880208333333336,
            "velocity": 0.5984251968503937
          },
          {
            "duration": 0.125,
            "durationTicks": 24,
            "midi": 79,
            "name": "G5",
            "ticks": 8617,
            "time": 44.880208333333336,
            "velocity": 0.5984251968503937
          },
          {
            "duration": 0.125,
            "durationTicks": 24,
            "midi": 43,
            "name": "G2",
            "ticks": 8641,
            "time": 45.005208333333336,
            "velocity": 0.5039370078740157
          },
          {
            "duration": 0.125,
            "durationTicks": 24,
            "midi": 49,
            "name": "C#3",
            "ticks": 8641,
            "time": 45.005208333333336,
            "velocity": 0.5039370078740157
          },
          {
            "duration": 0.125,
            "durationTicks": 24,
            "midi": 52,
            "name": "E3",
            "ticks": 8641,
            "time": 45.005208333333336,
            "velocity": 0.5039370078740157
          },
          {
            "duration": 0.125,
            "durationTicks": 24,
            "midi": 57,
            "name": "A3",
            "ticks": 8641,
            "time": 45.005208333333336,
            "velocity": 0.5039370078740157
          },
          {
            "duration": 0.25,
            "durationTicks": 48,
            "midi": 66,
            "name": "F#4",
            "ticks": 8641,
            "time": 45.005208333333336,
            "velocity": 0.5984251968503937
          },
          {
            "duration": 0.125,
            "durationTicks": 24,
            "midi": 69,
            "name": "A4",
            "ticks": 8641,
            "time": 45.005208333333336,
            "velocity": 0.5984251968503937
          },
          {
            "duration": 0.125,
            "durationTicks": 24,
            "midi": 78,
            "name": "F#5",
            "ticks": 8641,
            "time": 45.005208333333336,
            "velocity": 0.5984251968503937
          },
          {
            "duration": 0.125,
            "durationTicks": 24,
            "midi": 78,
            "name": "F#5",
            "ticks": 8665,
            "time": 45.130208333333336,
            "velocity": 0.5984251968503937
          },
          {
            "duration": 0.125,
            "durationTicks": 24,
            "midi": 55,
            "name": "G3",
            "ticks": 8689,
            "time": 45.255208333333336,
            "velocity": 0.5039370078740157
          },
          {
            "duration": 0.125,
            "durationTicks": 24,
            "midi": 57,
            "name": "A3",
            "ticks": 8689,
            "time": 45.255208333333336,
            "velocity": 0.5039370078740157
          },
          {
            "duration": 0.125,
            "durationTicks": 24,
            "midi": 61,
            "name": "C#4",
            "ticks": 8689,
            "time": 45.255208333333336,
            "velocity": 0.5039370078740157
          },
          {
            "duration": 0.375,
            "durationTicks": 72,
            "midi": 64,
            "name": "E4",
            "ticks": 8689,
            "time": 45.255208333333336,
            "velocity": 0.5984251968503937
          },
          {
            "duration": 0.375,
            "durationTicks": 72,
            "midi": 69,
            "name": "A4",
            "ticks": 8689,
            "time": 45.255208333333336,
            "velocity": 0.5984251968503937
          },
          {
            "duration": 0.375,
            "durationTicks": 72,
            "midi": 76,
            "name": "E5",
            "ticks": 8689,
            "time": 45.255208333333336,
            "velocity": 0.5984251968503937
          },
          {
            "duration": 0.25,
            "durationTicks": 48,
            "midi": 55,
            "name": "G3",
            "ticks": 8713,
            "time": 45.380208333333336,
            "velocity": 0.5039370078740157
          },
          {
            "duration": 0.25,
            "durationTicks": 48,
            "midi": 57,
            "name": "A3",
            "ticks": 8713,
            "time": 45.380208333333336,
            "velocity": 0.5039370078740157
          },
          {
            "duration": 0.125,
            "durationTicks": 24,
            "midi": 61,
            "name": "C#4",
            "ticks": 8713,
            "time": 45.380208333333336,
            "velocity": 0.5039370078740157
          },
          {
            "duration": 0.125,
            "durationTicks": 24,
            "midi": 57,
            "name": "A3",
            "ticks": 8761,
            "time": 45.630208333333336,
            "velocity": 0.5039370078740157
          },
          {
            "duration": 0.25,
            "durationTicks": 48,
            "midi": 61,
            "name": "C#4",
            "ticks": 8761,
            "time": 45.630208333333336,
            "velocity": 0.5984251968503937
          },
          {
            "duration": 0.25,
            "durationTicks": 48,
            "midi": 64,
            "name": "E4",
            "ticks": 8761,
            "time": 45.630208333333336,
            "velocity": 0.5984251968503937
          },
          {
            "duration": 0.25,
            "durationTicks": 48,
            "midi": 73,
            "name": "C#5",
            "ticks": 8761,
            "time": 45.630208333333336,
            "velocity": 0.5984251968503937
          },
          {
            "duration": 0.125,
            "durationTicks": 24,
            "midi": 52,
            "name": "E3",
            "ticks": 8785,
            "time": 45.755208333333336,
            "velocity": 0.5039370078740157
          },
          {
            "duration": 0.125,
            "durationTicks": 24,
            "midi": 49,
            "name": "C#3",
            "ticks": 8809,
            "time": 45.880208333333336,
            "velocity": 0.5039370078740157
          },
          {
            "duration": 0.125,
            "durationTicks": 24,
            "midi": 62,
            "name": "D4",
            "ticks": 8809,
            "time": 45.880208333333336,
            "velocity": 0.5984251968503937
          },
          {
            "duration": 0.125,
            "durationTicks": 24,
            "midi": 74,
            "name": "D5",
            "ticks": 8809,
            "time": 45.880208333333336,
            "velocity": 0.5984251968503937
          },
          {
            "duration": 0.125,
            "durationTicks": 24,
            "midi": 43,
            "name": "G2",
            "ticks": 8833,
            "time": 46.005208333333336,
            "velocity": 0.5039370078740157
          },
          {
            "duration": 0.25,
            "durationTicks": 48,
            "midi": 64,
            "name": "E4",
            "ticks": 8833,
            "time": 46.005208333333336,
            "velocity": 0.5984251968503937
          },
          {
            "duration": 0.25,
            "durationTicks": 48,
            "midi": 69,
            "name": "A4",
            "ticks": 8833,
            "time": 46.005208333333336,
            "velocity": 0.5984251968503937
          },
          {
            "duration": 0.25,
            "durationTicks": 48,
            "midi": 76,
            "name": "E5",
            "ticks": 8833,
            "time": 46.005208333333336,
            "velocity": 0.5984251968503937
          },
          {
            "duration": 0.25,
            "durationTicks": 48,
            "midi": 30,
            "name": "F#1",
            "ticks": 8857,
            "time": 46.130208333333336,
            "velocity": 0.5039370078740157
          },
          {
            "duration": 0.25,
            "durationTicks": 48,
            "midi": 42,
            "name": "F#2",
            "ticks": 8857,
            "time": 46.130208333333336,
            "velocity": 0.5039370078740157
          },
          {
            "duration": 0.125,
            "durationTicks": 24,
            "midi": 64,
            "name": "E4",
            "ticks": 8881,
            "time": 46.255208333333336,
            "velocity": 0.5984251968503937
          },
          {
            "duration": 0.125,
            "durationTicks": 24,
            "midi": 76,
            "name": "E5",
            "ticks": 8881,
            "time": 46.255208333333336,
            "velocity": 0.5984251968503937
          },
          {
            "duration": 0.125,
            "durationTicks": 24,
            "midi": 42,
            "name": "F#2",
            "ticks": 8905,
            "time": 46.380208333333336,
            "velocity": 0.5039370078740157
          },
          {
            "duration": 0.25,
            "durationTicks": 48,
            "midi": 64,
            "name": "E4",
            "ticks": 8905,
            "time": 46.380208333333336,
            "velocity": 0.5984251968503937
          },
          {
            "duration": 0.25,
            "durationTicks": 48,
            "midi": 69,
            "name": "A4",
            "ticks": 8905,
            "time": 46.380208333333336,
            "velocity": 0.5984251968503937
          },
          {
            "duration": 0.25,
            "durationTicks": 48,
            "midi": 76,
            "name": "E5",
            "ticks": 8905,
            "time": 46.380208333333336,
            "velocity": 0.5984251968503937
          },
          {
            "duration": 0.125,
            "durationTicks": 24,
            "midi": 49,
            "name": "C#3",
            "ticks": 8929,
            "time": 46.505208333333336,
            "velocity": 0.5039370078740157
          },
          {
            "duration": 0.375,
            "durationTicks": 72,
            "midi": 52,
            "name": "E3",
            "ticks": 8953,
            "time": 46.630208333333336,
            "velocity": 0.5039370078740157
          },
          {
            "duration": 0.375,
            "durationTicks": 72,
            "midi": 57,
            "name": "A3",
            "ticks": 8953,
            "time": 46.630208333333336,
            "velocity": 0.5039370078740157
          },
          {
            "duration": 0.25,
            "durationTicks": 48,
            "midi": 64,
            "name": "E4",
            "ticks": 8953,
            "time": 46.630208333333336,
            "velocity": 0.5984251968503937
          },
          {
            "duration": 0.25,
            "durationTicks": 48,
            "midi": 69,
            "name": "A4",
            "ticks": 8953,
            "time": 46.630208333333336,
            "velocity": 0.5984251968503937
          },
          {
            "duration": 0.25,
            "durationTicks": 48,
            "midi": 76,
            "name": "E5",
            "ticks": 8953,
            "time": 46.630208333333336,
            "velocity": 0.5984251968503937
          },
          {
            "duration": 0.125,
            "durationTicks": 24,
            "midi": 61,
            "name": "C#4",
            "ticks": 9001,
            "time": 46.880208333333336,
            "velocity": 0.5984251968503937
          },
          {
            "duration": 0.125,
            "durationTicks": 24,
            "midi": 73,
            "name": "C#5",
            "ticks": 9001,
            "time": 46.880208333333336,
            "velocity": 0.5984251968503937
          },
          {
            "duration": 0.125,
            "durationTicks": 24,
            "midi": 47,
            "name": "B2",
            "ticks": 9025,
            "time": 47.005208333333336,
            "velocity": 0.5039370078740157
          },
          {
            "duration": 0.125,
            "durationTicks": 24,
            "midi": 54,
            "name": "F#3",
            "ticks": 9025,
            "time": 47.005208333333336,
            "velocity": 0.5039370078740157
          },
          {
            "duration": 0.125,
            "durationTicks": 24,
            "midi": 57,
            "name": "A3",
            "ticks": 9025,
            "time": 47.005208333333336,
            "velocity": 0.5039370078740157
          },
          {
            "duration": 0.375,
            "durationTicks": 72,
            "midi": 62,
            "name": "D4",
            "ticks": 9025,
            "time": 47.005208333333336,
            "velocity": 0.5984251968503937
          },
          {
            "duration": 0.375,
            "durationTicks": 72,
            "midi": 66,
            "name": "F#4",
            "ticks": 9025,
            "time": 47.005208333333336,
            "velocity": 0.5984251968503937
          },
          {
            "duration": 0.375,
            "durationTicks": 72,
            "midi": 71,
            "name": "B4",
            "ticks": 9025,
            "time": 47.005208333333336,
            "velocity": 0.5984251968503937
          },
          {
            "duration": 0.375,
            "durationTicks": 72,
            "midi": 74,
            "name": "D5",
            "ticks": 9025,
            "time": 47.005208333333336,
            "velocity": 0.5984251968503937
          },
          {
            "duration": 0.125,
            "durationTicks": 24,
            "midi": 47,
            "name": "B2",
            "ticks": 9073,
            "time": 47.255208333333336,
            "velocity": 0.5039370078740157
          },
          {
            "duration": 0.125,
            "durationTicks": 24,
            "midi": 54,
            "name": "F#3",
            "ticks": 9073,
            "time": 47.255208333333336,
            "velocity": 0.5039370078740157
          },
          {
            "duration": 0.125,
            "durationTicks": 24,
            "midi": 57,
            "name": "A3",
            "ticks": 9073,
            "time": 47.255208333333336,
            "velocity": 0.5039370078740157
          },
          {
            "duration": 0.125,
            "durationTicks": 24,
            "midi": 47,
            "name": "B2",
            "ticks": 9121,
            "time": 47.505208333333336,
            "velocity": 0.5039370078740157
          },
          {
            "duration": 0.125,
            "durationTicks": 24,
            "midi": 45,
            "name": "A2",
            "ticks": 9145,
            "time": 47.630208333333336,
            "velocity": 0.5039370078740157
          },
          {
            "duration": 0.125,
            "durationTicks": 24,
            "midi": 59,
            "name": "B3",
            "ticks": 9145,
            "time": 47.630208333333336,
            "velocity": 0.5984251968503937
          },
          {
            "duration": 0.125,
            "durationTicks": 24,
            "midi": 66,
            "name": "F#4",
            "ticks": 9145,
            "time": 47.630208333333336,
            "velocity": 0.5984251968503937
          },
          {
            "duration": 0.125,
            "durationTicks": 24,
            "midi": 71,
            "name": "B4",
            "ticks": 9145,
            "time": 47.630208333333336,
            "velocity": 0.5984251968503937
          },
          {
            "duration": 0.125,
            "durationTicks": 24,
            "midi": 57,
            "name": "A3",
            "ticks": 9169,
            "time": 47.755208333333336,
            "velocity": 0.5039370078740157
          },
          {
            "duration": 0.125,
            "durationTicks": 24,
            "midi": 62,
            "name": "D4",
            "ticks": 9169,
            "time": 47.755208333333336,
            "velocity": 0.5984251968503937
          },
          {
            "duration": 0.125,
            "durationTicks": 24,
            "midi": 74,
            "name": "D5",
            "ticks": 9169,
            "time": 47.755208333333336,
            "velocity": 0.5984251968503937
          },
          {
            "duration": 0.125,
            "durationTicks": 24,
            "midi": 54,
            "name": "F#3",
            "ticks": 9193,
            "time": 47.880208333333336,
            "velocity": 0.5039370078740157
          },
          {
            "duration": 0.125,
            "durationTicks": 24,
            "midi": 45,
            "name": "A2",
            "ticks": 9217,
            "time": 48.005208333333336,
            "velocity": 0.5039370078740157
          },
          {
            "duration": 0.375,
            "durationTicks": 72,
            "midi": 69,
            "name": "A4",
            "ticks": 9217,
            "time": 48.005208333333336,
            "velocity": 0.5984251968503937
          },
          {
            "duration": 0.375,
            "durationTicks": 72,
            "midi": 74,
            "name": "D5",
            "ticks": 9217,
            "time": 48.005208333333336,
            "velocity": 0.5984251968503937
          },
          {
            "duration": 0.375,
            "durationTicks": 72,
            "midi": 81,
            "name": "A5",
            "ticks": 9217,
            "time": 48.005208333333336,
            "velocity": 0.5984251968503937
          },
          {
            "duration": 0.25,
            "durationTicks": 48,
            "midi": 43,
            "name": "G2",
            "ticks": 9241,
            "time": 48.130208333333336,
            "velocity": 0.5039370078740157
          },
          {
            "duration": 0.125,
            "durationTicks": 24,
            "midi": 54,
            "name": "F#3",
            "ticks": 9289,
            "time": 48.380208333333336,
            "velocity": 0.5039370078740157
          },
          {
            "duration": 0.25,
            "durationTicks": 48,
            "midi": 67,
            "name": "G4",
            "ticks": 9289,
            "time": 48.380208333333336,
            "velocity": 0.5984251968503937
          },
          {
            "duration": 0.25,
            "durationTicks": 48,
            "midi": 71,
            "name": "B4",
            "ticks": 9289,
            "time": 48.380208333333336,
            "velocity": 0.5984251968503937
          },
          {
            "duration": 0.25,
            "durationTicks": 48,
            "midi": 79,
            "name": "G5",
            "ticks": 9289,
            "time": 48.380208333333336,
            "velocity": 0.5984251968503937
          },
          {
            "duration": 0.125,
            "durationTicks": 24,
            "midi": 57,
            "name": "A3",
            "ticks": 9313,
            "time": 48.505208333333336,
            "velocity": 0.5039370078740157
          },
          {
            "duration": 0.125,
            "durationTicks": 24,
            "midi": 59,
            "name": "B3",
            "ticks": 9337,
            "time": 48.630208333333336,
            "velocity": 0.5039370078740157
          },
          {
            "duration": 0.125,
            "durationTicks": 24,
            "midi": 62,
            "name": "D4",
            "ticks": 9337,
            "time": 48.630208333333336,
            "velocity": 0.5039370078740157
          },
          {
            "duration": 0.25,
            "durationTicks": 48,
            "midi": 66,
            "name": "F#4",
            "ticks": 9337,
            "time": 48.630208333333336,
            "velocity": 0.5984251968503937
          },
          {
            "duration": 0.25,
            "durationTicks": 48,
            "midi": 71,
            "name": "B4",
            "ticks": 9337,
            "time": 48.630208333333336,
            "velocity": 0.5984251968503937
          },
          {
            "duration": 0.25,
            "durationTicks": 48,
            "midi": 78,
            "name": "F#5",
            "ticks": 9337,
            "time": 48.630208333333336,
            "velocity": 0.5984251968503937
          },
          {
            "duration": 0.125,
            "durationTicks": 24,
            "midi": 54,
            "name": "F#3",
            "ticks": 9361,
            "time": 48.755208333333336,
            "velocity": 0.5039370078740157
          },
          {
            "duration": 0.125,
            "durationTicks": 24,
            "midi": 57,
            "name": "A3",
            "ticks": 9361,
            "time": 48.755208333333336,
            "velocity": 0.5039370078740157
          },
          {
            "duration": 0.125,
            "durationTicks": 24,
            "midi": 59,
            "name": "B3",
            "ticks": 9361,
            "time": 48.755208333333336,
            "velocity": 0.5039370078740157
          },
          {
            "duration": 0.125,
            "durationTicks": 24,
            "midi": 62,
            "name": "D4",
            "ticks": 9361,
            "time": 48.755208333333336,
            "velocity": 0.5039370078740157
          },
          {
            "duration": 0.125,
            "durationTicks": 24,
            "midi": 67,
            "name": "G4",
            "ticks": 9385,
            "time": 48.880208333333336,
            "velocity": 0.5984251968503937
          },
          {
            "duration": 0.125,
            "durationTicks": 24,
            "midi": 79,
            "name": "G5",
            "ticks": 9385,
            "time": 48.880208333333336,
            "velocity": 0.5984251968503937
          },
          {
            "duration": 0.125,
            "durationTicks": 24,
            "midi": 52,
            "name": "E3",
            "ticks": 9409,
            "time": 49.005208333333336,
            "velocity": 0.5039370078740157
          },
          {
            "duration": 0.125,
            "durationTicks": 24,
            "midi": 54,
            "name": "F#3",
            "ticks": 9409,
            "time": 49.005208333333336,
            "velocity": 0.5039370078740157
          },
          {
            "duration": 0.25,
            "durationTicks": 48,
            "midi": 57,
            "name": "A3",
            "ticks": 9409,
            "time": 49.005208333333336,
            "velocity": 0.5039370078740157
          },
          {
            "duration": 0.25,
            "durationTicks": 48,
            "midi": 61,
            "name": "C#4",
            "ticks": 9409,
            "time": 49.005208333333336,
            "velocity": 0.5039370078740157
          },
          {
            "duration": 0.25,
            "durationTicks": 48,
            "midi": 66,
            "name": "F#4",
            "ticks": 9409,
            "time": 49.005208333333336,
            "velocity": 0.5984251968503937
          },
          {
            "duration": 0.25,
            "durationTicks": 48,
            "midi": 69,
            "name": "A4",
            "ticks": 9409,
            "time": 49.005208333333336,
            "velocity": 0.5984251968503937
          },
          {
            "duration": 0.25,
            "durationTicks": 48,
            "midi": 78,
            "name": "F#5",
            "ticks": 9409,
            "time": 49.005208333333336,
            "velocity": 0.5984251968503937
          },
          {
            "duration": 0.125,
            "durationTicks": 24,
            "midi": 52,
            "name": "E3",
            "ticks": 9433,
            "time": 49.130208333333336,
            "velocity": 0.5039370078740157
          },
          {
            "duration": 0.125,
            "durationTicks": 24,
            "midi": 54,
            "name": "F#3",
            "ticks": 9433,
            "time": 49.130208333333336,
            "velocity": 0.5039370078740157
          },
          {
            "duration": 0.125,
            "durationTicks": 24,
            "midi": 52,
            "name": "E3",
            "ticks": 9457,
            "time": 49.255208333333336,
            "velocity": 0.5039370078740157
          },
          {
            "duration": 0.125,
            "durationTicks": 24,
            "midi": 54,
            "name": "F#3",
            "ticks": 9457,
            "time": 49.255208333333336,
            "velocity": 0.5039370078740157
          },
          {
            "duration": 0.125,
            "durationTicks": 24,
            "midi": 57,
            "name": "A3",
            "ticks": 9457,
            "time": 49.255208333333336,
            "velocity": 0.5039370078740157
          },
          {
            "duration": 0.375,
            "durationTicks": 72,
            "midi": 62,
            "name": "D4",
            "ticks": 9457,
            "time": 49.255208333333336,
            "velocity": 0.5984251968503937
          },
          {
            "duration": 0.375,
            "durationTicks": 72,
            "midi": 66,
            "name": "F#4",
            "ticks": 9457,
            "time": 49.255208333333336,
            "velocity": 0.5984251968503937
          },
          {
            "duration": 0.375,
            "durationTicks": 72,
            "midi": 74,
            "name": "D5",
            "ticks": 9457,
            "time": 49.255208333333336,
            "velocity": 0.5984251968503937
          },
          {
            "duration": 0.25,
            "durationTicks": 48,
            "midi": 52,
            "name": "E3",
            "ticks": 9481,
            "time": 49.380208333333336,
            "velocity": 0.5039370078740157
          },
          {
            "duration": 0.25,
            "durationTicks": 48,
            "midi": 54,
            "name": "F#3",
            "ticks": 9481,
            "time": 49.380208333333336,
            "velocity": 0.5039370078740157
          },
          {
            "duration": 0.125,
            "durationTicks": 24,
            "midi": 57,
            "name": "A3",
            "ticks": 9481,
            "time": 49.380208333333336,
            "velocity": 0.5039370078740157
          },
          {
            "duration": 0.25,
            "durationTicks": 48,
            "midi": 42,
            "name": "F#2",
            "ticks": 9529,
            "time": 49.630208333333336,
            "velocity": 0.5039370078740157
          },
          {
            "duration": 0.25,
            "durationTicks": 48,
            "midi": 52,
            "name": "E3",
            "ticks": 9529,
            "time": 49.630208333333336,
            "velocity": 0.5039370078740157
          },
          {
            "duration": 0.25,
            "durationTicks": 48,
            "midi": 59,
            "name": "B3",
            "ticks": 9529,
            "time": 49.630208333333336,
            "velocity": 0.5984251968503937
          },
          {
            "duration": 0.25,
            "durationTicks": 48,
            "midi": 64,
            "name": "E4",
            "ticks": 9529,
            "time": 49.630208333333336,
            "velocity": 0.5984251968503937
          },
          {
            "duration": 0.25,
            "durationTicks": 48,
            "midi": 71,
            "name": "B4",
            "ticks": 9529,
            "time": 49.630208333333336,
            "velocity": 0.5984251968503937
          },
          {
            "duration": 0.25,
            "durationTicks": 48,
            "midi": 57,
            "name": "A3",
            "ticks": 9577,
            "time": 49.880208333333336,
            "velocity": 0.5039370078740157
          },
          {
            "duration": 0.25,
            "durationTicks": 48,
            "midi": 62,
            "name": "D4",
            "ticks": 9577,
            "time": 49.880208333333336,
            "velocity": 0.5984251968503937
          },
          {
            "duration": 0.25,
            "durationTicks": 48,
            "midi": 74,
            "name": "D5",
            "ticks": 9577,
            "time": 49.880208333333336,
            "velocity": 0.5984251968503937
          },
          {
            "duration": 0.25,
            "durationTicks": 48,
            "midi": 35,
            "name": "B1",
            "ticks": 9625,
            "time": 50.130208333333336,
            "velocity": 0.5039370078740157
          },
          {
            "duration": 0.25,
            "durationTicks": 48,
            "midi": 47,
            "name": "B2",
            "ticks": 9625,
            "time": 50.130208333333336,
            "velocity": 0.5039370078740157
          },
          {
            "duration": 0.25,
            "durationTicks": 48,
            "midi": 66,
            "name": "F#4",
            "ticks": 9625,
            "time": 50.130208333333336,
            "velocity": 0.5984251968503937
          },
          {
            "duration": 0.25,
            "durationTicks": 48,
            "midi": 69,
            "name": "A4",
            "ticks": 9625,
            "time": 50.130208333333336,
            "velocity": 0.5984251968503937
          },
          {
            "duration": 0.25,
            "durationTicks": 48,
            "midi": 74,
            "name": "D5",
            "ticks": 9625,
            "time": 50.130208333333336,
            "velocity": 0.5984251968503937
          },
          {
            "duration": 0.25,
            "durationTicks": 48,
            "midi": 78,
            "name": "F#5",
            "ticks": 9625,
            "time": 50.130208333333336,
            "velocity": 0.5984251968503937
          },
          {
            "duration": 0.125,
            "durationTicks": 24,
            "midi": 54,
            "name": "F#3",
            "ticks": 9673,
            "time": 50.380208333333336,
            "velocity": 0.5039370078740157
          },
          {
            "duration": 0.125,
            "durationTicks": 24,
            "midi": 66,
            "name": "F#4",
            "ticks": 9673,
            "time": 50.380208333333336,
            "velocity": 0.5984251968503937
          },
          {
            "duration": 0.125,
            "durationTicks": 24,
            "midi": 78,
            "name": "F#5",
            "ticks": 9673,
            "time": 50.380208333333336,
            "velocity": 0.5984251968503937
          },
          {
            "duration": 0.125,
            "durationTicks": 24,
            "midi": 57,
            "name": "A3",
            "ticks": 9697,
            "time": 50.505208333333336,
            "velocity": 0.5039370078740157
          },
          {
            "duration": 0.125,
            "durationTicks": 24,
            "midi": 61,
            "name": "C#4",
            "ticks": 9697,
            "time": 50.505208333333336,
            "velocity": 0.5039370078740157
          },
          {
            "duration": 0.125,
            "durationTicks": 24,
            "midi": 64,
            "name": "E4",
            "ticks": 9697,
            "time": 50.505208333333336,
            "velocity": 0.5039370078740157
          },
          {
            "duration": 0.125,
            "durationTicks": 24,
            "midi": 66,
            "name": "F#4",
            "ticks": 9697,
            "time": 50.505208333333336,
            "velocity": 0.5984251968503937
          },
          {
            "duration": 0.125,
            "durationTicks": 24,
            "midi": 69,
            "name": "A4",
            "ticks": 9697,
            "time": 50.505208333333336,
            "velocity": 0.5984251968503937
          },
          {
            "duration": 0.125,
            "durationTicks": 24,
            "midi": 74,
            "name": "D5",
            "ticks": 9697,
            "time": 50.505208333333336,
            "velocity": 0.5984251968503937
          },
          {
            "duration": 0.125,
            "durationTicks": 24,
            "midi": 78,
            "name": "F#5",
            "ticks": 9697,
            "time": 50.505208333333336,
            "velocity": 0.5984251968503937
          },
          {
            "duration": 0.125,
            "durationTicks": 24,
            "midi": 54,
            "name": "F#3",
            "ticks": 9745,
            "time": 50.755208333333336,
            "velocity": 0.5039370078740157
          },
          {
            "duration": 0.125,
            "durationTicks": 24,
            "midi": 57,
            "name": "A3",
            "ticks": 9745,
            "time": 50.755208333333336,
            "velocity": 0.5039370078740157
          },
          {
            "duration": 0.125,
            "durationTicks": 24,
            "midi": 61,
            "name": "C#4",
            "ticks": 9745,
            "time": 50.755208333333336,
            "velocity": 0.5039370078740157
          },
          {
            "duration": 0.125,
            "durationTicks": 24,
            "midi": 64,
            "name": "E4",
            "ticks": 9745,
            "time": 50.755208333333336,
            "velocity": 0.5039370078740157
          },
          {
            "duration": 0.125,
            "durationTicks": 24,
            "midi": 67,
            "name": "G4",
            "ticks": 9745,
            "time": 50.755208333333336,
            "velocity": 0.5984251968503937
          },
          {
            "duration": 0.125,
            "durationTicks": 24,
            "midi": 71,
            "name": "B4",
            "ticks": 9745,
            "time": 50.755208333333336,
            "velocity": 0.5984251968503937
          },
          {
            "duration": 0.125,
            "durationTicks": 24,
            "midi": 76,
            "name": "E5",
            "ticks": 9745,
            "time": 50.755208333333336,
            "velocity": 0.5984251968503937
          },
          {
            "duration": 0.125,
            "durationTicks": 24,
            "midi": 79,
            "name": "G5",
            "ticks": 9745,
            "time": 50.755208333333336,
            "velocity": 0.5984251968503937
          },
          {
            "duration": 0.125,
            "durationTicks": 24,
            "midi": 47,
            "name": "B2",
            "ticks": 9793,
            "time": 51.005208333333336,
            "velocity": 0.5039370078740157
          },
          {
            "duration": 0.25,
            "durationTicks": 48,
            "midi": 66,
            "name": "F#4",
            "ticks": 9793,
            "time": 51.005208333333336,
            "velocity": 0.5984251968503937
          },
          {
            "duration": 0.25,
            "durationTicks": 48,
            "midi": 69,
            "name": "A4",
            "ticks": 9793,
            "time": 51.005208333333336,
            "velocity": 0.5984251968503937
          },
          {
            "duration": 0.25,
            "durationTicks": 48,
            "midi": 74,
            "name": "D5",
            "ticks": 9793,
            "time": 51.005208333333336,
            "velocity": 0.5984251968503937
          },
          {
            "duration": 0.25,
            "durationTicks": 48,
            "midi": 78,
            "name": "F#5",
            "ticks": 9793,
            "time": 51.005208333333336,
            "velocity": 0.5984251968503937
          },
          {
            "duration": 0.25,
            "durationTicks": 48,
            "midi": 40,
            "name": "E2",
            "ticks": 9817,
            "time": 51.130208333333336,
            "velocity": 0.5039370078740157
          },
          {
            "duration": 0.25,
            "durationTicks": 48,
            "midi": 47,
            "name": "B2",
            "ticks": 9817,
            "time": 51.130208333333336,
            "velocity": 0.5039370078740157
          },
          {
            "duration": 0.25,
            "durationTicks": 48,
            "midi": 52,
            "name": "E3",
            "ticks": 9817,
            "time": 51.130208333333336,
            "velocity": 0.5039370078740157
          },
          {
            "duration": 0.125,
            "durationTicks": 24,
            "midi": 64,
            "name": "E4",
            "ticks": 9841,
            "time": 51.255208333333336,
            "velocity": 0.5984251968503937
          },
          {
            "duration": 0.125,
            "durationTicks": 24,
            "midi": 76,
            "name": "E5",
            "ticks": 9841,
            "time": 51.255208333333336,
            "velocity": 0.5984251968503937
          },
          {
            "duration": 0.125,
            "durationTicks": 24,
            "midi": 52,
            "name": "E3",
            "ticks": 9865,
            "time": 51.380208333333336,
            "velocity": 0.5039370078740157
          },
          {
            "duration": 0.125,
            "durationTicks": 24,
            "midi": 62,
            "name": "D4",
            "ticks": 9865,
            "time": 51.380208333333336,
            "velocity": 0.5984251968503937
          },
          {
            "duration": 0.25,
            "durationTicks": 48,
            "midi": 74,
            "name": "D5",
            "ticks": 9865,
            "time": 51.380208333333336,
            "velocity": 0.5984251968503937
          },
          {
            "duration": 0.125,
            "durationTicks": 24,
            "midi": 47,
            "name": "B2",
            "ticks": 9889,
            "time": 51.505208333333336,
            "velocity": 0.5039370078740157
          },
          {
            "duration": 0.125,
            "durationTicks": 24,
            "midi": 42,
            "name": "F#2",
            "ticks": 9913,
            "time": 51.630208333333336,
            "velocity": 0.5039370078740157
          },
          {
            "duration": 0.125,
            "durationTicks": 24,
            "midi": 59,
            "name": "B3",
            "ticks": 9913,
            "time": 51.630208333333336,
            "velocity": 0.5984251968503937
          },
          {
            "duration": 0.125,
            "durationTicks": 24,
            "midi": 62,
            "name": "D4",
            "ticks": 9913,
            "time": 51.630208333333336,
            "velocity": 0.5984251968503937
          },
          {
            "duration": 0.125,
            "durationTicks": 24,
            "midi": 71,
            "name": "B4",
            "ticks": 9913,
            "time": 51.630208333333336,
            "velocity": 0.5984251968503937
          },
          {
            "duration": 0.125,
            "durationTicks": 24,
            "midi": 50,
            "name": "D3",
            "ticks": 9937,
            "time": 51.755208333333336,
            "velocity": 0.5039370078740157
          },
          {
            "duration": 0.125,
            "durationTicks": 24,
            "midi": 62,
            "name": "D4",
            "ticks": 9937,
            "time": 51.755208333333336,
            "velocity": 0.5984251968503937
          },
          {
            "duration": 0.125,
            "durationTicks": 24,
            "midi": 66,
            "name": "F#4",
            "ticks": 9937,
            "time": 51.755208333333336,
            "velocity": 0.5984251968503937
          },
          {
            "duration": 0.125,
            "durationTicks": 24,
            "midi": 74,
            "name": "D5",
            "ticks": 9937,
            "time": 51.755208333333336,
            "velocity": 0.5984251968503937
          },
          {
            "duration": 0.1197916666666643,
            "durationTicks": 23,
            "midi": 57,
            "name": "A3",
            "ticks": 9961,
            "time": 51.880208333333336,
            "velocity": 0.5039370078740157
          },
          {
            "duration": 0.25,
            "durationTicks": 48,
            "midi": 31,
            "name": "G1",
            "ticks": 9984,
            "time": 52,
            "velocity": 0.5039370078740157
          },
          {
            "duration": 0.25,
            "durationTicks": 48,
            "midi": 43,
            "name": "G2",
            "ticks": 9984,
            "time": 52,
            "velocity": 0.5039370078740157
          },
          {
            "duration": 0.125,
            "durationTicks": 24,
            "midi": 66,
            "name": "F#4",
            "ticks": 9984,
            "time": 52,
            "velocity": 0.5039370078740157
          },
          {
            "duration": 0.125,
            "durationTicks": 24,
            "midi": 71,
            "name": "B4",
            "ticks": 9984,
            "time": 52,
            "velocity": 0.5039370078740157
          },
          {
            "duration": 0.125,
            "durationTicks": 24,
            "midi": 74,
            "name": "D5",
            "ticks": 9984,
            "time": 52,
            "velocity": 0.5039370078740157
          },
          {
            "duration": 0.125,
            "durationTicks": 24,
            "midi": 78,
            "name": "F#5",
            "ticks": 9984,
            "time": 52,
            "velocity": 0.5039370078740157
          },
          {
            "duration": 0.125,
            "durationTicks": 24,
            "midi": 66,
            "name": "F#4",
            "ticks": 10008,
            "time": 52.125,
            "velocity": 0.5039370078740157
          },
          {
            "duration": 0.125,
            "durationTicks": 24,
            "midi": 71,
            "name": "B4",
            "ticks": 10008,
            "time": 52.125,
            "velocity": 0.5039370078740157
          },
          {
            "duration": 0.125,
            "durationTicks": 24,
            "midi": 78,
            "name": "F#5",
            "ticks": 10008,
            "time": 52.125,
            "velocity": 0.5039370078740157
          },
          {
            "duration": 0.125,
            "durationTicks": 24,
            "midi": 50,
            "name": "D3",
            "ticks": 10032,
            "time": 52.25,
            "velocity": 0.5039370078740157
          },
          {
            "duration": 0.25,
            "durationTicks": 48,
            "midi": 66,
            "name": "F#4",
            "ticks": 10032,
            "time": 52.25,
            "velocity": 0.5039370078740157
          },
          {
            "duration": 0.25,
            "durationTicks": 48,
            "midi": 71,
            "name": "B4",
            "ticks": 10032,
            "time": 52.25,
            "velocity": 0.5039370078740157
          },
          {
            "duration": 0.25,
            "durationTicks": 48,
            "midi": 78,
            "name": "F#5",
            "ticks": 10032,
            "time": 52.25,
            "velocity": 0.5039370078740157
          },
          {
            "duration": 0.125,
            "durationTicks": 24,
            "midi": 55,
            "name": "G3",
            "ticks": 10056,
            "time": 52.375,
            "velocity": 0.5039370078740157
          },
          {
            "duration": 0.375,
            "durationTicks": 72,
            "midi": 43,
            "name": "G2",
            "ticks": 10080,
            "time": 52.5,
            "velocity": 0.5039370078740157
          },
          {
            "duration": 0.375,
            "durationTicks": 72,
            "midi": 50,
            "name": "D3",
            "ticks": 10080,
            "time": 52.5,
            "velocity": 0.5039370078740157
          },
          {
            "duration": 0.375,
            "durationTicks": 72,
            "midi": 55,
            "name": "G3",
            "ticks": 10080,
            "time": 52.5,
            "velocity": 0.5039370078740157
          },
          {
            "duration": 0.25,
            "durationTicks": 48,
            "midi": 66,
            "name": "F#4",
            "ticks": 10080,
            "time": 52.5,
            "velocity": 0.5039370078740157
          },
          {
            "duration": 0.25,
            "durationTicks": 48,
            "midi": 71,
            "name": "B4",
            "ticks": 10080,
            "time": 52.5,
            "velocity": 0.5039370078740157
          },
          {
            "duration": 0.25,
            "durationTicks": 48,
            "midi": 74,
            "name": "D5",
            "ticks": 10080,
            "time": 52.5,
            "velocity": 0.5039370078740157
          },
          {
            "duration": 0.25,
            "durationTicks": 48,
            "midi": 78,
            "name": "F#5",
            "ticks": 10080,
            "time": 52.5,
            "velocity": 0.5039370078740157
          },
          {
            "duration": 0.125,
            "durationTicks": 24,
            "midi": 67,
            "name": "G4",
            "ticks": 10128,
            "time": 52.75,
            "velocity": 0.5039370078740157
          },
          {
            "duration": 0.125,
            "durationTicks": 24,
            "midi": 71,
            "name": "B4",
            "ticks": 10128,
            "time": 52.75,
            "velocity": 0.5039370078740157
          },
          {
            "duration": 0.125,
            "durationTicks": 24,
            "midi": 79,
            "name": "G5",
            "ticks": 10128,
            "time": 52.75,
            "velocity": 0.5039370078740157
          },
          {
            "duration": 0.125,
            "durationTicks": 24,
            "midi": 43,
            "name": "G2",
            "ticks": 10152,
            "time": 52.875,
            "velocity": 0.5039370078740157
          },
          {
            "duration": 0.125,
            "durationTicks": 24,
            "midi": 49,
            "name": "C#3",
            "ticks": 10152,
            "time": 52.875,
            "velocity": 0.5039370078740157
          },
          {
            "duration": 0.125,
            "durationTicks": 24,
            "midi": 52,
            "name": "E3",
            "ticks": 10152,
            "time": 52.875,
            "velocity": 0.5039370078740157
          },
          {
            "duration": 0.125,
            "durationTicks": 24,
            "midi": 57,
            "name": "A3",
            "ticks": 10152,
            "time": 52.875,
            "velocity": 0.5039370078740157
          },
          {
            "duration": 0.25,
            "durationTicks": 48,
            "midi": 66,
            "name": "F#4",
            "ticks": 10152,
            "time": 52.875,
            "velocity": 0.5039370078740157
          },
          {
            "duration": 0.25,
            "durationTicks": 48,
            "midi": 69,
            "name": "A4",
            "ticks": 10152,
            "time": 52.875,
            "velocity": 0.5039370078740157
          },
          {
            "duration": 0.25,
            "durationTicks": 48,
            "midi": 78,
            "name": "F#5",
            "ticks": 10152,
            "time": 52.875,
            "velocity": 0.5039370078740157
          },
          {
            "duration": 0.125,
            "durationTicks": 24,
            "midi": 55,
            "name": "G3",
            "ticks": 10200,
            "time": 53.125,
            "velocity": 0.5039370078740157
          },
          {
            "duration": 0.125,
            "durationTicks": 24,
            "midi": 57,
            "name": "A3",
            "ticks": 10200,
            "time": 53.125,
            "velocity": 0.5039370078740157
          },
          {
            "duration": 0.125,
            "durationTicks": 24,
            "midi": 61,
            "name": "C#4",
            "ticks": 10200,
            "time": 53.125,
            "velocity": 0.5039370078740157
          },
          {
            "duration": 0.375,
            "durationTicks": 72,
            "midi": 64,
            "name": "E4",
            "ticks": 10200,
            "time": 53.125,
            "velocity": 0.5039370078740157
          },
          {
            "duration": 0.375,
            "durationTicks": 72,
            "midi": 69,
            "name": "A4",
            "ticks": 10200,
            "time": 53.125,
            "velocity": 0.5039370078740157
          },
          {
            "duration": 0.375,
            "durationTicks": 72,
            "midi": 76,
            "name": "E5",
            "ticks": 10200,
            "time": 53.125,
            "velocity": 0.5039370078740157
          },
          {
            "duration": 0.25,
            "durationTicks": 48,
            "midi": 55,
            "name": "G3",
            "ticks": 10224,
            "time": 53.25,
            "velocity": 0.5039370078740157
          },
          {
            "duration": 0.25,
            "durationTicks": 48,
            "midi": 57,
            "name": "A3",
            "ticks": 10224,
            "time": 53.25,
            "velocity": 0.5039370078740157
          },
          {
            "duration": 0.125,
            "durationTicks": 24,
            "midi": 61,
            "name": "C#4",
            "ticks": 10224,
            "time": 53.25,
            "velocity": 0.5039370078740157
          },
          {
            "duration": 0.125,
            "durationTicks": 24,
            "midi": 57,
            "name": "A3",
            "ticks": 10272,
            "time": 53.5,
            "velocity": 0.5039370078740157
          },
          {
            "duration": 0.125,
            "durationTicks": 24,
            "midi": 61,
            "name": "C#4",
            "ticks": 10272,
            "time": 53.5,
            "velocity": 0.5039370078740157
          },
          {
            "duration": 0.125,
            "durationTicks": 24,
            "midi": 64,
            "name": "E4",
            "ticks": 10272,
            "time": 53.5,
            "velocity": 0.5039370078740157
          },
          {
            "duration": 0.125,
            "durationTicks": 24,
            "midi": 73,
            "name": "C#5",
            "ticks": 10272,
            "time": 53.5,
            "velocity": 0.5039370078740157
          },
          {
            "duration": 0.125,
            "durationTicks": 24,
            "midi": 52,
            "name": "E3",
            "ticks": 10296,
            "time": 53.625,
            "velocity": 0.5039370078740157
          },
          {
            "duration": 0.125,
            "durationTicks": 24,
            "midi": 61,
            "name": "C#4",
            "ticks": 10296,
            "time": 53.625,
            "velocity": 0.5039370078740157
          },
          {
            "duration": 0.125,
            "durationTicks": 24,
            "midi": 64,
            "name": "E4",
            "ticks": 10296,
            "time": 53.625,
            "velocity": 0.5039370078740157
          },
          {
            "duration": 0.125,
            "durationTicks": 24,
            "midi": 73,
            "name": "C#5",
            "ticks": 10296,
            "time": 53.625,
            "velocity": 0.5039370078740157
          },
          {
            "duration": 0.125,
            "durationTicks": 24,
            "midi": 49,
            "name": "C#3",
            "ticks": 10320,
            "time": 53.75,
            "velocity": 0.5039370078740157
          },
          {
            "duration": 0.125,
            "durationTicks": 24,
            "midi": 62,
            "name": "D4",
            "ticks": 10320,
            "time": 53.75,
            "velocity": 0.5039370078740157
          },
          {
            "duration": 0.125,
            "durationTicks": 24,
            "midi": 66,
            "name": "F#4",
            "ticks": 10320,
            "time": 53.75,
            "velocity": 0.5039370078740157
          },
          {
            "duration": 0.125,
            "durationTicks": 24,
            "midi": 74,
            "name": "D5",
            "ticks": 10320,
            "time": 53.75,
            "velocity": 0.5039370078740157
          },
          {
            "duration": 0.125,
            "durationTicks": 24,
            "midi": 43,
            "name": "G2",
            "ticks": 10344,
            "time": 53.875,
            "velocity": 0.5039370078740157
          },
          {
            "duration": 0.25,
            "durationTicks": 48,
            "midi": 64,
            "name": "E4",
            "ticks": 10344,
            "time": 53.875,
            "velocity": 0.5039370078740157
          },
          {
            "duration": 0.25,
            "durationTicks": 48,
            "midi": 67,
            "name": "G4",
            "ticks": 10344,
            "time": 53.875,
            "velocity": 0.5039370078740157
          },
          {
            "duration": 0.25,
            "durationTicks": 48,
            "midi": 76,
            "name": "E5",
            "ticks": 10344,
            "time": 53.875,
            "velocity": 0.5039370078740157
          },
          {
            "duration": 0.25,
            "durationTicks": 48,
            "midi": 30,
            "name": "F#1",
            "ticks": 10368,
            "time": 54,
            "velocity": 0.5039370078740157
          },
          {
            "duration": 0.25,
            "durationTicks": 48,
            "midi": 42,
            "name": "F#2",
            "ticks": 10368,
            "time": 54,
            "velocity": 0.5039370078740157
          },
          {
            "duration": 0.125,
            "durationTicks": 24,
            "midi": 64,
            "name": "E4",
            "ticks": 10392,
            "time": 54.125,
            "velocity": 0.5039370078740157
          },
          {
            "duration": 0.125,
            "durationTicks": 24,
            "midi": 69,
            "name": "A4",
            "ticks": 10392,
            "time": 54.125,
            "velocity": 0.5039370078740157
          },
          {
            "duration": 0.125,
            "durationTicks": 24,
            "midi": 76,
            "name": "E5",
            "ticks": 10392,
            "time": 54.125,
            "velocity": 0.5039370078740157
          },
          {
            "duration": 0.125,
            "durationTicks": 24,
            "midi": 42,
            "name": "F#2",
            "ticks": 10416,
            "time": 54.25,
            "velocity": 0.5039370078740157
          },
          {
            "duration": 0.25,
            "durationTicks": 48,
            "midi": 64,
            "name": "E4",
            "ticks": 10416,
            "time": 54.25,
            "velocity": 0.5039370078740157
          },
          {
            "duration": 0.25,
            "durationTicks": 48,
            "midi": 69,
            "name": "A4",
            "ticks": 10416,
            "time": 54.25,
            "velocity": 0.5039370078740157
          },
          {
            "duration": 0.25,
            "durationTicks": 48,
            "midi": 76,
            "name": "E5",
            "ticks": 10416,
            "time": 54.25,
            "velocity": 0.5039370078740157
          },
          {
            "duration": 0.125,
            "durationTicks": 24,
            "midi": 49,
            "name": "C#3",
            "ticks": 10440,
            "time": 54.375,
            "velocity": 0.5039370078740157
          },
          {
            "duration": 0.375,
            "durationTicks": 72,
            "midi": 52,
            "name": "E3",
            "ticks": 10464,
            "time": 54.5,
            "velocity": 0.5039370078740157
          },
          {
            "duration": 0.375,
            "durationTicks": 72,
            "midi": 57,
            "name": "A3",
            "ticks": 10464,
            "time": 54.5,
            "velocity": 0.5039370078740157
          },
          {
            "duration": 0.25,
            "durationTicks": 48,
            "midi": 64,
            "name": "E4",
            "ticks": 10464,
            "time": 54.5,
            "velocity": 0.5039370078740157
          },
          {
            "duration": 0.25,
            "durationTicks": 48,
            "midi": 69,
            "name": "A4",
            "ticks": 10464,
            "time": 54.5,
            "velocity": 0.5039370078740157
          },
          {
            "duration": 0.25,
            "durationTicks": 48,
            "midi": 73,
            "name": "C#5",
            "ticks": 10464,
            "time": 54.5,
            "velocity": 0.5039370078740157
          },
          {
            "duration": 0.25,
            "durationTicks": 48,
            "midi": 76,
            "name": "E5",
            "ticks": 10464,
            "time": 54.5,
            "velocity": 0.5039370078740157
          },
          {
            "duration": 0.125,
            "durationTicks": 24,
            "midi": 61,
            "name": "C#4",
            "ticks": 10512,
            "time": 54.75,
            "velocity": 0.5039370078740157
          },
          {
            "duration": 0.125,
            "durationTicks": 24,
            "midi": 73,
            "name": "C#5",
            "ticks": 10512,
            "time": 54.75,
            "velocity": 0.5039370078740157
          },
          {
            "duration": 0.125,
            "durationTicks": 24,
            "midi": 47,
            "name": "B2",
            "ticks": 10536,
            "time": 54.875,
            "velocity": 0.5039370078740157
          },
          {
            "duration": 0.125,
            "durationTicks": 24,
            "midi": 54,
            "name": "F#3",
            "ticks": 10536,
            "time": 54.875,
            "velocity": 0.5039370078740157
          },
          {
            "duration": 0.125,
            "durationTicks": 24,
            "midi": 57,
            "name": "A3",
            "ticks": 10536,
            "time": 54.875,
            "velocity": 0.5039370078740157
          },
          {
            "duration": 0.375,
            "durationTicks": 72,
            "midi": 62,
            "name": "D4",
            "ticks": 10536,
            "time": 54.875,
            "velocity": 0.5039370078740157
          },
          {
            "duration": 0.375,
            "durationTicks": 72,
            "midi": 66,
            "name": "F#4",
            "ticks": 10536,
            "time": 54.875,
            "velocity": 0.5039370078740157
          },
          {
            "duration": 0.375,
            "durationTicks": 72,
            "midi": 69,
            "name": "A4",
            "ticks": 10536,
            "time": 54.875,
            "velocity": 0.5039370078740157
          },
          {
            "duration": 0.375,
            "durationTicks": 72,
            "midi": 74,
            "name": "D5",
            "ticks": 10536,
            "time": 54.875,
            "velocity": 0.5039370078740157
          },
          {
            "duration": 0.125,
            "durationTicks": 24,
            "midi": 47,
            "name": "B2",
            "ticks": 10584,
            "time": 55.125,
            "velocity": 0.5039370078740157
          },
          {
            "duration": 0.125,
            "durationTicks": 24,
            "midi": 54,
            "name": "F#3",
            "ticks": 10584,
            "time": 55.125,
            "velocity": 0.5039370078740157
          },
          {
            "duration": 0.125,
            "durationTicks": 24,
            "midi": 57,
            "name": "A3",
            "ticks": 10584,
            "time": 55.125,
            "velocity": 0.5039370078740157
          },
          {
            "duration": 0.125,
            "durationTicks": 24,
            "midi": 47,
            "name": "B2",
            "ticks": 10632,
            "time": 55.375,
            "velocity": 0.5039370078740157
          },
          {
            "duration": 0.125,
            "durationTicks": 24,
            "midi": 45,
            "name": "A2",
            "ticks": 10656,
            "time": 55.5,
            "velocity": 0.5039370078740157
          },
          {
            "duration": 0.125,
            "durationTicks": 24,
            "midi": 59,
            "name": "B3",
            "ticks": 10656,
            "time": 55.5,
            "velocity": 0.5039370078740157
          },
          {
            "duration": 0.125,
            "durationTicks": 24,
            "midi": 71,
            "name": "B4",
            "ticks": 10656,
            "time": 55.5,
            "velocity": 0.5039370078740157
          },
          {
            "duration": 0.125,
            "durationTicks": 24,
            "midi": 57,
            "name": "A3",
            "ticks": 10680,
            "time": 55.625,
            "velocity": 0.5039370078740157
          },
          {
            "duration": 0.125,
            "durationTicks": 24,
            "midi": 62,
            "name": "D4",
            "ticks": 10680,
            "time": 55.625,
            "velocity": 0.5039370078740157
          },
          {
            "duration": 0.125,
            "durationTicks": 24,
            "midi": 74,
            "name": "D5",
            "ticks": 10680,
            "time": 55.625,
            "velocity": 0.5039370078740157
          },
          {
            "duration": 0.125,
            "durationTicks": 24,
            "midi": 54,
            "name": "F#3",
            "ticks": 10704,
            "time": 55.75,
            "velocity": 0.5039370078740157
          },
          {
            "duration": 0.125,
            "durationTicks": 24,
            "midi": 45,
            "name": "A2",
            "ticks": 10728,
            "time": 55.875,
            "velocity": 0.5039370078740157
          },
          {
            "duration": 0.375,
            "durationTicks": 72,
            "midi": 69,
            "name": "A4",
            "ticks": 10728,
            "time": 55.875,
            "velocity": 0.5039370078740157
          },
          {
            "duration": 0.375,
            "durationTicks": 72,
            "midi": 74,
            "name": "D5",
            "ticks": 10728,
            "time": 55.875,
            "velocity": 0.5039370078740157
          },
          {
            "duration": 0.375,
            "durationTicks": 72,
            "midi": 81,
            "name": "A5",
            "ticks": 10728,
            "time": 55.875,
            "velocity": 0.5039370078740157
          },
          {
            "duration": 0.25,
            "durationTicks": 48,
            "midi": 43,
            "name": "G2",
            "ticks": 10752,
            "time": 56,
            "velocity": 0.5039370078740157
          },
          {
            "duration": 0.125,
            "durationTicks": 24,
            "midi": 54,
            "name": "F#3",
            "ticks": 10800,
            "time": 56.25,
            "velocity": 0.5039370078740157
          },
          {
            "duration": 0.25,
            "durationTicks": 48,
            "midi": 67,
            "name": "G4",
            "ticks": 10800,
            "time": 56.25,
            "velocity": 0.5039370078740157
          },
          {
            "duration": 0.25,
            "durationTicks": 48,
            "midi": 71,
            "name": "B4",
            "ticks": 10800,
            "time": 56.25,
            "velocity": 0.5039370078740157
          },
          {
            "duration": 0.25,
            "durationTicks": 48,
            "midi": 79,
            "name": "G5",
            "ticks": 10800,
            "time": 56.25,
            "velocity": 0.5039370078740157
          },
          {
            "duration": 0.125,
            "durationTicks": 24,
            "midi": 57,
            "name": "A3",
            "ticks": 10824,
            "time": 56.375,
            "velocity": 0.5039370078740157
          },
          {
            "duration": 0.125,
            "durationTicks": 24,
            "midi": 59,
            "name": "B3",
            "ticks": 10848,
            "time": 56.5,
            "velocity": 0.5039370078740157
          },
          {
            "duration": 0.125,
            "durationTicks": 24,
            "midi": 62,
            "name": "D4",
            "ticks": 10848,
            "time": 56.5,
            "velocity": 0.5039370078740157
          },
          {
            "duration": 0.25,
            "durationTicks": 48,
            "midi": 66,
            "name": "F#4",
            "ticks": 10848,
            "time": 56.5,
            "velocity": 0.5039370078740157
          },
          {
            "duration": 0.25,
            "durationTicks": 48,
            "midi": 71,
            "name": "B4",
            "ticks": 10848,
            "time": 56.5,
            "velocity": 0.5039370078740157
          },
          {
            "duration": 0.25,
            "durationTicks": 48,
            "midi": 78,
            "name": "F#5",
            "ticks": 10848,
            "time": 56.5,
            "velocity": 0.5039370078740157
          },
          {
            "duration": 0.125,
            "durationTicks": 24,
            "midi": 54,
            "name": "F#3",
            "ticks": 10872,
            "time": 56.625,
            "velocity": 0.5039370078740157
          },
          {
            "duration": 0.125,
            "durationTicks": 24,
            "midi": 57,
            "name": "A3",
            "ticks": 10872,
            "time": 56.625,
            "velocity": 0.5039370078740157
          },
          {
            "duration": 0.125,
            "durationTicks": 24,
            "midi": 59,
            "name": "B3",
            "ticks": 10872,
            "time": 56.625,
            "velocity": 0.5039370078740157
          },
          {
            "duration": 0.125,
            "durationTicks": 24,
            "midi": 62,
            "name": "D4",
            "ticks": 10872,
            "time": 56.625,
            "velocity": 0.5039370078740157
          },
          {
            "duration": 0.125,
            "durationTicks": 24,
            "midi": 67,
            "name": "G4",
            "ticks": 10896,
            "time": 56.75,
            "velocity": 0.5039370078740157
          },
          {
            "duration": 0.125,
            "durationTicks": 24,
            "midi": 71,
            "name": "B4",
            "ticks": 10896,
            "time": 56.75,
            "velocity": 0.5039370078740157
          },
          {
            "duration": 0.125,
            "durationTicks": 24,
            "midi": 79,
            "name": "G5",
            "ticks": 10896,
            "time": 56.75,
            "velocity": 0.5039370078740157
          },
          {
            "duration": 0.125,
            "durationTicks": 24,
            "midi": 52,
            "name": "E3",
            "ticks": 10920,
            "time": 56.875,
            "velocity": 0.5039370078740157
          },
          {
            "duration": 0.125,
            "durationTicks": 24,
            "midi": 54,
            "name": "F#3",
            "ticks": 10920,
            "time": 56.875,
            "velocity": 0.5039370078740157
          },
          {
            "duration": 0,
            "durationTicks": 0,
            "midi": 57,
            "name": "A3",
            "ticks": 10920,
            "time": 56.875,
            "velocity": 0.5039370078740157
          },
          {
            "duration": 0.25,
            "durationTicks": 48,
            "midi": 61,
            "name": "C#4",
            "ticks": 10920,
            "time": 56.875,
            "velocity": 0.5039370078740157
          },
          {
            "duration": 0.125,
            "durationTicks": 24,
            "midi": 66,
            "name": "F#4",
            "ticks": 10920,
            "time": 56.875,
            "velocity": 0.5039370078740157
          },
          {
            "duration": 0.25,
            "durationTicks": 48,
            "midi": 71,
            "name": "B4",
            "ticks": 10920,
            "time": 56.875,
            "velocity": 0.5039370078740157
          },
          {
            "duration": 0.25,
            "durationTicks": 48,
            "midi": 78,
            "name": "F#5",
            "ticks": 10920,
            "time": 56.875,
            "velocity": 0.5039370078740157
          },
          {
            "duration": 0.125,
            "durationTicks": 24,
            "midi": 52,
            "name": "E3",
            "ticks": 10944,
            "time": 57,
            "velocity": 0.5039370078740157
          },
          {
            "duration": 0.125,
            "durationTicks": 24,
            "midi": 57,
            "name": "A3",
            "ticks": 10944,
            "time": 57,
            "velocity": 0.5039370078740157
          },
          {
            "duration": 0.125,
            "durationTicks": 24,
            "midi": 52,
            "name": "E3",
            "ticks": 10968,
            "time": 57.125,
            "velocity": 0.5039370078740157
          },
          {
            "duration": 0.125,
            "durationTicks": 24,
            "midi": 54,
            "name": "F#3",
            "ticks": 10968,
            "time": 57.125,
            "velocity": 0.5039370078740157
          },
          {
            "duration": 0.125,
            "durationTicks": 24,
            "midi": 57,
            "name": "A3",
            "ticks": 10968,
            "time": 57.125,
            "velocity": 0.5039370078740157
          },
          {
            "duration": 0.375,
            "durationTicks": 72,
            "midi": 62,
            "name": "D4",
            "ticks": 10968,
            "time": 57.125,
            "velocity": 0.5039370078740157
          },
          {
            "duration": 0.375,
            "durationTicks": 72,
            "midi": 66,
            "name": "F#4",
            "ticks": 10968,
            "time": 57.125,
            "velocity": 0.5039370078740157
          },
          {
            "duration": 0.375,
            "durationTicks": 72,
            "midi": 74,
            "name": "D5",
            "ticks": 10968,
            "time": 57.125,
            "velocity": 0.5039370078740157
          },
          {
            "duration": 0.25,
            "durationTicks": 48,
            "midi": 52,
            "name": "E3",
            "ticks": 10992,
            "time": 57.25,
            "velocity": 0.5039370078740157
          },
          {
            "duration": 0.25,
            "durationTicks": 48,
            "midi": 54,
            "name": "F#3",
            "ticks": 10992,
            "time": 57.25,
            "velocity": 0.5039370078740157
          },
          {
            "duration": 0.125,
            "durationTicks": 24,
            "midi": 57,
            "name": "A3",
            "ticks": 10992,
            "time": 57.25,
            "velocity": 0.5039370078740157
          },
          {
            "duration": 0.25,
            "durationTicks": 48,
            "midi": 42,
            "name": "F#2",
            "ticks": 11040,
            "time": 57.5,
            "velocity": 0.5039370078740157
          },
          {
            "duration": 0.25,
            "durationTicks": 48,
            "midi": 49,
            "name": "C#3",
            "ticks": 11040,
            "time": 57.5,
            "velocity": 0.5039370078740157
          },
          {
            "duration": 0.25,
            "durationTicks": 48,
            "midi": 54,
            "name": "F#3",
            "ticks": 11040,
            "time": 57.5,
            "velocity": 0.5039370078740157
          },
          {
            "duration": 0.25,
            "durationTicks": 48,
            "midi": 59,
            "name": "B3",
            "ticks": 11040,
            "time": 57.5,
            "velocity": 0.5039370078740157
          },
          {
            "duration": 0.25,
            "durationTicks": 48,
            "midi": 64,
            "name": "E4",
            "ticks": 11040,
            "time": 57.5,
            "velocity": 0.5039370078740157
          },
          {
            "duration": 0.25,
            "durationTicks": 48,
            "midi": 71,
            "name": "B4",
            "ticks": 11040,
            "time": 57.5,
            "velocity": 0.5039370078740157
          },
          {
            "duration": 0.25,
            "durationTicks": 48,
            "midi": 57,
            "name": "A3",
            "ticks": 11088,
            "time": 57.75,
            "velocity": 0.5039370078740157
          },
          {
            "duration": 0.25,
            "durationTicks": 48,
            "midi": 62,
            "name": "D4",
            "ticks": 11088,
            "time": 57.75,
            "velocity": 0.5039370078740157
          },
          {
            "duration": 0.25,
            "durationTicks": 48,
            "midi": 66,
            "name": "F#4",
            "ticks": 11088,
            "time": 57.75,
            "velocity": 0.5039370078740157
          },
          {
            "duration": 0.25,
            "durationTicks": 48,
            "midi": 74,
            "name": "D5",
            "ticks": 11088,
            "time": 57.75,
            "velocity": 0.5039370078740157
          },
          {
            "duration": 0.25,
            "durationTicks": 48,
            "midi": 47,
            "name": "B2",
            "ticks": 11136,
            "time": 58,
            "velocity": 0.5039370078740157
          },
          {
            "duration": 0.25,
            "durationTicks": 48,
            "midi": 52,
            "name": "E3",
            "ticks": 11136,
            "time": 58,
            "velocity": 0.5039370078740157
          },
          {
            "duration": 0.25,
            "durationTicks": 48,
            "midi": 57,
            "name": "A3",
            "ticks": 11136,
            "time": 58,
            "velocity": 0.5039370078740157
          },
          {
            "duration": 0.25,
            "durationTicks": 48,
            "midi": 61,
            "name": "C#4",
            "ticks": 11136,
            "time": 58,
            "velocity": 0.5039370078740157
          },
          {
            "duration": 0.25,
            "durationTicks": 48,
            "midi": 66,
            "name": "F#4",
            "ticks": 11136,
            "time": 58,
            "velocity": 0.5039370078740157
          },
          {
            "duration": 0.25,
            "durationTicks": 48,
            "midi": 69,
            "name": "A4",
            "ticks": 11136,
            "time": 58,
            "velocity": 0.5039370078740157
          },
          {
            "duration": 0.25,
            "durationTicks": 48,
            "midi": 73,
            "name": "C#5",
            "ticks": 11136,
            "time": 58,
            "velocity": 0.5039370078740157
          },
          {
            "duration": 0.25,
            "durationTicks": 48,
            "midi": 78,
            "name": "F#5",
            "ticks": 11136,
            "time": 58,
            "velocity": 0.5039370078740157
          },
          {
            "duration": 0.125,
            "durationTicks": 24,
            "midi": 47,
            "name": "B2",
            "ticks": 11184,
            "time": 58.25,
            "velocity": 0.5039370078740157
          },
          {
            "duration": 0.125,
            "durationTicks": 24,
            "midi": 67,
            "name": "G4",
            "ticks": 11184,
            "time": 58.25,
            "velocity": 0.5039370078740157
          },
          {
            "duration": 0.125,
            "durationTicks": 24,
            "midi": 79,
            "name": "G5",
            "ticks": 11184,
            "time": 58.25,
            "velocity": 0.5039370078740157
          },
          {
            "duration": 0.125,
            "durationTicks": 24,
            "midi": 35,
            "name": "B1",
            "ticks": 11208,
            "time": 58.375,
            "velocity": 0.5039370078740157
          },
          {
            "duration": 0.125,
            "durationTicks": 24,
            "midi": 66,
            "name": "F#4",
            "ticks": 11208,
            "time": 58.375,
            "velocity": 0.5039370078740157
          },
          {
            "duration": 0.125,
            "durationTicks": 24,
            "midi": 78,
            "name": "F#5",
            "ticks": 11208,
            "time": 58.375,
            "velocity": 0.5039370078740157
          },
          {
            "duration": 0.375,
            "durationTicks": 72,
            "midi": 48,
            "name": "C3",
            "ticks": 11256,
            "time": 58.625,
            "velocity": 0.5039370078740157
          },
          {
            "duration": 0.375,
            "durationTicks": 72,
            "midi": 53,
            "name": "F3",
            "ticks": 11256,
            "time": 58.625,
            "velocity": 0.5039370078740157
          },
          {
            "duration": 0.375,
            "durationTicks": 72,
            "midi": 58,
            "name": "A#3",
            "ticks": 11256,
            "time": 58.625,
            "velocity": 0.5039370078740157
          },
          {
            "duration": 0.375,
            "durationTicks": 72,
            "midi": 62,
            "name": "D4",
            "ticks": 11256,
            "time": 58.625,
            "velocity": 0.5039370078740157
          },
          {
            "duration": 0.25,
            "durationTicks": 48,
            "midi": 67,
            "name": "G4",
            "ticks": 11256,
            "time": 58.625,
            "velocity": 0.5039370078740157
          },
          {
            "duration": 0.25,
            "durationTicks": 48,
            "midi": 70,
            "name": "A#4",
            "ticks": 11256,
            "time": 58.625,
            "velocity": 0.5039370078740157
          },
          {
            "duration": 0.25,
            "durationTicks": 48,
            "midi": 74,
            "name": "D5",
            "ticks": 11256,
            "time": 58.625,
            "velocity": 0.5039370078740157
          },
          {
            "duration": 0.25,
            "durationTicks": 48,
            "midi": 79,
            "name": "G5",
            "ticks": 11256,
            "time": 58.625,
            "velocity": 0.5039370078740157
          },
          {
            "duration": 0.125,
            "durationTicks": 24,
            "midi": 67,
            "name": "G4",
            "ticks": 11304,
            "time": 58.875,
            "velocity": 0.5039370078740157
          },
          {
            "duration": 0.125,
            "durationTicks": 24,
            "midi": 79,
            "name": "G5",
            "ticks": 11304,
            "time": 58.875,
            "velocity": 0.5039370078740157
          },
          {
            "duration": 0.25,
            "durationTicks": 48,
            "midi": 47,
            "name": "B2",
            "ticks": 11328,
            "time": 59,
            "velocity": 0.5039370078740157
          },
          {
            "duration": 0.25,
            "durationTicks": 48,
            "midi": 52,
            "name": "E3",
            "ticks": 11328,
            "time": 59,
            "velocity": 0.5039370078740157
          },
          {
            "duration": 0.25,
            "durationTicks": 48,
            "midi": 57,
            "name": "A3",
            "ticks": 11328,
            "time": 59,
            "velocity": 0.5039370078740157
          },
          {
            "duration": 0.25,
            "durationTicks": 48,
            "midi": 61,
            "name": "C#4",
            "ticks": 11328,
            "time": 59,
            "velocity": 0.5039370078740157
          },
          {
            "duration": 0.25,
            "durationTicks": 48,
            "midi": 66,
            "name": "F#4",
            "ticks": 11328,
            "time": 59,
            "velocity": 0.5039370078740157
          },
          {
            "duration": 0.25,
            "durationTicks": 48,
            "midi": 69,
            "name": "A4",
            "ticks": 11328,
            "time": 59,
            "velocity": 0.5039370078740157
          },
          {
            "duration": 0.25,
            "durationTicks": 48,
            "midi": 73,
            "name": "C#5",
            "ticks": 11328,
            "time": 59,
            "velocity": 0.5039370078740157
          },
          {
            "duration": 0.25,
            "durationTicks": 48,
            "midi": 78,
            "name": "F#5",
            "ticks": 11328,
            "time": 59,
            "velocity": 0.5039370078740157
          },
          {
            "duration": 0.125,
            "durationTicks": 24,
            "midi": 47,
            "name": "B2",
            "ticks": 11376,
            "time": 59.25,
            "velocity": 0.5039370078740157
          },
          {
            "duration": 0.25,
            "durationTicks": 48,
            "midi": 62,
            "name": "D4",
            "ticks": 11376,
            "time": 59.25,
            "velocity": 0.5039370078740157
          },
          {
            "duration": 0.25,
            "durationTicks": 48,
            "midi": 74,
            "name": "D5",
            "ticks": 11376,
            "time": 59.25,
            "velocity": 0.5039370078740157
          },
          {
            "duration": 0.125,
            "durationTicks": 24,
            "midi": 35,
            "name": "B1",
            "ticks": 11400,
            "time": 59.375,
            "velocity": 0.5039370078740157
          },
          {
            "duration": 0.25,
            "durationTicks": 48,
            "midi": 64,
            "name": "E4",
            "ticks": 11424,
            "time": 59.5,
            "velocity": 0.5039370078740157
          },
          {
            "duration": 0.25,
            "durationTicks": 48,
            "midi": 69,
            "name": "A4",
            "ticks": 11424,
            "time": 59.5,
            "velocity": 0.5039370078740157
          },
          {
            "duration": 0.25,
            "durationTicks": 48,
            "midi": 76,
            "name": "E5",
            "ticks": 11424,
            "time": 59.5,
            "velocity": 0.5039370078740157
          },
          {
            "duration": 0.375,
            "durationTicks": 72,
            "midi": 42,
            "name": "F#2",
            "ticks": 11448,
            "time": 59.625,
            "velocity": 0.5039370078740157
          },
          {
            "duration": 0.375,
            "durationTicks": 72,
            "midi": 50,
            "name": "D3",
            "ticks": 11448,
            "time": 59.625,
            "velocity": 0.5039370078740157
          },
          {
            "duration": 0.375,
            "durationTicks": 72,
            "midi": 57,
            "name": "A3",
            "ticks": 11448,
            "time": 59.625,
            "velocity": 0.5039370078740157
          },
          {
            "duration": 0.5,
            "durationTicks": 96,
            "midi": 64,
            "name": "E4",
            "ticks": 11472,
            "time": 59.75,
            "velocity": 0.5039370078740157
          },
          {
            "duration": 0.5,
            "durationTicks": 96,
            "midi": 69,
            "name": "A4",
            "ticks": 11472,
            "time": 59.75,
            "velocity": 0.5039370078740157
          },
          {
            "duration": 0.5,
            "durationTicks": 96,
            "midi": 76,
            "name": "E5",
            "ticks": 11472,
            "time": 59.75,
            "velocity": 0.5039370078740157
          },
          {
            "duration": 0.5,
            "durationTicks": 96,
            "midi": 50,
            "name": "D3",
            "ticks": 11520,
            "time": 60,
            "velocity": 0.5039370078740157
          },
          {
            "duration": 0.5,
            "durationTicks": 96,
            "midi": 54,
            "name": "F#3",
            "ticks": 11520,
            "time": 60,
            "velocity": 0.5039370078740157
          },
          {
            "duration": 0.5,
            "durationTicks": 96,
            "midi": 55,
            "name": "G3",
            "ticks": 11520,
            "time": 60,
            "velocity": 0.5039370078740157
          },
          {
            "duration": 0.5,
            "durationTicks": 96,
            "midi": 59,
            "name": "B3",
            "ticks": 11520,
            "time": 60,
            "velocity": 0.5039370078740157
          },
          {
            "duration": 0.25,
            "durationTicks": 48,
            "midi": 62,
            "name": "D4",
            "ticks": 11568,
            "time": 60.25,
            "velocity": 0.5039370078740157
          },
          {
            "duration": 0.25,
            "durationTicks": 48,
            "midi": 67,
            "name": "G4",
            "ticks": 11568,
            "time": 60.25,
            "velocity": 0.5039370078740157
          },
          {
            "duration": 0.25,
            "durationTicks": 48,
            "midi": 74,
            "name": "D5",
            "ticks": 11568,
            "time": 60.25,
            "velocity": 0.5039370078740157
          },
          {
            "duration": 0.25,
            "durationTicks": 48,
            "midi": 31,
            "name": "G1",
            "ticks": 11616,
            "time": 60.5,
            "velocity": 0.5039370078740157
          },
          {
            "duration": 0.25,
            "durationTicks": 48,
            "midi": 43,
            "name": "G2",
            "ticks": 11616,
            "time": 60.5,
            "velocity": 0.5039370078740157
          },
          {
            "duration": 0.375,
            "durationTicks": 72,
            "midi": 79,
            "name": "G5",
            "ticks": 11616,
            "time": 60.5,
            "velocity": 0.5039370078740157
          },
          {
            "duration": 0.375,
            "durationTicks": 72,
            "midi": 83,
            "name": "B5",
            "ticks": 11616,
            "time": 60.5,
            "velocity": 0.5039370078740157
          },
          {
            "duration": 0.375,
            "durationTicks": 72,
            "midi": 91,
            "name": "G6",
            "ticks": 11616,
            "time": 60.5,
            "velocity": 0.5039370078740157
          },
          {
            "duration": 0.125,
            "durationTicks": 24,
            "midi": 52,
            "name": "E3",
            "ticks": 11688,
            "time": 60.875,
            "velocity": 0.5039370078740157
          },
          {
            "duration": 0.125,
            "durationTicks": 24,
            "midi": 54,
            "name": "F#3",
            "ticks": 11688,
            "time": 60.875,
            "velocity": 0.5039370078740157
          },
          {
            "duration": 0.25,
            "durationTicks": 48,
            "midi": 57,
            "name": "A3",
            "ticks": 11688,
            "time": 60.875,
            "velocity": 0.5039370078740157
          },
          {
            "duration": 0.25,
            "durationTicks": 48,
            "midi": 61,
            "name": "C#4",
            "ticks": 11688,
            "time": 60.875,
            "velocity": 0.5039370078740157
          },
          {
            "duration": 0.375,
            "durationTicks": 72,
            "midi": 78,
            "name": "F#5",
            "ticks": 11688,
            "time": 60.875,
            "velocity": 0.5039370078740157
          },
          {
            "duration": 0.375,
            "durationTicks": 72,
            "midi": 81,
            "name": "A5",
            "ticks": 11688,
            "time": 60.875,
            "velocity": 0.5039370078740157
          },
          {
            "duration": 0.375,
            "durationTicks": 72,
            "midi": 90,
            "name": "F#6",
            "ticks": 11688,
            "time": 60.875,
            "velocity": 0.5039370078740157
          },
          {
            "duration": 0.125,
            "durationTicks": 24,
            "midi": 52,
            "name": "E3",
            "ticks": 11712,
            "time": 61,
            "velocity": 0.5039370078740157
          },
          {
            "duration": 0.125,
            "durationTicks": 24,
            "midi": 54,
            "name": "F#3",
            "ticks": 11712,
            "time": 61,
            "velocity": 0.5039370078740157
          },
          {
            "duration": 0.125,
            "durationTicks": 24,
            "midi": 52,
            "name": "E3",
            "ticks": 11736,
            "time": 61.125,
            "velocity": 0.5039370078740157
          },
          {
            "duration": 0.125,
            "durationTicks": 24,
            "midi": 54,
            "name": "F#3",
            "ticks": 11736,
            "time": 61.125,
            "velocity": 0.5039370078740157
          },
          {
            "duration": 0.125,
            "durationTicks": 24,
            "midi": 57,
            "name": "A3",
            "ticks": 11736,
            "time": 61.125,
            "velocity": 0.5039370078740157
          },
          {
            "duration": 0.125,
            "durationTicks": 24,
            "midi": 61,
            "name": "C#4",
            "ticks": 11736,
            "time": 61.125,
            "velocity": 0.5039370078740157
          },
          {
            "duration": 0.25,
            "durationTicks": 48,
            "midi": 52,
            "name": "E3",
            "ticks": 11760,
            "time": 61.25,
            "velocity": 0.5039370078740157
          },
          {
            "duration": 0.25,
            "durationTicks": 48,
            "midi": 54,
            "name": "F#3",
            "ticks": 11760,
            "time": 61.25,
            "velocity": 0.5039370078740157
          },
          {
            "duration": 0.25,
            "durationTicks": 48,
            "midi": 57,
            "name": "A3",
            "ticks": 11760,
            "time": 61.25,
            "velocity": 0.5039370078740157
          },
          {
            "duration": 0.125,
            "durationTicks": 24,
            "midi": 61,
            "name": "C#4",
            "ticks": 11760,
            "time": 61.25,
            "velocity": 0.5039370078740157
          },
          {
            "duration": 0.375,
            "durationTicks": 72,
            "midi": 33,
            "name": "A1",
            "ticks": 11808,
            "time": 61.5,
            "velocity": 0.5039370078740157
          },
          {
            "duration": 0.375,
            "durationTicks": 72,
            "midi": 45,
            "name": "A2",
            "ticks": 11808,
            "time": 61.5,
            "velocity": 0.5039370078740157
          },
          {
            "duration": 0.375,
            "durationTicks": 72,
            "midi": 73,
            "name": "C#5",
            "ticks": 11808,
            "time": 61.5,
            "velocity": 0.5039370078740157
          },
          {
            "duration": 0.375,
            "durationTicks": 72,
            "midi": 76,
            "name": "E5",
            "ticks": 11808,
            "time": 61.5,
            "velocity": 0.5039370078740157
          },
          {
            "duration": 0.375,
            "durationTicks": 72,
            "midi": 85,
            "name": "C#6",
            "ticks": 11808,
            "time": 61.5,
            "velocity": 0.5039370078740157
          },
          {
            "duration": 0.375,
            "durationTicks": 72,
            "midi": 54,
            "name": "F#3",
            "ticks": 11880,
            "time": 61.875,
            "velocity": 0.5039370078740157
          },
          {
            "duration": 0.375,
            "durationTicks": 72,
            "midi": 57,
            "name": "A3",
            "ticks": 11880,
            "time": 61.875,
            "velocity": 0.5039370078740157
          },
          {
            "duration": 0.125,
            "durationTicks": 24,
            "midi": 59,
            "name": "B3",
            "ticks": 11880,
            "time": 61.875,
            "velocity": 0.5039370078740157
          },
          {
            "duration": 0.375,
            "durationTicks": 72,
            "midi": 62,
            "name": "D4",
            "ticks": 11880,
            "time": 61.875,
            "velocity": 0.5039370078740157
          },
          {
            "duration": 0.375,
            "durationTicks": 72,
            "midi": 74,
            "name": "D5",
            "ticks": 11880,
            "time": 61.875,
            "velocity": 0.5039370078740157
          },
          {
            "duration": 0.375,
            "durationTicks": 72,
            "midi": 78,
            "name": "F#5",
            "ticks": 11880,
            "time": 61.875,
            "velocity": 0.5039370078740157
          },
          {
            "duration": 0.375,
            "durationTicks": 72,
            "midi": 86,
            "name": "D6",
            "ticks": 11880,
            "time": 61.875,
            "velocity": 0.5039370078740157
          },
          {
            "duration": 0.25,
            "durationTicks": 48,
            "midi": 59,
            "name": "B3",
            "ticks": 11904,
            "time": 62,
            "velocity": 0.5039370078740157
          },
          {
            "duration": 0.25,
            "durationTicks": 48,
            "midi": 35,
            "name": "B1",
            "ticks": 11952,
            "time": 62.25,
            "velocity": 0.5039370078740157
          },
          {
            "duration": 0.25,
            "durationTicks": 48,
            "midi": 47,
            "name": "B2",
            "ticks": 11952,
            "time": 62.25,
            "velocity": 0.5039370078740157
          },
          {
            "duration": 0.125,
            "durationTicks": 24,
            "midi": 50,
            "name": "D3",
            "ticks": 12000,
            "time": 62.5,
            "velocity": 0.5039370078740157
          },
          {
            "duration": 0.375,
            "durationTicks": 72,
            "midi": 79,
            "name": "G5",
            "ticks": 12000,
            "time": 62.5,
            "velocity": 0.5039370078740157
          },
          {
            "duration": 0.375,
            "durationTicks": 72,
            "midi": 83,
            "name": "B5",
            "ticks": 12000,
            "time": 62.5,
            "velocity": 0.5039370078740157
          },
          {
            "duration": 0.375,
            "durationTicks": 72,
            "midi": 91,
            "name": "G6",
            "ticks": 12000,
            "time": 62.5,
            "velocity": 0.5039370078740157
          },
          {
            "duration": 0.125,
            "durationTicks": 24,
            "midi": 54,
            "name": "F#3",
            "ticks": 12024,
            "time": 62.625,
            "velocity": 0.5039370078740157
          },
          {
            "duration": 0.125,
            "durationTicks": 24,
            "midi": 59,
            "name": "B3",
            "ticks": 12048,
            "time": 62.75,
            "velocity": 0.5039370078740157
          },
          {
            "duration": 0.25,
            "durationTicks": 48,
            "midi": 49,
            "name": "C#3",
            "ticks": 12072,
            "time": 62.875,
            "velocity": 0.5039370078740157
          },
          {
            "duration": 0.125,
            "durationTicks": 24,
            "midi": 52,
            "name": "E3",
            "ticks": 12072,
            "time": 62.875,
            "velocity": 0.5039370078740157
          },
          {
            "duration": 0.125,
            "durationTicks": 24,
            "midi": 54,
            "name": "F#3",
            "ticks": 12072,
            "time": 62.875,
            "velocity": 0.5039370078740157
          },
          {
            "duration": 0.25,
            "durationTicks": 48,
            "midi": 57,
            "name": "A3",
            "ticks": 12072,
            "time": 62.875,
            "velocity": 0.5039370078740157
          },
          {
            "duration": 0.375,
            "durationTicks": 72,
            "midi": 78,
            "name": "F#5",
            "ticks": 12072,
            "time": 62.875,
            "velocity": 0.5039370078740157
          },
          {
            "duration": 0.375,
            "durationTicks": 72,
            "midi": 81,
            "name": "A5",
            "ticks": 12072,
            "time": 62.875,
            "velocity": 0.5039370078740157
          },
          {
            "duration": 0.375,
            "durationTicks": 72,
            "midi": 90,
            "name": "F#6",
            "ticks": 12072,
            "time": 62.875,
            "velocity": 0.5039370078740157
          },
          {
            "duration": 0.125,
            "durationTicks": 24,
            "midi": 52,
            "name": "E3",
            "ticks": 12096,
            "time": 63,
            "velocity": 0.5039370078740157
          },
          {
            "duration": 0.125,
            "durationTicks": 24,
            "midi": 54,
            "name": "F#3",
            "ticks": 12096,
            "time": 63,
            "velocity": 0.5039370078740157
          },
          {
            "duration": 0.125,
            "durationTicks": 24,
            "midi": 42,
            "name": "F#2",
            "ticks": 12120,
            "time": 63.125,
            "velocity": 0.5039370078740157
          },
          {
            "duration": 0.25,
            "durationTicks": 48,
            "midi": 30,
            "name": "F#1",
            "ticks": 12144,
            "time": 63.25,
            "velocity": 0.5039370078740157
          },
          {
            "duration": 0.125,
            "durationTicks": 24,
            "midi": 57,
            "name": "A3",
            "ticks": 12192,
            "time": 63.5,
            "velocity": 0.5039370078740157
          },
          {
            "duration": 0.25,
            "durationTicks": 48,
            "midi": 73,
            "name": "C#5",
            "ticks": 12192,
            "time": 63.5,
            "velocity": 0.5039370078740157
          },
          {
            "duration": 0.25,
            "durationTicks": 48,
            "midi": 76,
            "name": "E5",
            "ticks": 12192,
            "time": 63.5,
            "velocity": 0.5039370078740157
          },
          {
            "duration": 0.25,
            "durationTicks": 48,
            "midi": 85,
            "name": "C#6",
            "ticks": 12192,
            "time": 63.5,
            "velocity": 0.5039370078740157
          },
          {
            "duration": 0.125,
            "durationTicks": 24,
            "midi": 59,
            "name": "B3",
            "ticks": 12216,
            "time": 63.625,
            "velocity": 0.5039370078740157
          },
          {
            "duration": 0.125,
            "durationTicks": 24,
            "midi": 54,
            "name": "F#3",
            "ticks": 12240,
            "time": 63.75,
            "velocity": 0.5039370078740157
          },
          {
            "duration": 0.125,
            "durationTicks": 24,
            "midi": 73,
            "name": "C#5",
            "ticks": 12240,
            "time": 63.75,
            "velocity": 0.5039370078740157
          },
          {
            "duration": 0.125,
            "durationTicks": 24,
            "midi": 76,
            "name": "E5",
            "ticks": 12240,
            "time": 63.75,
            "velocity": 0.5039370078740157
          },
          {
            "duration": 0.125,
            "durationTicks": 24,
            "midi": 85,
            "name": "C#6",
            "ticks": 12240,
            "time": 63.75,
            "velocity": 0.5039370078740157
          },
          {
            "duration": 0.125,
            "durationTicks": 24,
            "midi": 52,
            "name": "E3",
            "ticks": 12264,
            "time": 63.875,
            "velocity": 0.5039370078740157
          },
          {
            "duration": 0.375,
            "durationTicks": 72,
            "midi": 69,
            "name": "A4",
            "ticks": 12264,
            "time": 63.875,
            "velocity": 0.5039370078740157
          },
          {
            "duration": 0.375,
            "durationTicks": 72,
            "midi": 76,
            "name": "E5",
            "ticks": 12264,
            "time": 63.875,
            "velocity": 0.5039370078740157
          },
          {
            "duration": 0.125,
            "durationTicks": 24,
            "midi": 81,
            "name": "A5",
            "ticks": 12264,
            "time": 63.875,
            "velocity": 0.5039370078740157
          },
          {
            "duration": 0.25,
            "durationTicks": 48,
            "midi": 43,
            "name": "G2",
            "ticks": 12288,
            "time": 64,
            "velocity": 0.5039370078740157
          },
          {
            "duration": 0.25,
            "durationTicks": 48,
            "midi": 50,
            "name": "D3",
            "ticks": 12288,
            "time": 64,
            "velocity": 0.5039370078740157
          },
          {
            "duration": 0.25,
            "durationTicks": 48,
            "midi": 81,
            "name": "A5",
            "ticks": 12288,
            "time": 64,
            "velocity": 0.5039370078740157
          },
          {
            "duration": 0.125,
            "durationTicks": 24,
            "midi": 50,
            "name": "D3",
            "ticks": 12336,
            "time": 64.25,
            "velocity": 0.5039370078740157
          },
          {
            "duration": 0.125,
            "durationTicks": 24,
            "midi": 55,
            "name": "G3",
            "ticks": 12360,
            "time": 64.375,
            "velocity": 0.5039370078740157
          },
          {
            "duration": 0.25,
            "durationTicks": 48,
            "midi": 59,
            "name": "B3",
            "ticks": 12384,
            "time": 64.5,
            "velocity": 0.5039370078740157
          },
          {
            "duration": 0.25,
            "durationTicks": 48,
            "midi": 62,
            "name": "D4",
            "ticks": 12384,
            "time": 64.5,
            "velocity": 0.5039370078740157
          },
          {
            "duration": 0.375,
            "durationTicks": 72,
            "midi": 76,
            "name": "E5",
            "ticks": 12384,
            "time": 64.5,
            "velocity": 0.5039370078740157
          },
          {
            "duration": 0.375,
            "durationTicks": 72,
            "midi": 79,
            "name": "G5",
            "ticks": 12384,
            "time": 64.5,
            "velocity": 0.5039370078740157
          },
          {
            "duration": 0.375,
            "durationTicks": 72,
            "midi": 88,
            "name": "E6",
            "ticks": 12384,
            "time": 64.5,
            "velocity": 0.5039370078740157
          },
          {
            "duration": 0.125,
            "durationTicks": 24,
            "midi": 64,
            "name": "E4",
            "ticks": 12432,
            "time": 64.75,
            "velocity": 0.5039370078740157
          },
          {
            "duration": 0.25,
            "durationTicks": 48,
            "midi": 57,
            "name": "A3",
            "ticks": 12456,
            "time": 64.875,
            "velocity": 0.5039370078740157
          },
          {
            "duration": 0.125,
            "durationTicks": 24,
            "midi": 59,
            "name": "B3",
            "ticks": 12456,
            "time": 64.875,
            "velocity": 0.5039370078740157
          },
          {
            "duration": 0.125,
            "durationTicks": 24,
            "midi": 61,
            "name": "C#4",
            "ticks": 12456,
            "time": 64.875,
            "velocity": 0.5039370078740157
          },
          {
            "duration": 0.375,
            "durationTicks": 72,
            "midi": 74,
            "name": "D5",
            "ticks": 12456,
            "time": 64.875,
            "velocity": 0.5039370078740157
          },
          {
            "duration": 0.375,
            "durationTicks": 72,
            "midi": 78,
            "name": "F#5",
            "ticks": 12456,
            "time": 64.875,
            "velocity": 0.5039370078740157
          },
          {
            "duration": 0.375,
            "durationTicks": 72,
            "midi": 86,
            "name": "D6",
            "ticks": 12456,
            "time": 64.875,
            "velocity": 0.5039370078740157
          },
          {
            "duration": 0.125,
            "durationTicks": 24,
            "midi": 59,
            "name": "B3",
            "ticks": 12480,
            "time": 65,
            "velocity": 0.5039370078740157
          },
          {
            "duration": 0.125,
            "durationTicks": 24,
            "midi": 61,
            "name": "C#4",
            "ticks": 12480,
            "time": 65,
            "velocity": 0.5039370078740157
          },
          {
            "duration": 0.125,
            "durationTicks": 24,
            "midi": 57,
            "name": "A3",
            "ticks": 12504,
            "time": 65.125,
            "velocity": 0.5039370078740157
          },
          {
            "duration": 0.125,
            "durationTicks": 24,
            "midi": 59,
            "name": "B3",
            "ticks": 12504,
            "time": 65.125,
            "velocity": 0.5039370078740157
          },
          {
            "duration": 0.125,
            "durationTicks": 24,
            "midi": 61,
            "name": "C#4",
            "ticks": 12504,
            "time": 65.125,
            "velocity": 0.5039370078740157
          },
          {
            "duration": 0.25,
            "durationTicks": 48,
            "midi": 57,
            "name": "A3",
            "ticks": 12528,
            "time": 65.25,
            "velocity": 0.5039370078740157
          },
          {
            "duration": 0.25,
            "durationTicks": 48,
            "midi": 59,
            "name": "B3",
            "ticks": 12528,
            "time": 65.25,
            "velocity": 0.5039370078740157
          },
          {
            "duration": 0.125,
            "durationTicks": 24,
            "midi": 61,
            "name": "C#4",
            "ticks": 12528,
            "time": 65.25,
            "velocity": 0.5039370078740157
          },
          {
            "duration": 0.375,
            "durationTicks": 72,
            "midi": 33,
            "name": "A1",
            "ticks": 12576,
            "time": 65.5,
            "velocity": 0.5039370078740157
          },
          {
            "duration": 0.375,
            "durationTicks": 72,
            "midi": 45,
            "name": "A2",
            "ticks": 12576,
            "time": 65.5,
            "velocity": 0.5039370078740157
          },
          {
            "duration": 0.375,
            "durationTicks": 72,
            "midi": 73,
            "name": "C#5",
            "ticks": 12576,
            "time": 65.5,
            "velocity": 0.5039370078740157
          },
          {
            "duration": 0.375,
            "durationTicks": 72,
            "midi": 76,
            "name": "E5",
            "ticks": 12576,
            "time": 65.5,
            "velocity": 0.5039370078740157
          },
          {
            "duration": 0.375,
            "durationTicks": 72,
            "midi": 85,
            "name": "C#6",
            "ticks": 12576,
            "time": 65.5,
            "velocity": 0.5039370078740157
          },
          {
            "duration": 0.375,
            "durationTicks": 72,
            "midi": 54,
            "name": "F#3",
            "ticks": 12648,
            "time": 65.875,
            "velocity": 0.5039370078740157
          },
          {
            "duration": 0.375,
            "durationTicks": 72,
            "midi": 57,
            "name": "A3",
            "ticks": 12648,
            "time": 65.875,
            "velocity": 0.5039370078740157
          },
          {
            "duration": 0.375,
            "durationTicks": 72,
            "midi": 59,
            "name": "B3",
            "ticks": 12648,
            "time": 65.875,
            "velocity": 0.5039370078740157
          },
          {
            "duration": 0.375,
            "durationTicks": 72,
            "midi": 62,
            "name": "D4",
            "ticks": 12648,
            "time": 65.875,
            "velocity": 0.5039370078740157
          },
          {
            "duration": 0.125,
            "durationTicks": 24,
            "midi": 74,
            "name": "D5",
            "ticks": 12648,
            "time": 65.875,
            "velocity": 0.5039370078740157
          },
          {
            "duration": 0.125,
            "durationTicks": 24,
            "midi": 78,
            "name": "F#5",
            "ticks": 12648,
            "time": 65.875,
            "velocity": 0.5039370078740157
          },
          {
            "duration": 0.125,
            "durationTicks": 24,
            "midi": 86,
            "name": "D6",
            "ticks": 12648,
            "time": 65.875,
            "velocity": 0.5039370078740157
          },
          {
            "duration": 0.125,
            "durationTicks": 24,
            "midi": 47,
            "name": "B2",
            "ticks": 12720,
            "time": 66.25,
            "velocity": 0.5039370078740157
          },
          {
            "duration": 0.25,
            "durationTicks": 48,
            "midi": 62,
            "name": "D4",
            "ticks": 12720,
            "time": 66.25,
            "velocity": 0.5039370078740157
          },
          {
            "duration": 0.25,
            "durationTicks": 48,
            "midi": 66,
            "name": "F#4",
            "ticks": 12720,
            "time": 66.25,
            "velocity": 0.5039370078740157
          },
          {
            "duration": 0.25,
            "durationTicks": 48,
            "midi": 74,
            "name": "D5",
            "ticks": 12720,
            "time": 66.25,
            "velocity": 0.5039370078740157
          },
          {
            "duration": 0.375,
            "durationTicks": 72,
            "midi": 35,
            "name": "B1",
            "ticks": 12744,
            "time": 66.375,
            "velocity": 0.5039370078740157
          },
          {
            "duration": 0.25,
            "durationTicks": 48,
            "midi": 62,
            "name": "D4",
            "ticks": 12768,
            "time": 66.5,
            "velocity": 0.5039370078740157
          },
          {
            "duration": 0.25,
            "durationTicks": 48,
            "midi": 66,
            "name": "F#4",
            "ticks": 12768,
            "time": 66.5,
            "velocity": 0.5039370078740157
          },
          {
            "duration": 0.25,
            "durationTicks": 48,
            "midi": 74,
            "name": "D5",
            "ticks": 12768,
            "time": 66.5,
            "velocity": 0.5039370078740157
          },
          {
            "duration": 0.125,
            "durationTicks": 24,
            "midi": 47,
            "name": "B2",
            "ticks": 12816,
            "time": 66.75,
            "velocity": 0.5039370078740157
          },
          {
            "duration": 0.125,
            "durationTicks": 24,
            "midi": 64,
            "name": "E4",
            "ticks": 12816,
            "time": 66.75,
            "velocity": 0.5039370078740157
          },
          {
            "duration": 0.125,
            "durationTicks": 24,
            "midi": 76,
            "name": "E5",
            "ticks": 12816,
            "time": 66.75,
            "velocity": 0.5039370078740157
          },
          {
            "duration": 0.125,
            "durationTicks": 24,
            "midi": 35,
            "name": "B1",
            "ticks": 12840,
            "time": 66.875,
            "velocity": 0.5039370078740157
          },
          {
            "duration": 0.125,
            "durationTicks": 24,
            "midi": 66,
            "name": "F#4",
            "ticks": 12840,
            "time": 66.875,
            "velocity": 0.5039370078740157
          },
          {
            "duration": 0.25,
            "durationTicks": 48,
            "midi": 69,
            "name": "A4",
            "ticks": 12840,
            "time": 66.875,
            "velocity": 0.5039370078740157
          },
          {
            "duration": 0.25,
            "durationTicks": 48,
            "midi": 78,
            "name": "F#5",
            "ticks": 12840,
            "time": 66.875,
            "velocity": 0.5039370078740157
          },
          {
            "duration": 0.25,
            "durationTicks": 48,
            "midi": 28,
            "name": "E1",
            "ticks": 12864,
            "time": 67,
            "velocity": 0.5039370078740157
          },
          {
            "duration": 0.25,
            "durationTicks": 48,
            "midi": 40,
            "name": "E2",
            "ticks": 12864,
            "time": 67,
            "velocity": 0.5039370078740157
          },
          {
            "duration": 0.125,
            "durationTicks": 24,
            "midi": 66,
            "name": "F#4",
            "ticks": 12864,
            "time": 67,
            "velocity": 0.5039370078740157
          },
          {
            "duration": 0.25,
            "durationTicks": 48,
            "midi": 67,
            "name": "G4",
            "ticks": 12888,
            "time": 67.125,
            "velocity": 0.5039370078740157
          },
          {
            "duration": 0.25,
            "durationTicks": 48,
            "midi": 71,
            "name": "B4",
            "ticks": 12888,
            "time": 67.125,
            "velocity": 0.5039370078740157
          },
          {
            "duration": 0.25,
            "durationTicks": 48,
            "midi": 79,
            "name": "G5",
            "ticks": 12888,
            "time": 67.125,
            "velocity": 0.5039370078740157
          },
          {
            "duration": 0.125,
            "durationTicks": 24,
            "midi": 47,
            "name": "B2",
            "ticks": 12912,
            "time": 67.25,
            "velocity": 0.5039370078740157
          },
          {
            "duration": 0.125,
            "durationTicks": 24,
            "midi": 43,
            "name": "G2",
            "ticks": 12936,
            "time": 67.375,
            "velocity": 0.5039370078740157
          },
          {
            "duration": 0.25,
            "durationTicks": 48,
            "midi": 66,
            "name": "F#4",
            "ticks": 12936,
            "time": 67.375,
            "velocity": 0.5039370078740157
          },
          {
            "duration": 0.125,
            "durationTicks": 24,
            "midi": 69,
            "name": "A4",
            "ticks": 12936,
            "time": 67.375,
            "velocity": 0.5039370078740157
          },
          {
            "duration": 0.25,
            "durationTicks": 48,
            "midi": 78,
            "name": "F#5",
            "ticks": 12936,
            "time": 67.375,
            "velocity": 0.5039370078740157
          },
          {
            "duration": 0.25,
            "durationTicks": 48,
            "midi": 30,
            "name": "F#1",
            "ticks": 12960,
            "time": 67.5,
            "velocity": 0.5039370078740157
          },
          {
            "duration": 0.25,
            "durationTicks": 48,
            "midi": 42,
            "name": "F#2",
            "ticks": 12960,
            "time": 67.5,
            "velocity": 0.5039370078740157
          },
          {
            "duration": 0.125,
            "durationTicks": 24,
            "midi": 69,
            "name": "A4",
            "ticks": 12960,
            "time": 67.5,
            "velocity": 0.5039370078740157
          },
          {
            "duration": 0.25,
            "durationTicks": 48,
            "midi": 67,
            "name": "G4",
            "ticks": 12984,
            "time": 67.625,
            "velocity": 0.5039370078740157
          },
          {
            "duration": 0.25,
            "durationTicks": 48,
            "midi": 71,
            "name": "B4",
            "ticks": 12984,
            "time": 67.625,
            "velocity": 0.5039370078740157
          },
          {
            "duration": 0.25,
            "durationTicks": 48,
            "midi": 79,
            "name": "G5",
            "ticks": 12984,
            "time": 67.625,
            "velocity": 0.5039370078740157
          },
          {
            "duration": 0.125,
            "durationTicks": 24,
            "midi": 50,
            "name": "D3",
            "ticks": 13008,
            "time": 67.75,
            "velocity": 0.5039370078740157
          },
          {
            "duration": 0.125,
            "durationTicks": 24,
            "midi": 45,
            "name": "A2",
            "ticks": 13032,
            "time": 67.875,
            "velocity": 0.5039370078740157
          },
          {
            "duration": 0.125,
            "durationTicks": 24,
            "midi": 66,
            "name": "F#4",
            "ticks": 13032,
            "time": 67.875,
            "velocity": 0.5039370078740157
          },
          {
            "duration": 0.375,
            "durationTicks": 72,
            "midi": 69,
            "name": "A4",
            "ticks": 13032,
            "time": 67.875,
            "velocity": 0.5039370078740157
          },
          {
            "duration": 0.375,
            "durationTicks": 72,
            "midi": 78,
            "name": "F#5",
            "ticks": 13032,
            "time": 67.875,
            "velocity": 0.5039370078740157
          },
          {
            "duration": 0.25,
            "durationTicks": 48,
            "midi": 31,
            "name": "G1",
            "ticks": 13056,
            "time": 68,
            "velocity": 0.5039370078740157
          },
          {
            "duration": 0.25,
            "durationTicks": 48,
            "midi": 43,
            "name": "G2",
            "ticks": 13056,
            "time": 68,
            "velocity": 0.5039370078740157
          },
          {
            "duration": 0.25,
            "durationTicks": 48,
            "midi": 66,
            "name": "F#4",
            "ticks": 13056,
            "time": 68,
            "velocity": 0.5039370078740157
          },
          {
            "duration": 0.125,
            "durationTicks": 24,
            "midi": 50,
            "name": "D3",
            "ticks": 13104,
            "time": 68.25,
            "velocity": 0.5039370078740157
          },
          {
            "duration": 0.25,
            "durationTicks": 48,
            "midi": 62,
            "name": "D4",
            "ticks": 13104,
            "time": 68.25,
            "velocity": 0.5039370078740157
          },
          {
            "duration": 0.25,
            "durationTicks": 48,
            "midi": 67,
            "name": "G4",
            "ticks": 13104,
            "time": 68.25,
            "velocity": 0.5039370078740157
          },
          {
            "duration": 0.25,
            "durationTicks": 48,
            "midi": 74,
            "name": "D5",
            "ticks": 13104,
            "time": 68.25,
            "velocity": 0.5039370078740157
          },
          {
            "duration": 0.125,
            "durationTicks": 24,
            "midi": 55,
            "name": "G3",
            "ticks": 13128,
            "time": 68.375,
            "velocity": 0.5039370078740157
          },
          {
            "duration": 0.375,
            "durationTicks": 72,
            "midi": 59,
            "name": "B3",
            "ticks": 13152,
            "time": 68.5,
            "velocity": 0.5039370078740157
          },
          {
            "duration": 0.375,
            "durationTicks": 72,
            "midi": 62,
            "name": "D4",
            "ticks": 13152,
            "time": 68.5,
            "velocity": 0.5039370078740157
          },
          {
            "duration": 0.375,
            "durationTicks": 72,
            "midi": 79,
            "name": "G5",
            "ticks": 13152,
            "time": 68.5,
            "velocity": 0.5039370078740157
          },
          {
            "duration": 0.375,
            "durationTicks": 72,
            "midi": 83,
            "name": "B5",
            "ticks": 13152,
            "time": 68.5,
            "velocity": 0.5039370078740157
          },
          {
            "duration": 0.375,
            "durationTicks": 72,
            "midi": 91,
            "name": "G6",
            "ticks": 13152,
            "time": 68.5,
            "velocity": 0.5039370078740157
          },
          {
            "duration": 0.125,
            "durationTicks": 24,
            "midi": 52,
            "name": "E3",
            "ticks": 13224,
            "time": 68.875,
            "velocity": 0.5039370078740157
          },
          {
            "duration": 0.125,
            "durationTicks": 24,
            "midi": 54,
            "name": "F#3",
            "ticks": 13224,
            "time": 68.875,
            "velocity": 0.5039370078740157
          },
          {
            "duration": 0,
            "durationTicks": 0,
            "midi": 57,
            "name": "A3",
            "ticks": 13224,
            "time": 68.875,
            "velocity": 0.5039370078740157
          },
          {
            "duration": 0.25,
            "durationTicks": 48,
            "midi": 61,
            "name": "C#4",
            "ticks": 13224,
            "time": 68.875,
            "velocity": 0.5039370078740157
          },
          {
            "duration": 0.375,
            "durationTicks": 72,
            "midi": 78,
            "name": "F#5",
            "ticks": 13224,
            "time": 68.875,
            "velocity": 0.5039370078740157
          },
          {
            "duration": 0.375,
            "durationTicks": 72,
            "midi": 81,
            "name": "A5",
            "ticks": 13224,
            "time": 68.875,
            "velocity": 0.5039370078740157
          },
          {
            "duration": 0.375,
            "durationTicks": 72,
            "midi": 90,
            "name": "F#6",
            "ticks": 13224,
            "time": 68.875,
            "velocity": 0.5039370078740157
          },
          {
            "duration": 0.125,
            "durationTicks": 24,
            "midi": 52,
            "name": "E3",
            "ticks": 13248,
            "time": 69,
            "velocity": 0.5039370078740157
          },
          {
            "duration": 0.125,
            "durationTicks": 24,
            "midi": 57,
            "name": "A3",
            "ticks": 13248,
            "time": 69,
            "velocity": 0.5039370078740157
          },
          {
            "duration": 0.125,
            "durationTicks": 24,
            "midi": 52,
            "name": "E3",
            "ticks": 13272,
            "time": 69.125,
            "velocity": 0.5039370078740157
          },
          {
            "duration": 0.125,
            "durationTicks": 24,
            "midi": 54,
            "name": "F#3",
            "ticks": 13272,
            "time": 69.125,
            "velocity": 0.5039370078740157
          },
          {
            "duration": 0.125,
            "durationTicks": 24,
            "midi": 57,
            "name": "A3",
            "ticks": 13272,
            "time": 69.125,
            "velocity": 0.5039370078740157
          },
          {
            "duration": 0.125,
            "durationTicks": 24,
            "midi": 61,
            "name": "C#4",
            "ticks": 13272,
            "time": 69.125,
            "velocity": 0.5039370078740157
          },
          {
            "duration": 0.25,
            "durationTicks": 48,
            "midi": 52,
            "name": "E3",
            "ticks": 13296,
            "time": 69.25,
            "velocity": 0.5039370078740157
          },
          {
            "duration": 0.25,
            "durationTicks": 48,
            "midi": 54,
            "name": "F#3",
            "ticks": 13296,
            "time": 69.25,
            "velocity": 0.5039370078740157
          },
          {
            "duration": 0.25,
            "durationTicks": 48,
            "midi": 57,
            "name": "A3",
            "ticks": 13296,
            "time": 69.25,
            "velocity": 0.5039370078740157
          },
          {
            "duration": 0.125,
            "durationTicks": 24,
            "midi": 61,
            "name": "C#4",
            "ticks": 13296,
            "time": 69.25,
            "velocity": 0.5039370078740157
          },
          {
            "duration": 0.375,
            "durationTicks": 72,
            "midi": 33,
            "name": "A1",
            "ticks": 13344,
            "time": 69.5,
            "velocity": 0.5039370078740157
          },
          {
            "duration": 0.375,
            "durationTicks": 72,
            "midi": 45,
            "name": "A2",
            "ticks": 13344,
            "time": 69.5,
            "velocity": 0.5039370078740157
          },
          {
            "duration": 0.375,
            "durationTicks": 72,
            "midi": 73,
            "name": "C#5",
            "ticks": 13344,
            "time": 69.5,
            "velocity": 0.5039370078740157
          },
          {
            "duration": 0.375,
            "durationTicks": 72,
            "midi": 76,
            "name": "E5",
            "ticks": 13344,
            "time": 69.5,
            "velocity": 0.5039370078740157
          },
          {
            "duration": 0.375,
            "durationTicks": 72,
            "midi": 85,
            "name": "C#6",
            "ticks": 13344,
            "time": 69.5,
            "velocity": 0.5039370078740157
          },
          {
            "duration": 0.375,
            "durationTicks": 72,
            "midi": 54,
            "name": "F#3",
            "ticks": 13416,
            "time": 69.875,
            "velocity": 0.5039370078740157
          },
          {
            "duration": 0.375,
            "durationTicks": 72,
            "midi": 57,
            "name": "A3",
            "ticks": 13416,
            "time": 69.875,
            "velocity": 0.5039370078740157
          },
          {
            "duration": 0.125,
            "durationTicks": 24,
            "midi": 59,
            "name": "B3",
            "ticks": 13416,
            "time": 69.875,
            "velocity": 0.5039370078740157
          },
          {
            "duration": 0.375,
            "durationTicks": 72,
            "midi": 62,
            "name": "D4",
            "ticks": 13416,
            "time": 69.875,
            "velocity": 0.5039370078740157
          },
          {
            "duration": 0.375,
            "durationTicks": 72,
            "midi": 74,
            "name": "D5",
            "ticks": 13416,
            "time": 69.875,
            "velocity": 0.5039370078740157
          },
          {
            "duration": 0.375,
            "durationTicks": 72,
            "midi": 78,
            "name": "F#5",
            "ticks": 13416,
            "time": 69.875,
            "velocity": 0.5039370078740157
          },
          {
            "duration": 0.375,
            "durationTicks": 72,
            "midi": 86,
            "name": "D6",
            "ticks": 13416,
            "time": 69.875,
            "velocity": 0.5039370078740157
          },
          {
            "duration": 0.25,
            "durationTicks": 48,
            "midi": 59,
            "name": "B3",
            "ticks": 13440,
            "time": 70,
            "velocity": 0.5039370078740157
          },
          {
            "duration": 0.25,
            "durationTicks": 48,
            "midi": 35,
            "name": "B1",
            "ticks": 13488,
            "time": 70.25,
            "velocity": 0.5039370078740157
          },
          {
            "duration": 0.25,
            "durationTicks": 48,
            "midi": 47,
            "name": "B2",
            "ticks": 13488,
            "time": 70.25,
            "velocity": 0.5039370078740157
          },
          {
            "duration": 0.125,
            "durationTicks": 24,
            "midi": 50,
            "name": "D3",
            "ticks": 13536,
            "time": 70.5,
            "velocity": 0.5039370078740157
          },
          {
            "duration": 0.375,
            "durationTicks": 72,
            "midi": 79,
            "name": "G5",
            "ticks": 13536,
            "time": 70.5,
            "velocity": 0.5039370078740157
          },
          {
            "duration": 0.375,
            "durationTicks": 72,
            "midi": 83,
            "name": "B5",
            "ticks": 13536,
            "time": 70.5,
            "velocity": 0.5039370078740157
          },
          {
            "duration": 0.375,
            "durationTicks": 72,
            "midi": 91,
            "name": "G6",
            "ticks": 13536,
            "time": 70.5,
            "velocity": 0.5039370078740157
          },
          {
            "duration": 0.125,
            "durationTicks": 24,
            "midi": 54,
            "name": "F#3",
            "ticks": 13560,
            "time": 70.625,
            "velocity": 0.5039370078740157
          },
          {
            "duration": 0.125,
            "durationTicks": 24,
            "midi": 59,
            "name": "B3",
            "ticks": 13584,
            "time": 70.75,
            "velocity": 0.5039370078740157
          },
          {
            "duration": 0.25,
            "durationTicks": 48,
            "midi": 49,
            "name": "C#3",
            "ticks": 13608,
            "time": 70.875,
            "velocity": 0.5039370078740157
          },
          {
            "duration": 0.125,
            "durationTicks": 24,
            "midi": 52,
            "name": "E3",
            "ticks": 13608,
            "time": 70.875,
            "velocity": 0.5039370078740157
          },
          {
            "duration": 0.125,
            "durationTicks": 24,
            "midi": 54,
            "name": "F#3",
            "ticks": 13608,
            "time": 70.875,
            "velocity": 0.5039370078740157
          },
          {
            "duration": 0.25,
            "durationTicks": 48,
            "midi": 57,
            "name": "A3",
            "ticks": 13608,
            "time": 70.875,
            "velocity": 0.5039370078740157
          },
          {
            "duration": 0.375,
            "durationTicks": 72,
            "midi": 78,
            "name": "F#5",
            "ticks": 13608,
            "time": 70.875,
            "velocity": 0.5039370078740157
          },
          {
            "duration": 0.375,
            "durationTicks": 72,
            "midi": 81,
            "name": "A5",
            "ticks": 13608,
            "time": 70.875,
            "velocity": 0.5039370078740157
          },
          {
            "duration": 0.375,
            "durationTicks": 72,
            "midi": 90,
            "name": "F#6",
            "ticks": 13608,
            "time": 70.875,
            "velocity": 0.5039370078740157
          },
          {
            "duration": 0.125,
            "durationTicks": 24,
            "midi": 52,
            "name": "E3",
            "ticks": 13632,
            "time": 71,
            "velocity": 0.5039370078740157
          },
          {
            "duration": 0.125,
            "durationTicks": 24,
            "midi": 54,
            "name": "F#3",
            "ticks": 13632,
            "time": 71,
            "velocity": 0.5039370078740157
          },
          {
            "duration": 0.125,
            "durationTicks": 24,
            "midi": 42,
            "name": "F#2",
            "ticks": 13656,
            "time": 71.125,
            "velocity": 0.5039370078740157
          },
          {
            "duration": 0.25,
            "durationTicks": 48,
            "midi": 30,
            "name": "F#1",
            "ticks": 13680,
            "time": 71.25,
            "velocity": 0.5039370078740157
          },
          {
            "duration": 0.125,
            "durationTicks": 24,
            "midi": 57,
            "name": "A3",
            "ticks": 13728,
            "time": 71.5,
            "velocity": 0.5039370078740157
          },
          {
            "duration": 0.25,
            "durationTicks": 48,
            "midi": 73,
            "name": "C#5",
            "ticks": 13728,
            "time": 71.5,
            "velocity": 0.5039370078740157
          },
          {
            "duration": 0.25,
            "durationTicks": 48,
            "midi": 76,
            "name": "E5",
            "ticks": 13728,
            "time": 71.5,
            "velocity": 0.5039370078740157
          },
          {
            "duration": 0.25,
            "durationTicks": 48,
            "midi": 85,
            "name": "C#6",
            "ticks": 13728,
            "time": 71.5,
            "velocity": 0.5039370078740157
          },
          {
            "duration": 0.125,
            "durationTicks": 24,
            "midi": 59,
            "name": "B3",
            "ticks": 13752,
            "time": 71.625,
            "velocity": 0.5039370078740157
          },
          {
            "duration": 0.125,
            "durationTicks": 24,
            "midi": 54,
            "name": "F#3",
            "ticks": 13776,
            "time": 71.75,
            "velocity": 0.5039370078740157
          },
          {
            "duration": 0.125,
            "durationTicks": 24,
            "midi": 73,
            "name": "C#5",
            "ticks": 13776,
            "time": 71.75,
            "velocity": 0.5039370078740157
          },
          {
            "duration": 0.125,
            "durationTicks": 24,
            "midi": 76,
            "name": "E5",
            "ticks": 13776,
            "time": 71.75,
            "velocity": 0.5039370078740157
          },
          {
            "duration": 0.125,
            "durationTicks": 24,
            "midi": 85,
            "name": "C#6",
            "ticks": 13776,
            "time": 71.75,
            "velocity": 0.5039370078740157
          },
          {
            "duration": 0.125,
            "durationTicks": 24,
            "midi": 52,
            "name": "E3",
            "ticks": 13800,
            "time": 71.875,
            "velocity": 0.5039370078740157
          },
          {
            "duration": 0.125,
            "durationTicks": 24,
            "midi": 69,
            "name": "A4",
            "ticks": 13800,
            "time": 71.875,
            "velocity": 0.5039370078740157
          },
          {
            "duration": 0.125,
            "durationTicks": 24,
            "midi": 76,
            "name": "E5",
            "ticks": 13800,
            "time": 71.875,
            "velocity": 0.5039370078740157
          },
          {
            "duration": 0.125,
            "durationTicks": 24,
            "midi": 81,
            "name": "A5",
            "ticks": 13800,
            "time": 71.875,
            "velocity": 0.5039370078740157
          },
          {
            "duration": 0.25,
            "durationTicks": 48,
            "midi": 43,
            "name": "G2",
            "ticks": 13824,
            "time": 72,
            "velocity": 0.5039370078740157
          },
          {
            "duration": 0.25,
            "durationTicks": 48,
            "midi": 50,
            "name": "D3",
            "ticks": 13824,
            "time": 72,
            "velocity": 0.5039370078740157
          },
          {
            "duration": 0.25,
            "durationTicks": 48,
            "midi": 69,
            "name": "A4",
            "ticks": 13824,
            "time": 72,
            "velocity": 0.5039370078740157
          },
          {
            "duration": 0.25,
            "durationTicks": 48,
            "midi": 76,
            "name": "E5",
            "ticks": 13824,
            "time": 72,
            "velocity": 0.5039370078740157
          },
          {
            "duration": 0.25,
            "durationTicks": 48,
            "midi": 81,
            "name": "A5",
            "ticks": 13824,
            "time": 72,
            "velocity": 0.5039370078740157
          },
          {
            "duration": 0.125,
            "durationTicks": 24,
            "midi": 50,
            "name": "D3",
            "ticks": 13872,
            "time": 72.25,
            "velocity": 0.5039370078740157
          },
          {
            "duration": 0.125,
            "durationTicks": 24,
            "midi": 55,
            "name": "G3",
            "ticks": 13896,
            "time": 72.375,
            "velocity": 0.5039370078740157
          },
          {
            "duration": 0.25,
            "durationTicks": 48,
            "midi": 59,
            "name": "B3",
            "ticks": 13920,
            "time": 72.5,
            "velocity": 0.5039370078740157
          },
          {
            "duration": 0.25,
            "durationTicks": 48,
            "midi": 62,
            "name": "D4",
            "ticks": 13920,
            "time": 72.5,
            "velocity": 0.5039370078740157
          },
          {
            "duration": 0.375,
            "durationTicks": 72,
            "midi": 76,
            "name": "E5",
            "ticks": 13920,
            "time": 72.5,
            "velocity": 0.5039370078740157
          },
          {
            "duration": 0.375,
            "durationTicks": 72,
            "midi": 79,
            "name": "G5",
            "ticks": 13920,
            "time": 72.5,
            "velocity": 0.5039370078740157
          },
          {
            "duration": 0.375,
            "durationTicks": 72,
            "midi": 88,
            "name": "E6",
            "ticks": 13920,
            "time": 72.5,
            "velocity": 0.5039370078740157
          },
          {
            "duration": 0.125,
            "durationTicks": 24,
            "midi": 64,
            "name": "E4",
            "ticks": 13968,
            "time": 72.75,
            "velocity": 0.5039370078740157
          },
          {
            "duration": 0.25,
            "durationTicks": 48,
            "midi": 57,
            "name": "A3",
            "ticks": 13992,
            "time": 72.875,
            "velocity": 0.5039370078740157
          },
          {
            "duration": 0.125,
            "durationTicks": 24,
            "midi": 59,
            "name": "B3",
            "ticks": 13992,
            "time": 72.875,
            "velocity": 0.5039370078740157
          },
          {
            "duration": 0.125,
            "durationTicks": 24,
            "midi": 61,
            "name": "C#4",
            "ticks": 13992,
            "time": 72.875,
            "velocity": 0.5039370078740157
          },
          {
            "duration": 0.375,
            "durationTicks": 72,
            "midi": 74,
            "name": "D5",
            "ticks": 13992,
            "time": 72.875,
            "velocity": 0.5039370078740157
          },
          {
            "duration": 0.375,
            "durationTicks": 72,
            "midi": 78,
            "name": "F#5",
            "ticks": 13992,
            "time": 72.875,
            "velocity": 0.5039370078740157
          },
          {
            "duration": 0.375,
            "durationTicks": 72,
            "midi": 86,
            "name": "D6",
            "ticks": 13992,
            "time": 72.875,
            "velocity": 0.5039370078740157
          },
          {
            "duration": 0.125,
            "durationTicks": 24,
            "midi": 59,
            "name": "B3",
            "ticks": 14016,
            "time": 73,
            "velocity": 0.5039370078740157
          },
          {
            "duration": 0.125,
            "durationTicks": 24,
            "midi": 61,
            "name": "C#4",
            "ticks": 14016,
            "time": 73,
            "velocity": 0.5039370078740157
          },
          {
            "duration": 0.125,
            "durationTicks": 24,
            "midi": 57,
            "name": "A3",
            "ticks": 14040,
            "time": 73.125,
            "velocity": 0.5039370078740157
          },
          {
            "duration": 0.125,
            "durationTicks": 24,
            "midi": 59,
            "name": "B3",
            "ticks": 14040,
            "time": 73.125,
            "velocity": 0.5039370078740157
          },
          {
            "duration": 0.125,
            "durationTicks": 24,
            "midi": 61,
            "name": "C#4",
            "ticks": 14040,
            "time": 73.125,
            "velocity": 0.5039370078740157
          },
          {
            "duration": 0.25,
            "durationTicks": 48,
            "midi": 57,
            "name": "A3",
            "ticks": 14064,
            "time": 73.25,
            "velocity": 0.5039370078740157
          },
          {
            "duration": 0.25,
            "durationTicks": 48,
            "midi": 59,
            "name": "B3",
            "ticks": 14064,
            "time": 73.25,
            "velocity": 0.5039370078740157
          },
          {
            "duration": 0.125,
            "durationTicks": 24,
            "midi": 61,
            "name": "C#4",
            "ticks": 14064,
            "time": 73.25,
            "velocity": 0.5039370078740157
          },
          {
            "duration": 0.375,
            "durationTicks": 72,
            "midi": 33,
            "name": "A1",
            "ticks": 14112,
            "time": 73.5,
            "velocity": 0.5039370078740157
          },
          {
            "duration": 0.375,
            "durationTicks": 72,
            "midi": 45,
            "name": "A2",
            "ticks": 14112,
            "time": 73.5,
            "velocity": 0.5039370078740157
          },
          {
            "duration": 0.375,
            "durationTicks": 72,
            "midi": 73,
            "name": "C#5",
            "ticks": 14112,
            "time": 73.5,
            "velocity": 0.5039370078740157
          },
          {
            "duration": 0.375,
            "durationTicks": 72,
            "midi": 76,
            "name": "E5",
            "ticks": 14112,
            "time": 73.5,
            "velocity": 0.5039370078740157
          },
          {
            "duration": 0.375,
            "durationTicks": 72,
            "midi": 85,
            "name": "C#6",
            "ticks": 14112,
            "time": 73.5,
            "velocity": 0.5039370078740157
          },
          {
            "duration": 0.375,
            "durationTicks": 72,
            "midi": 54,
            "name": "F#3",
            "ticks": 14184,
            "time": 73.875,
            "velocity": 0.5039370078740157
          },
          {
            "duration": 0.375,
            "durationTicks": 72,
            "midi": 57,
            "name": "A3",
            "ticks": 14184,
            "time": 73.875,
            "velocity": 0.5039370078740157
          },
          {
            "duration": 0.125,
            "durationTicks": 24,
            "midi": 59,
            "name": "B3",
            "ticks": 14184,
            "time": 73.875,
            "velocity": 0.5039370078740157
          },
          {
            "duration": 0.375,
            "durationTicks": 72,
            "midi": 62,
            "name": "D4",
            "ticks": 14184,
            "time": 73.875,
            "velocity": 0.5039370078740157
          },
          {
            "duration": 0.25,
            "durationTicks": 48,
            "midi": 74,
            "name": "D5",
            "ticks": 14184,
            "time": 73.875,
            "velocity": 0.5039370078740157
          },
          {
            "duration": 0.25,
            "durationTicks": 48,
            "midi": 78,
            "name": "F#5",
            "ticks": 14184,
            "time": 73.875,
            "velocity": 0.5039370078740157
          },
          {
            "duration": 0.25,
            "durationTicks": 48,
            "midi": 86,
            "name": "D6",
            "ticks": 14184,
            "time": 73.875,
            "velocity": 0.5039370078740157
          },
          {
            "duration": 0.25,
            "durationTicks": 48,
            "midi": 59,
            "name": "B3",
            "ticks": 14208,
            "time": 74,
            "velocity": 0.5039370078740157
          },
          {
            "duration": 0.125,
            "durationTicks": 24,
            "midi": 93,
            "name": "A6",
            "ticks": 14232,
            "time": 74.125,
            "velocity": 0.5039370078740157
          },
          {
            "duration": 0.25,
            "durationTicks": 48,
            "midi": 47,
            "name": "B2",
            "ticks": 14256,
            "time": 74.25,
            "velocity": 0.5039370078740157
          },
          {
            "duration": 0.25,
            "durationTicks": 48,
            "midi": 54,
            "name": "F#3",
            "ticks": 14256,
            "time": 74.25,
            "velocity": 0.5039370078740157
          },
          {
            "duration": 0.25,
            "durationTicks": 48,
            "midi": 59,
            "name": "B3",
            "ticks": 14256,
            "time": 74.25,
            "velocity": 0.5039370078740157
          },
          {
            "duration": 0.125,
            "durationTicks": 24,
            "midi": 86,
            "name": "D6",
            "ticks": 14256,
            "time": 74.25,
            "velocity": 0.5039370078740157
          },
          {
            "duration": 0.125,
            "durationTicks": 24,
            "midi": 81,
            "name": "A5",
            "ticks": 14280,
            "time": 74.375,
            "velocity": 0.5039370078740157
          },
          {
            "duration": 0.25,
            "durationTicks": 48,
            "midi": 57,
            "name": "A3",
            "ticks": 14304,
            "time": 74.5,
            "velocity": 0.5039370078740157
          },
          {
            "duration": 0.25,
            "durationTicks": 48,
            "midi": 59,
            "name": "B3",
            "ticks": 14304,
            "time": 74.5,
            "velocity": 0.5039370078740157
          },
          {
            "duration": 0.125,
            "durationTicks": 24,
            "midi": 62,
            "name": "D4",
            "ticks": 14304,
            "time": 74.5,
            "velocity": 0.5039370078740157
          },
          {
            "duration": 0.125,
            "durationTicks": 24,
            "midi": 78,
            "name": "F#5",
            "ticks": 14304,
            "time": 74.5,
            "velocity": 0.5039370078740157
          },
          {
            "duration": 0.125,
            "durationTicks": 24,
            "midi": 74,
            "name": "D5",
            "ticks": 14328,
            "time": 74.625,
            "velocity": 0.5039370078740157
          },
          {
            "duration": 0.25,
            "durationTicks": 48,
            "midi": 54,
            "name": "F#3",
            "ticks": 14352,
            "time": 74.75,
            "velocity": 0.5039370078740157
          },
          {
            "duration": 0.25,
            "durationTicks": 48,
            "midi": 57,
            "name": "A3",
            "ticks": 14352,
            "time": 74.75,
            "velocity": 0.5039370078740157
          },
          {
            "duration": 0.25,
            "durationTicks": 48,
            "midi": 59,
            "name": "B3",
            "ticks": 14352,
            "time": 74.75,
            "velocity": 0.5039370078740157
          },
          {
            "duration": 0.125,
            "durationTicks": 24,
            "midi": 69,
            "name": "A4",
            "ticks": 14352,
            "time": 74.75,
            "velocity": 0.5039370078740157
          },
          {
            "duration": 0.125,
            "durationTicks": 24,
            "midi": 66,
            "name": "F#4",
            "ticks": 14376,
            "time": 74.875,
            "velocity": 0.5039370078740157
          },
          {
            "duration": 0.5,
            "durationTicks": 96,
            "midi": 52,
            "name": "E3",
            "ticks": 14400,
            "time": 75,
            "velocity": 0.5039370078740157
          },
          {
            "duration": 0.5,
            "durationTicks": 96,
            "midi": 55,
            "name": "G3",
            "ticks": 14400,
            "time": 75,
            "velocity": 0.5039370078740157
          },
          {
            "duration": 0.5,
            "durationTicks": 96,
            "midi": 59,
            "name": "B3",
            "ticks": 14400,
            "time": 75,
            "velocity": 0.5039370078740157
          },
          {
            "duration": 0.5,
            "durationTicks": 96,
            "midi": 62,
            "name": "D4",
            "ticks": 14400,
            "time": 75,
            "velocity": 0.5039370078740157
          },
          {
            "duration": 0.5,
            "durationTicks": 96,
            "midi": 64,
            "name": "E4",
            "ticks": 14400,
            "time": 75,
            "velocity": 0.5039370078740157
          },
          {
            "duration": 0.5,
            "durationTicks": 96,
            "midi": 67,
            "name": "G4",
            "ticks": 14400,
            "time": 75,
            "velocity": 0.5039370078740157
          },
          {
            "duration": 0.5,
            "durationTicks": 96,
            "midi": 42,
            "name": "F#2",
            "ticks": 14496,
            "time": 75.5,
            "velocity": 0.5039370078740157
          },
          {
            "duration": 0.5,
            "durationTicks": 96,
            "midi": 50,
            "name": "D3",
            "ticks": 14496,
            "time": 75.5,
            "velocity": 0.5039370078740157
          },
          {
            "duration": 0.5,
            "durationTicks": 96,
            "midi": 57,
            "name": "A3",
            "ticks": 14496,
            "time": 75.5,
            "velocity": 0.5039370078740157
          },
          {
            "duration": 0.5,
            "durationTicks": 96,
            "midi": 59,
            "name": "B3",
            "ticks": 14496,
            "time": 75.5,
            "velocity": 0.5039370078740157
          },
          {
            "duration": 0.5,
            "durationTicks": 96,
            "midi": 62,
            "name": "D4",
            "ticks": 14496,
            "time": 75.5,
            "velocity": 0.5039370078740157
          },
          {
            "duration": 0.5,
            "durationTicks": 96,
            "midi": 66,
            "name": "F#4",
            "ticks": 14496,
            "time": 75.5,
            "velocity": 0.5039370078740157
          },
          {
            "duration": 0.125,
            "durationTicks": 24,
            "midi": 43,
            "name": "G2",
            "ticks": 14592,
            "time": 76,
            "velocity": 0.5039370078740157
          },
          {
            "duration": 0.25,
            "durationTicks": 48,
            "midi": 55,
            "name": "G3",
            "ticks": 14592,
            "time": 76,
            "velocity": 0.5039370078740157
          },
          {
            "duration": 0.25,
            "durationTicks": 48,
            "midi": 59,
            "name": "B3",
            "ticks": 14592,
            "time": 76,
            "velocity": 0.5039370078740157
          },
          {
            "duration": 0.25,
            "durationTicks": 48,
            "midi": 62,
            "name": "D4",
            "ticks": 14592,
            "time": 76,
            "velocity": 0.5039370078740157
          },
          {
            "duration": 0.25,
            "durationTicks": 48,
            "midi": 66,
            "name": "F#4",
            "ticks": 14592,
            "time": 76,
            "velocity": 0.5039370078740157
          },
          {
            "duration": 0.125,
            "durationTicks": 24,
            "midi": 50,
            "name": "D3",
            "ticks": 14616,
            "time": 76.125,
            "velocity": 0.5039370078740157
          },
          {
            "duration": 0.125,
            "durationTicks": 24,
            "midi": 57,
            "name": "A3",
            "ticks": 14640,
            "time": 76.25,
            "velocity": 0.5039370078740157
          },
          {
            "duration": 0.125,
            "durationTicks": 24,
            "midi": 62,
            "name": "D4",
            "ticks": 14640,
            "time": 76.25,
            "velocity": 0.5039370078740157
          },
          {
            "duration": 0.125,
            "durationTicks": 24,
            "midi": 64,
            "name": "E4",
            "ticks": 14664,
            "time": 76.375,
            "velocity": 0.5039370078740157
          },
          {
            "duration": 0.125,
            "durationTicks": 24,
            "midi": 67,
            "name": "G4",
            "ticks": 14664,
            "time": 76.375,
            "velocity": 0.5039370078740157
          },
          {
            "duration": 0.125,
            "durationTicks": 24,
            "midi": 62,
            "name": "D4",
            "ticks": 14688,
            "time": 76.5,
            "velocity": 0.5039370078740157
          },
          {
            "duration": 0.125,
            "durationTicks": 24,
            "midi": 69,
            "name": "A4",
            "ticks": 14688,
            "time": 76.5,
            "velocity": 0.5039370078740157
          },
          {
            "duration": 0.125,
            "durationTicks": 24,
            "midi": 57,
            "name": "A3",
            "ticks": 14712,
            "time": 76.625,
            "velocity": 0.5039370078740157
          },
          {
            "duration": 0.125,
            "durationTicks": 24,
            "midi": 76,
            "name": "E5",
            "ticks": 14712,
            "time": 76.625,
            "velocity": 0.5039370078740157
          },
          {
            "duration": 0.25,
            "durationTicks": 48,
            "midi": 55,
            "name": "G3",
            "ticks": 14736,
            "time": 76.75,
            "velocity": 0.5039370078740157
          },
          {
            "duration": 0.125,
            "durationTicks": 24,
            "midi": 74,
            "name": "D5",
            "ticks": 14736,
            "time": 76.75,
            "velocity": 0.5039370078740157
          },
          {
            "duration": 0.125,
            "durationTicks": 24,
            "midi": 69,
            "name": "A4",
            "ticks": 14760,
            "time": 76.875,
            "velocity": 0.5039370078740157
          },
          {
            "duration": 0.375,
            "durationTicks": 72,
            "midi": 40,
            "name": "E2",
            "ticks": 14784,
            "time": 77,
            "velocity": 0.5039370078740157
          },
          {
            "duration": 0.375,
            "durationTicks": 72,
            "midi": 50,
            "name": "D3",
            "ticks": 14784,
            "time": 77,
            "velocity": 0.5039370078740157
          },
          {
            "duration": 0.375,
            "durationTicks": 72,
            "midi": 55,
            "name": "G3",
            "ticks": 14784,
            "time": 77,
            "velocity": 0.5039370078740157
          },
          {
            "duration": 0.375,
            "durationTicks": 72,
            "midi": 67,
            "name": "G4",
            "ticks": 14784,
            "time": 77,
            "velocity": 0.5039370078740157
          },
          {
            "duration": 0.375,
            "durationTicks": 72,
            "midi": 71,
            "name": "B4",
            "ticks": 14784,
            "time": 77,
            "velocity": 0.5039370078740157
          },
          {
            "duration": 0.375,
            "durationTicks": 72,
            "midi": 74,
            "name": "D5",
            "ticks": 14784,
            "time": 77,
            "velocity": 0.5039370078740157
          },
          {
            "duration": 0.375,
            "durationTicks": 72,
            "midi": 79,
            "name": "G5",
            "ticks": 14784,
            "time": 77,
            "velocity": 0.5039370078740157
          },
          {
            "duration": 0.125,
            "durationTicks": 24,
            "midi": 42,
            "name": "F#2",
            "ticks": 14856,
            "time": 77.375,
            "velocity": 0.5039370078740157
          },
          {
            "duration": 0.125,
            "durationTicks": 24,
            "midi": 50,
            "name": "D3",
            "ticks": 14856,
            "time": 77.375,
            "velocity": 0.5039370078740157
          },
          {
            "duration": 0.125,
            "durationTicks": 24,
            "midi": 57,
            "name": "A3",
            "ticks": 14856,
            "time": 77.375,
            "velocity": 0.5039370078740157
          },
          {
            "duration": 0.125,
            "durationTicks": 24,
            "midi": 66,
            "name": "F#4",
            "ticks": 14856,
            "time": 77.375,
            "velocity": 0.5039370078740157
          },
          {
            "duration": 0.125,
            "durationTicks": 24,
            "midi": 69,
            "name": "A4",
            "ticks": 14856,
            "time": 77.375,
            "velocity": 0.5039370078740157
          },
          {
            "duration": 0.125,
            "durationTicks": 24,
            "midi": 74,
            "name": "D5",
            "ticks": 14856,
            "time": 77.375,
            "velocity": 0.5039370078740157
          },
          {
            "duration": 0.125,
            "durationTicks": 24,
            "midi": 78,
            "name": "F#5",
            "ticks": 14856,
            "time": 77.375,
            "velocity": 0.5039370078740157
          },
          {
            "duration": 0.25,
            "durationTicks": 48,
            "midi": 43,
            "name": "G2",
            "ticks": 14928,
            "time": 77.75,
            "velocity": 0.5039370078740157
          },
          {
            "duration": 4.25,
            "durationTicks": 816,
            "midi": 54,
            "name": "F#3",
            "ticks": 14928,
            "time": 77.75,
            "velocity": 0.5039370078740157
          },
          {
            "duration": 2.25,
            "durationTicks": 432,
            "midi": 59,
            "name": "B3",
            "ticks": 14928,
            "time": 77.75,
            "velocity": 0.5039370078740157
          },
          {
            "duration": 1.25,
            "durationTicks": 240,
            "midi": 62,
            "name": "D4",
            "ticks": 14928,
            "time": 77.75,
            "velocity": 0.5039370078740157
          },
          {
            "duration": 2.125,
            "durationTicks": 408,
            "midi": 67,
            "name": "G4",
            "ticks": 14928,
            "time": 77.75,
            "velocity": 0.5039370078740157
          },
          {
            "duration": 2.125,
            "durationTicks": 408,
            "midi": 71,
            "name": "B4",
            "ticks": 14928,
            "time": 77.75,
            "velocity": 0.5039370078740157
          },
          {
            "duration": 2.125,
            "durationTicks": 408,
            "midi": 76,
            "name": "E5",
            "ticks": 14928,
            "time": 77.75,
            "velocity": 0.5039370078740157
          },
          {
            "duration": 4,
            "durationTicks": 768,
            "midi": 43,
            "name": "G2",
            "ticks": 14976,
            "time": 78,
            "velocity": 0.5039370078740157
          },
          {
            "duration": 0.875,
            "durationTicks": 168,
            "midi": 62,
            "name": "D4",
            "ticks": 15168,
            "time": 79,
            "velocity": 0.5039370078740157
          },
          {
            "duration": 0.041666666666671404,
            "durationTicks": 8,
            "midi": 81,
            "name": "A5",
            "ticks": 15336,
            "time": 79.875,
            "velocity": 0.5039370078740157
          },
          {
            "duration": 0.04166666666665719,
            "durationTicks": 8,
            "midi": 86,
            "name": "D6",
            "ticks": 15344,
            "time": 79.91666666666667,
            "velocity": 0.5039370078740157
          },
          {
            "duration": 0.041666666666671404,
            "durationTicks": 8,
            "midi": 88,
            "name": "E6",
            "ticks": 15352,
            "time": 79.95833333333333,
            "velocity": 0.5039370078740157
          },
          {
            "duration": 2,
            "durationTicks": 384,
            "midi": 59,
            "name": "B3",
            "ticks": 15360,
            "time": 80,
            "velocity": 0.5039370078740157
          },
          {
            "duration": 2,
            "durationTicks": 384,
            "midi": 93,
            "name": "A6",
            "ticks": 15360,
            "time": 80,
            "velocity": 0.5039370078740157
          }
        ],
        "endOfTrackTicks": 15744
      }
    ]
  }